<?xml version="1.0" encoding="utf-8"?>
<!-- Generator: Adobe Illustrator 22.1.0, SVG Export Plug-In . SVG Version: 6.00 Build 0)  -->
<svg version="1.1" id="Layer_1" xmlns="http://www.w3.org/2000/svg" xmlns:xlink="http://www.w3.org/1999/xlink" x="0px" y="0px"
	 viewBox="0 0 121.9 122" style="enable-background:new 0 0 121.9 122;" xml:space="preserve">
<style type="text/css">
	.st0{fill:none;stroke:#FFFFFF;stroke-width:2;stroke-miterlimit:10;}
</style>
<title>Asset 5</title>
<g id="Layer_2_1_">
	<g id="Layer_1-2">
		<path class="st0" d="M120.9,77.5v1.7c0,0-0.1,0.1-0.1,0.2c-0.3,2.3-1.7,4.4-3.8,5.5c-2,1.2-4.1,2.4-6.2,3.5
			c-1.9,0.9-3.6,2.1-5.3,3.4c-1.7,1.4-2.8,3.4-3,5.6c-0.2,2.7-0.2,5.3-0.4,8c-0.1,1.8-0.3,3.7-0.6,5.5c-0.7,4.7-4.3,8.5-9,9.4
			c-1.2,0.3-2.5,0.5-3.7,0.7c-1.4,0-3.3,0-3.3,0c-1.6-0.3-3.2-0.7-4.8-1.1c-6.2-2.2-10.7-6.2-13-12.5c-0.9-2.7-1.2-5.6-0.9-8.5
			c0.1-3.7,1-7.3,2.5-10.6c0.5-1,1.1-1.9,1.8-2.7c1.4-1.6,3.2-1.6,4.7-0.1c1.4,1.4,2.2,3.4,2.2,5.4c0.1,2.2-0.1,4.3,0,6.5
			c0,1.4,0.1,2.9,0.3,4.3c0.2,1.8,1.8,3.1,3.6,2.9c0.8,0,1.5-0.1,2.3-0.3c1-0.2,1.7-1.1,1.6-2.1c-0.2-1.2-0.4-2.4-0.7-3.5
			c-0.3-1.1-0.5-2.3-0.7-3.5c-0.3-2,1.2-3.9,3.2-4.2c0.2,0,0.4,0,0.7,0c0.6,0,1.3,0,1.9,0c1,0,2-0.4,2.6-1.3
			c0.9-1.4,1.4-3.1,1.4-4.8c0-1.3-0.6-2.5-1.7-3.2c-1-0.6-2-1.2-3-1.7c-1.5-0.7-3.1-1.3-4.6-2.1c-1-0.6-1.9-1.3-2.7-2.1
			c-0.8-0.9-1.3-2.1-1.2-3.3c1.2-0.2,2.4-0.5,3.6-0.8c5.5-1.1,11.1-1.8,16.7-2.1c5.1-0.3,10.2,0.6,14.9,2.7c1.3,0.5,2.4,1.3,3.2,2.4
			C120.1,75.7,120.5,76.6,120.9,77.5z"/>
		<path class="st0" d="M42.2,2.9L42.4,3c3.5,3.1,6.5,6.8,8.9,10.8c4.4,7.4,7.1,15.6,7.9,24.1c0.2,0.9,0.2,1.9,0.2,2.9
			c-0.5,3.5-0.6,7-0.3,10.5c0.2,1.2,0.3,2.5,0.2,3.7c-0.5,5.3-1.4,10.5-2.7,15.7c-0.4,1.5-0.2,1.8,1.4,1.4s3.2-0.9,4.8-1.4
			c0.3-0.1,0.5-0.3,0.6-0.6c0.5-1.5,1-3.1,1.4-4.7c1.5-5.6,2.1-11.4,2-17.2c-0.1-1.2-0.1-2.4,0-3.6c0.4-1.2,0.9-2.3,1.6-3.3
			c1-2,2.4-3.8,4-5.3c0.6-0.6,1.4-1,2.2-1.3c1.6-0.5,3.3,0.4,3.8,2c0,0.1,0.1,0.3,0.1,0.4c0.1,0.6,0.2,1.2,0.1,1.8
			c-0.2,1.4-0.5,2.8-0.8,4.2c-0.2,0.9-0.3,1.8-0.4,2.7c0,0.7,0.3,1,1,0.8c0.7-0.2,1.3-0.4,1.9-0.7c1.3-0.6,2.6-1.3,4-1.9
			c1-0.4,2-0.6,3.1-0.7c0.8-0.1,1.6,0.4,1.9,1.2c0.6,1,0.4,2.2-0.4,3c-0.9,1-1.9,1.9-3,2.8c-2.6,1.9-5.2,3.7-7.8,5.5
			c-1.3,1-2.3,2.3-2.9,3.9c-1,3.1-0.7,6.4,0.7,9.3c0,0,0.1,0,0.1,0.1c0.8-1.6,2.1-2.9,3.6-3.8c1.2-0.8,2.5-1.4,3.9-2
			c4.3-1.6,8.8-2.5,13.4-2.5c2,0,4-0.2,6-0.7c4.5-1.1,7.5-3.8,8.9-8.3c0.6-2,0.8-4.1,0.7-6.2c0-3-1.4-5.8-3.8-7.6
			c-3.8-2.9-8.2-3.7-12.9-3.5c-0.5,0-0.9,0.1-1.4,0.1c-1.6,0-3-1.2-3.2-2.8c-0.2-1.2,0.1-2.3,0.8-3.3c0.5-0.8,0.8-1.6,1.1-2.5
			c0.4-1.7,0.4-3.6-0.2-5.3c-0.5-1.9-1.8-3.4-3.7-4.1c-1.6-0.7-3.3-1.1-5-1.1c-3.9-0.1-7.7,1.1-10.9,3.3c-3.9,2.8-7.3,6.3-9.8,10.4
			c-0.2,0.2-0.3,0.5-0.5,0.8C58.8,19.2,51.6,9.8,42.3,2.8L42.2,2.9z"/>
		<path class="st0" d="M52.7,58.8c1-3.7,1.4-7.5,0.9-11.3c-0.4-4.8-2.4-9.3-5.6-12.8c-4-4.1-8.9-7.1-14.4-8.6
			c-2.3-0.8-4.8-0.9-7.2-0.4c-3.6,0.8-6.5,3.4-7.9,6.8c-1.1,2.4-2.4,4.6-4,6.6c-1.7,2.3-4,4.3-6.6,5.6c-0.8,0.4-1.6,0.9-2.2,1.6
			c-2.8,3.1-4.5,7-4.8,11.2c-0.5,4.5,1.9,8.7,5.9,10.7c1.5,0.8,3.1,1.5,4.8,1.9c5.8,1.4,11.7,2.1,17.7,2.1c3.8,0.1,7.6-0.3,11.4-1.1
			c1.9-0.4,3.8-1.1,5.4-2.2c1.7-1.3,1.8-2.9,0.1-4.3c-0.4-0.3-0.8-0.6-1.3-0.8c-0.8-0.3-1.6-0.6-2.5-0.8c-2.8-0.6-5.7-0.8-8.5-0.6
			c-3.1,0-6.2-0.3-9.2-1.2c-1.3-0.3-2.5-0.9-3.5-1.7c-1.2-1-1.4-2.8-0.4-4c0.4-0.4,0.8-0.8,1.4-0.9c0.4-0.1,0.8-0.2,1.3-0.3
			c0.8-0.1,1.6-0.2,2.4-0.4c1.1-0.1,1.9-1,1.9-2.1c0-0.1,0-0.2,0-0.3c-0.1-1-0.4-1.9-0.7-2.9c-0.3-1-0.7-1.9-0.9-2.8
			c-0.2-0.8,0.2-1.6,0.9-2c0.4-0.2,0.7-0.4,1.1-0.5c1.3-0.3,2.8-0.4,4.1-0.1c3.4,0.7,6.7,2,9.6,4c4.7,3,8.5,6.8,10.5,12.1
			c0,0,0.1,0.1,0.1,0.2L52.7,58.8z"/>
		<path class="st0" d="M47.8,74.8l-0.3,0.1c-7,2-13.8,4.9-20.1,8.5c-5.5,3.3-9.8,8.2-12.2,14.1c-1,2-1.2,4.3-0.6,6.4
			c0.6,1.7,1.5,3.3,2.8,4.6c1.4,1.5,3.3,2.3,5.3,2.4c2,0.1,4-0.1,6-0.7c2.1-0.5,4.2-1.2,6.3-1.7c2.1-0.5,4.3,0.2,5.7,1.8
			c0.3,0.3,0.6,0.6,0.9,1c1.8,2.1,4.2,3.8,6.9,4.7c2.2,0.8,4.6,0.2,6-1.7c0.6-0.7,1-1.4,1.4-2.1c1.3-2.7,2.1-5.7,2.3-8.7
			c0.2-2.8,0.8-5.6,1.9-8.2c0.7-1.7,1.4-3.3,2.1-5c0.9-1.8,1.5-3.8,1.9-5.8c0.5-2.3-0.4-4.7-2.2-6.1c-0.4-0.3-0.9-0.4-1.3-0.1
			c-0.9,0.6-1.7,1.5-2.1,2.6c-1.2,2.7-1.8,5.6-2,8.5c-0.1,2.3-0.6,4.5-1.6,6.6c-1.9,3.9-5.5,4.3-8.7,3.3c-1.1-0.3-1.8-1.2-1.9-2.3
			c-0.1-0.7-0.1-1.3-0.2-2c0-1.2-0.9-2.2-2.1-2.2c-0.3,0-0.5,0-0.8,0.1c-0.9,0.3-1.8,0.6-2.7,1.1c-0.8,0.3-1.5,0.7-2.3,1
			c-0.7,0.3-1.4,0.1-1.9-0.4c-0.9-0.8-1.3-2-1-3.2c0.4-1.5,1.2-2.9,2.4-4c3.1-3.3,6.2-6.5,9.3-9.8C45.9,76.8,46.9,75.8,47.8,74.8
			L47.8,74.8z"/>
		<path class="st0" d="M46.3,9.8c-1.7,0-3,1.3-3,3c0,1.7,1.3,3,3,3c1.6,0,3-1.3,3-2.9C49.3,11.1,48,9.8,46.3,9.8z"/>
		<path class="st0" d="M53.3,10.8c1.7,0,3-1.3,3-3s-1.3-3-3-3s-3,1.3-3,3S51.7,10.8,53.3,10.8z"/>
		<path class="st0" d="M45.2,7.8c0-1-0.8-1.8-1.8-1.8c-1,0-1.8,0.8-1.8,1.8c0,1,0.8,1.8,1.8,1.8C44.3,9.7,45.2,8.9,45.2,7.8
			C45.2,7.9,45.2,7.9,45.2,7.8z"/>
		<path class="st0" d="M46.6,4c0,1,0.8,1.8,1.8,1.8c1,0,1.8-0.8,1.8-1.8c0-1-0.8-1.8-1.8-1.8C47.4,2.2,46.6,3,46.6,4
			C46.6,4,46.6,4,46.6,4z"/>
		<path class="st0" d="M44.5,1c-0.7,0-1.2,0.5-1.2,1.1s0.5,1.2,1.1,1.2s1.2-0.5,1.2-1.1c0,0,0,0,0,0C45.7,1.6,45.2,1,44.5,1z"/>
		<path class="st0" d="M40.2,4.3c0,0.6,0.5,1.2,1.2,1.2c0.6,0,1.2-0.5,1.2-1.2S42,3.2,41.3,3.2C40.7,3.2,40.2,3.7,40.2,4.3z"/>
	</g>
</g>
</svg>
