<?xml version="1.0" encoding="UTF-8" standalone="no"?><!DOCTYPE svg PUBLIC "-//W3C//DTD SVG 1.1//EN" "http://www.w3.org/Graphics/SVG/1.1/DTD/svg11.dtd"><svg width="100%" height="100%" viewBox="0 0 50 50" version="1.1" xmlns="http://www.w3.org/2000/svg" xmlns:xlink="http://www.w3.org/1999/xlink" xml:space="preserve" xmlns:serif="http://www.serif.com/" style="fill-rule:evenodd;clip-rule:evenodd;stroke-linejoin:round;stroke-miterlimit:1.41421;"><rect id="instagram" x="0" y="0" width="50.048" height="50" style="fill:none;"/><g id="Layer_1-2"><g opacity="0.5"><path d="M37.27,16c-0.532,-1.378 -1.622,-2.468 -3,-3c-0.935,-0.347 -1.923,-0.53 -2.92,-0.54c-1.66,-0.08 -2.16,-0.1 -6.36,-0.1c-4.2,0 -4.7,0 -6.36,0.1c-1.001,0.009 -1.992,0.192 -2.93,0.54c-0.681,0.253 -1.297,0.656 -1.8,1.18c-0.527,0.506 -0.928,1.13 -1.17,1.82c-0.349,0.934 -0.532,1.923 -0.54,2.92c-0.08,1.66 -0.09,2.16 -0.09,6.36c0,4.2 0,4.7 0.09,6.36c0.009,0.997 0.192,1.985 0.54,2.92c0.249,0.686 0.653,1.306 1.18,1.81c0.506,0.521 1.121,0.924 1.8,1.18c0.94,0.343 1.93,0.525 2.93,0.54c1.66,0.07 2.16,0.09 6.36,0.09c4.2,0 4.7,0 6.36,-0.09c0.997,-0.015 1.984,-0.198 2.92,-0.54c1.378,-0.532 2.468,-1.622 3,-3c0.343,-0.936 0.526,-1.923 0.54,-2.92c0.07,-1.66 0.09,-2.16 0.09,-6.36c0,-4.2 0,-4.7 -0.09,-6.36c-0.017,-0.994 -0.203,-1.978 -0.55,-2.91Zm-12.27,17.31c-4.433,0 -8.08,-3.647 -8.08,-8.08c0,-4.433 3.647,-8.08 8.08,-8.08c4.433,0 8.08,3.647 8.08,8.08c0,4.433 -3.647,8.08 -8.08,8.08Zm8.4,-14.6c-1.037,0 -1.89,-0.853 -1.89,-1.89c0,-1.037 0.853,-1.89 1.89,-1.89c1.037,0 1.89,0.853 1.89,1.89c0,0.003 0,0.007 0,0.01c-0.005,1.033 -0.857,1.88 -1.89,1.88Z" style="fill:#072249;fill-rule:nonzero;"/><path d="M25,0c-13.715,0 -25,11.285 -25,25c0,13.715 11.285,25 25,25c13.715,0 25,-11.285 25,-25c0,-13.715 -11.285,-25 -25,-25Zm15.64,31.72c-0.023,1.306 -0.269,2.598 -0.73,3.82c-0.826,2.106 -2.494,3.774 -4.6,4.6c-1.223,0.456 -2.515,0.703 -3.82,0.73c-1.68,0.08 -2.22,0.09 -6.49,0.09c-4.27,0 -4.81,0 -6.49,-0.09c-1.305,-0.026 -2.597,-0.273 -3.82,-0.73c-1.053,-0.394 -2.005,-1.016 -2.79,-1.82c-0.798,-0.787 -1.418,-1.734 -1.82,-2.78c-0.451,-1.225 -0.698,-2.515 -0.73,-3.82c-0.07,-1.68 -0.09,-2.22 -0.09,-6.49c0,-4.27 0,-4.81 0.09,-6.49c0.031,-1.305 0.278,-2.596 0.73,-3.82c0.814,-2.117 2.492,-3.79 4.61,-4.6c1.219,-0.46 2.507,-0.71 3.81,-0.74c1.68,-0.07 2.21,-0.09 6.49,-0.09c4.28,0 4.81,0 6.49,0.09c1.306,0.03 2.597,0.28 3.82,0.74c1.047,0.394 1.996,1.012 2.78,1.81c0.807,0.783 1.428,1.736 1.82,2.79c0.461,1.222 0.708,2.514 0.73,3.82c0.08,1.68 0.1,2.21 0.1,6.49c0,4.28 -0.01,4.77 -0.09,6.49Z" style="fill:#072249;fill-rule:nonzero;"/><path d="M25,20c-0.003,0 -0.007,0 -0.01,0c-2.88,0 -5.25,2.37 -5.25,5.25c0,2.88 2.37,5.25 5.25,5.25c2.88,0 5.25,-2.37 5.25,-5.25c0,-2.876 -2.364,-5.245 -5.24,-5.25Z" style="fill:#072249;fill-rule:nonzero;"/></g></g></svg>