<?xml version="1.0" encoding="utf-8"?>
<!-- Generator: Adobe Illustrator 22.1.0, SVG Export Plug-In . SVG Version: 6.00 Build 0)  -->
<svg version="1.1" id="Layer_1" xmlns="http://www.w3.org/2000/svg" xmlns:xlink="http://www.w3.org/1999/xlink" x="0px" y="0px"
	 viewBox="0 0 58.9 72.8" style="enable-background:new 0 0 58.9 72.8;" xml:space="preserve">
<style type="text/css">
	.st0{fill:none;stroke:#106391;stroke-miterlimit:10;}
</style>
<title>Asset 5</title>
<g id="Layer_2_1_">
	<g id="Layer_1-2">
		<path class="st0" d="M52.2,38.6c0,1,0,2,0,2.9c0.1,0.8-0.4,1.5-1.1,1.6c0,0,0,0,0,0c-2.9,0.8-5.1,3.3-5.6,6.3
			c-0.8,4,1.5,8,5.3,9.3c1,0.2,1.6,1.1,1.4,2.1c-0.1,3.1,0.3,2.5-2.4,3.6c-6.2,2.5-12.3,4.9-18.5,7.4c-1.1,0.5-2.3,0.6-3.4,0.2
			c-6.5-2.7-13.1-5.3-19.6-7.8c-1.1-0.2-1.9-1.4-1.6-2.5c0,0,0-0.1,0-0.1c0-0.3,0-0.7,0-1C6.4,59.8,7,59,7.8,58.9c0,0,0.1,0,0.1,0
			c3.4-1.1,5.7-4.3,5.7-7.9c0-3.6-2.4-6.7-5.8-7.8C7,43,6.5,42.4,6.6,41.7c0,0,0,0,0,0c0-1.9,0-3.9,0-5.8c0-1.4,0.1-1.5,1.4-1
			c6.8,2.7,13.6,5.4,20.4,8.1c0.7,0.3,1.4,0.3,2.1,0c6.8-2.7,13.5-5.4,20.3-8.1c1.3-0.5,1.4-0.5,1.4,1
			C52.2,36.8,52.2,37.7,52.2,38.6z M41.1,7.1C37.2,0.7,29-1.4,22.6,2.3c-5.9,3.1-8.2,10.5-5.1,16.4c0.4,0.8,0.9,1.5,1.5,2.2
			c3.2,3.8,7.4,5.1,12.3,4.7c6.6-0.8,11.6-6.4,11.5-13C42.7,10.6,42.1,8.7,41.1,7.1z M17.4,29.3c-2.4,0.3-4.6,1.3-6.4,2.9
			c-0.6,0.5-0.7,0.9,0.2,1.2c5.9,2.2,11.7,4.4,17.5,6.7c0.5,0.2,1.1,0.2,1.6,0c5.8-2.2,11.5-4.4,17.3-6.6c0.9-0.3,0.9-0.7,0.2-1.3
			c-1.7-1.6-3.9-2.6-6.3-2.9c-4-0.6-8-0.1-12-0.3C25.5,29.2,21.5,28.8,17.4,29.3z M4,44.2c-1.7,0-3.5,2.9-3.5,6.5s1.4,6.5,3.5,6.5
			c3.6,0.2,6.7-2.5,6.9-6.1c0.2-3.6-2.5-6.7-6.1-6.9C4.5,44.2,4.2,44.2,4,44.2L4,44.2z M48.4,50.7c0,3.6,2.9,6.5,6.5,6.5
			c0,0,0,0,0,0c2.1,0,3.5-2.9,3.5-6.5s-1.8-6.5-3.5-6.5C51.3,44.2,48.4,47.1,48.4,50.7C48.4,50.7,48.4,50.7,48.4,50.7z"/>
	</g>
</g>
</svg>
