<?xml version="1.0" encoding="UTF-8" standalone="no"?><!DOCTYPE svg PUBLIC "-//W3C//DTD SVG 1.1//EN" "http://www.w3.org/Graphics/SVG/1.1/DTD/svg11.dtd"><svg width="100%" height="100%" viewBox="0 0 50 50" version="1.1" xmlns="http://www.w3.org/2000/svg" xmlns:xlink="http://www.w3.org/1999/xlink" xml:space="preserve" xmlns:serif="http://www.serif.com/" style="fill-rule:evenodd;clip-rule:evenodd;stroke-linejoin:round;stroke-miterlimit:1.41421;"><rect id="facebook" x="0" y="0" width="50.048" height="50" style="fill:none;"/><clipPath id="_clip1"><rect x="0" y="0" width="50.048" height="50"/></clipPath><g clip-path="url(#_clip1)"><g id="Layer_1-2"><g opacity="0.5"><path d="M25,0c-13.715,0 -25,11.285 -25,25c0,13.715 11.285,25 25,25c13.715,0 25,-11.285 25,-25c0,-13.715 -11.285,-25 -25,-25Zm6.72,25l-4.64,0l0,15.62l-6.25,0l0,-15.62l-3.12,0l0,-6.25l3.1,0l0,-2.83c0,-2.55 1.22,-6.54 6.58,-6.54l4.82,0l0,5.36l-3.5,0c-0.024,-0.001 -0.048,-0.002 -0.073,-0.002c-0.724,0 -1.32,0.596 -1.32,1.32c0,0.061 0.005,0.122 0.013,0.182l0,2.5l5,0l-0.61,6.26Z" style="fill:#072249;fill-rule:nonzero;"/></g></g></g></svg>