<?xml version="1.0" encoding="utf-8"?>
<!-- Generator: Adobe Illustrator 22.1.0, SVG Export Plug-In . SVG Version: 6.00 Build 0)  -->
<svg version="1.1" id="Layer_1" xmlns="http://www.w3.org/2000/svg" xmlns:xlink="http://www.w3.org/1999/xlink" x="0px" y="0px"
	 viewBox="0 0 61 61" style="enable-background:new 0 0 61 61;" xml:space="preserve">
<style type="text/css">
	.st0{fill:none;stroke:#FFFFFF;stroke-miterlimit:10;}
	.st1{fill:none;stroke:#FFFFFF;stroke-linecap:round;stroke-linejoin:round;}
	.st2{fill:#FFFFFF;}
</style>
<title>Asset 7</title>
<g id="Layer_2_1_">
	<g id="Layer_1-2">
		<path class="st0" d="M9.3,0.5h42.4c4.9,0,8.8,3.9,8.8,8.8v42.4c0,4.9-3.9,8.8-8.8,8.8H9.3c-4.9,0-8.8-3.9-8.8-8.8V9.3
			C0.5,4.4,4.4,0.5,9.3,0.5z"/>
		<path class="st1" d="M55.3,37.5v0.7v0.1c-0.1,1-0.7,1.8-1.6,2.3c-0.8,0.5-1.7,1-2.5,1.4c-0.8,0.4-1.5,0.9-2.2,1.4
			c-0.7,0.6-1.2,1.4-1.2,2.3c-0.1,1.1-0.1,2.2-0.2,3.3c0,0.8-0.1,1.5-0.2,2.3c-0.3,2-1.8,3.5-3.7,3.9c-0.5,0.1-1,0.2-1.5,0.3h-1.4
			c-0.7-0.1-1.3-0.3-2-0.5c-3.8-1.1-6.2-4.8-5.8-8.7c0.1-1.5,0.4-3,1.1-4.3c0.2-0.4,0.4-0.8,0.8-1.1c0.4-0.6,1.2-0.7,1.7-0.3
			c0.1,0.1,0.2,0.2,0.3,0.3c0.6,0.6,0.9,1.4,0.9,2.2c0,0.9,0,1.8,0,2.7c0,0.6,0,1.2,0.1,1.8c0.1,0.7,0.7,1.3,1.5,1.2
			c0.3,0,0.7,0,1-0.1c0.4-0.1,0.7-0.5,0.6-0.9c-0.1-0.5-0.2-1-0.3-1.5c-0.1-0.5-0.2-1-0.3-1.4c-0.1-0.8,0.5-1.6,1.3-1.7
			c0.1,0,0.2,0,0.3,0h0.8c0.4,0,0.8-0.2,1.1-0.5c0.4-0.6,0.6-1.3,0.6-2c0-0.5-0.3-1-0.7-1.3c-0.4-0.3-0.8-0.5-1.2-0.7
			c-0.6-0.3-1.3-0.5-1.9-0.9c-0.4-0.2-0.8-0.5-1.1-0.9c-0.3-0.4-0.5-0.9-0.5-1.4l1.5-0.3c2.3-0.5,4.6-0.7,6.9-0.9
			c2.1-0.1,4.2,0.3,6.2,1.1c0.5,0.2,1,0.6,1.3,1C55,36.8,55.2,37.1,55.3,37.5z"/>
		<path class="st1" d="M22.7,6.6L22.7,6.6c1.5,1.4,2.8,2.9,3.8,4.5c1.8,3.1,2.9,6.5,3.3,10c0.1,0.4,0.1,0.8,0.1,1.2
			c-0.2,1.4-0.3,2.9-0.1,4.4c0.1,0.5,0.1,1,0.1,1.5c-0.2,2.2-0.6,4.4-1.1,6.5c-0.2,0.6-0.1,0.7,0.6,0.6c0.7-0.2,1.3-0.3,2-0.6
			c0.1,0,0.2-0.1,0.2-0.3c0.2-0.6,0.4-1.3,0.6-1.9c0.6-2.3,0.9-4.7,0.8-7.1c-0.1-0.5-0.1-1,0-1.5c0.2-0.5,0.4-0.9,0.7-1.4
			c0.4-0.8,1-1.6,1.7-2.2c0.3-0.2,0.6-0.4,0.9-0.5c0.6-0.2,1.3,0.1,1.5,0.8c0,0.1,0,0.2,0.1,0.2c0,0.2,0,0.5,0,0.7
			c-0.1,0.6-0.2,1.2-0.3,1.8c-0.1,0.4-0.1,0.7-0.2,1.1s0.1,0.4,0.4,0.4c0.3-0.1,0.5-0.2,0.8-0.3c0.6-0.2,1.1-0.6,1.7-0.8
			c0.4-0.1,0.8-0.2,1.3-0.3c0.3,0,0.6,0.2,0.8,0.5c0.2,0.4,0.2,0.9-0.1,1.2c-0.4,0.4-0.8,0.8-1.2,1.1c-1.1,0.8-2.2,1.5-3.2,2.3
			c-0.6,0.4-1,1-1.2,1.6c-0.4,1.3-0.3,2.7,0.3,3.9l0,0c0.3-0.7,0.8-1.2,1.5-1.6c0.5-0.3,1.1-0.6,1.6-0.8c1.8-0.7,3.7-1,5.6-1.1
			c0.8,0,1.7-0.1,2.5-0.3c1.8-0.4,3.2-1.7,3.7-3.4c0.2-0.8,0.3-1.7,0.3-2.6c0-1.2-0.6-2.4-1.5-3.1c-1.6-1.1-3.5-1.6-5.3-1.5
			c-0.2,0-0.4,0-0.6,0c-0.6,0-1.2-0.5-1.3-1.1c-0.1-0.5,0.1-1,0.3-1.4c0.2-0.3,0.4-0.7,0.5-1c0.2-0.7,0.1-1.4-0.1-2.1
			c-0.2-0.8-0.8-1.4-1.5-1.7c-0.7-0.3-1.4-0.4-2.1-0.5c-1.6,0-3.2,0.4-4.5,1.4c-1.6,1.1-3,2.6-4,4.3c-0.1,0.1-0.1,0.2-0.2,0.3
			C29.6,13.3,26.6,9.4,22.7,6.6L22.7,6.6z"/>
		<path class="st1" d="M27.1,29.7c0.4-1.5,0.6-3.1,0.4-4.7c-0.2-2-1-3.9-2.4-5.3c-1.6-1.7-3.7-2.9-6-3.6c-1-0.3-2-0.4-3-0.2
			c-1.5,0.3-2.7,1.4-3.2,2.8c-0.4,1-1,1.9-1.6,2.7c-0.7,1-1.6,1.8-2.7,2.3c-0.3,0.2-0.7,0.4-0.9,0.6c-1.2,1.3-1.9,2.9-2,4.6
			C5.4,31,6.4,32.8,8,33.6c0.6,0.3,1.3,0.6,2,0.8c2.4,0.6,4.9,0.8,7.3,0.8c1.6,0,3.2-0.1,4.7-0.5c0.8-0.1,1.6-0.5,2.2-0.9
			c0.5-0.3,0.7-0.9,0.4-1.3c-0.1-0.2-0.2-0.3-0.4-0.4c-0.2-0.1-0.4-0.3-0.6-0.4c-0.3-0.1-0.7-0.3-1-0.3c-1.2-0.2-2.4-0.3-3.5-0.3
			c-1.3,0-2.6-0.1-3.8-0.5c-0.5-0.1-1-0.4-1.4-0.7c-0.5-0.4-0.5-1.2-0.1-1.7c0.1-0.2,0.3-0.3,0.5-0.3c0.2-0.1,0.4-0.1,0.5-0.1
			c0.3-0.1,0.7-0.1,1-0.1c0.5,0,0.8-0.4,0.8-0.9c0,0,0-0.1,0-0.1c-0.1-0.4-0.1-0.8-0.3-1.2c-0.1-0.4-0.3-0.8-0.4-1.2
			c-0.1-0.3,0.1-0.7,0.4-0.8c0.1-0.1,0.3-0.2,0.5-0.2c0.6-0.1,1.2-0.1,1.7,0c1.4,0.3,2.8,0.8,4,1.6c2,1.1,3.5,2.9,4.3,5
			c0,0,0,0,0,0.1S27.1,29.8,27.1,29.7z"/>
		<path class="st1" d="M25,36.4h-0.1c-2.9,0.8-5.7,2-8.3,3.5c-2.2,1.4-4,3.4-5,5.8c-0.4,0.8-0.5,1.8-0.3,2.7
			c0.2,0.7,0.6,1.4,1.2,1.9c0.6,0.6,1.4,1,2.2,1c0.8,0,1.6-0.1,2.4-0.3c0.9-0.2,1.7-0.5,2.6-0.7c0.9-0.2,1.8,0.1,2.4,0.8
			c0.1,0.1,0.2,0.3,0.4,0.4c0.8,0.9,1.8,1.6,2.9,2c0.9,0.3,1.9,0.1,2.5-0.7c0.2-0.3,0.4-0.6,0.6-0.9c0.6-1.1,0.9-2.3,1-3.6
			c0.1-1.2,0.3-2.3,0.8-3.4c0.3-0.7,0.6-1.4,0.9-2.1c0.4-0.8,0.6-1.6,0.8-2.4c0.2-1-0.2-1.9-0.9-2.5c-0.2-0.1-0.4-0.1-0.5,0
			c-0.4,0.3-0.7,0.6-0.9,1.1c-0.5,1.1-0.8,2.3-0.8,3.5c0,0.9-0.3,1.9-0.7,2.7c-0.6,1.4-2.2,2-3.6,1.4c-0.4-0.1-0.8-0.5-0.8-1
			c0-0.3,0-0.5-0.1-0.8c0-0.5-0.4-0.9-0.9-0.9c-0.1,0-0.2,0-0.3,0.1c-0.4,0.1-0.8,0.3-1.1,0.5c-0.3,0.1-0.6,0.3-0.9,0.4
			c-0.3,0.1-0.6,0-0.8-0.2c-0.4-0.3-0.5-0.8-0.4-1.3c0.2-0.6,0.5-1.2,1-1.6l3.9-4l1.2-1.3L25,36.4z"/>
		<path class="st2" d="M24.4,9.4c-0.7,0-1.3,0.5-1.3,1.2c0,0,0,0,0,0c0,0.7,0.5,1.3,1.2,1.3c0,0,0,0,0,0c0.7,0,1.3-0.6,1.3-1.2
			c0,0,0,0,0,0C25.7,10.1,25.2,9.5,24.4,9.4C24.5,9.4,24.5,9.4,24.4,9.4z"/>
		<path class="st2" d="M27.4,9.9c0.7,0,1.3-0.6,1.3-1.3c0-0.7-0.6-1.3-1.3-1.3c-0.7,0-1.3,0.6-1.3,1.3C26.1,9.3,26.7,9.8,27.4,9.9z"
			/>
		<path class="st2" d="M24,8.6c0-0.4-0.3-0.7-0.8-0.7s-0.7,0.3-0.7,0.8c0,0.4,0.3,0.7,0.7,0.7C23.6,9.4,24,9.1,24,8.6
			C24,8.7,24,8.6,24,8.6z"/>
		<path class="st2" d="M24.5,7.1c0,0.4,0.4,0.7,0.8,0.7c0.4,0,0.6-0.3,0.7-0.7c0-0.4-0.4-0.7-0.8-0.7C24.9,6.4,24.6,6.7,24.5,7.1z"
			/>
		<path class="st2" d="M23.7,5.8c-0.3,0-0.5,0.2-0.5,0.5s0.2,0.5,0.5,0.5s0.5-0.2,0.5-0.5S24,5.8,23.7,5.8z"/>
		<path class="st2" d="M21.9,7.2c0,0.3,0.2,0.5,0.5,0.5c0.3,0,0.5-0.2,0.5-0.5c0,0,0,0,0,0c0-0.3-0.2-0.5-0.5-0.5
			C22.1,6.7,21.9,6.9,21.9,7.2z"/>
	</g>
</g>
</svg>
