<?xml version="1.0" encoding="utf-8"?>
<!-- Generator: Adobe Illustrator 22.1.0, SVG Export Plug-In . SVG Version: 6.00 Build 0)  -->
<svg version="1.1" id="Layer_1" xmlns="http://www.w3.org/2000/svg" xmlns:xlink="http://www.w3.org/1999/xlink" x="0px" y="0px"
	 viewBox="0 0 66.8 70.7" style="enable-background:new 0 0 66.8 70.7;" xml:space="preserve">
<style type="text/css">
	.st0{fill:none;stroke:#106391;stroke-linejoin:round;}
</style>
<title>Asset 6</title>
<g id="Layer_2_1_">
	<g id="Layer_1-2">
		<path class="st0" d="M0.5,46.1C4,54.6,9.1,62.3,15.6,68.8C42.1,72.5,63,68,66.3,63.9C61.1,56.1,25.1,46.7,0.5,46.1z"/>
		<circle class="st0" cx="45.8" cy="6.9" r="6.4"/>
		<path class="st0" d="M14.5,15.5l14.2,3.6l-7,10.5c-0.3,1-0.3,2-0.2,3c0.2,0.8,0.6,1.5,1.2,2.1l8.1,9.5l-0.3,1.5
			c2.2,0.4,4.4,0.9,6.5,1.5l1.8-5.2l-6.6-9.6l2.8-3.5l0.2,3.1l11,7.8c1,0.5,2.3,0.2,3-0.7c0.7-0.9,0.7-2.1,0.2-3l-7.4-7.5l0.5-10.9
			c0-1.3-0.4-2.5-1.2-3.5c-0.8-0.8-1.9-1.3-3-1.4l-23-2.6c-1.1,0.5-1.8,1.5-1.9,2.6C13.4,13.7,13.7,14.7,14.5,15.5z"/>
		<path class="st0" d="M20.7,43.9c2.1,0.3,4.1,0.6,6.2,1l-4.4-5L20.7,43.9z"/>
	</g>
</g>
</svg>
