<?xml version="1.0" encoding="utf-8"?>
<!-- Generator: Adobe Illustrator 22.1.0, SVG Export Plug-In . SVG Version: 6.00 Build 0)  -->
<svg version="1.1" id="Layer_1" xmlns="http://www.w3.org/2000/svg" xmlns:xlink="http://www.w3.org/1999/xlink" x="0px" y="0px"
	 viewBox="0 0 87.9 71" style="enable-background:new 0 0 87.9 71;" xml:space="preserve">
<style type="text/css">
	.st0{fill:none;stroke:#106391;stroke-miterlimit:10;}
	.st1{fill:none;stroke:#106391;stroke-linecap:round;stroke-linejoin:round;}
</style>
<g>
	<g>
		<path class="st0" d="M86.4,4.1c0.2-1.4-0.5-2.9-1.7-3.6H32.6c-0.2,0.1-0.5,0.3-0.7,0.4c-3.9,1.4-5.4,3.3-5.4,7
			c0,12.5,0,25.1,0,37.6v21.3c-0.2,1.4,0.5,2.9,1.7,3.6h50.9c1.2-0.9,1.8-2.4,1.6-3.9c0-18.9,0-37.8,0-56.7c0-3.1-0.8-3.8-4.3-3.8
			h-29c-1,0-2,0.1-2.6-1c-0.2-0.4-1.3-0.6-1.9-0.4c-0.5,0.2-1,0.7-1.2,1.2c-0.1,0.6-0.2,1.2-0.1,1.7V23l-4.7-3.9l-4,4V6.2l-3.3-0.1
			c1.3-1.8,2.4-3.1,5.1-3c15.1,0.1,30.2,0,45.3,0h3.5v62.4c1.7-0.1,2.6-0.8,2.8-2.1c0.1-0.5,0.1-0.9,0.1-1.4
			C86.4,42.8,86.4,23.4,86.4,4.1L86.4,4.1z"/>
		<path class="st0" d="M60.3,11.7C40.6,29.5,47.2,65.4,47.2,65.4h11.1C58.3,65.4,72.8,38.5,60.3,11.7z"/>
		<path class="st0" d="M52.6,21.8c0,0,9.2,0.8,8.1,9s-11.4,8-11.4,17.4s9.1,17.2,9.1,17.2"/>
		<path class="st0" d="M65.4,36c-1.6,2.1-3.4,3.9-5.5,5.4c-1,0.8-1.9,1.6-2.6,2.6c-0.5,0.8-0.9,1.7-1.2,2.6c-1.2,4.9,1.3,9.6,5,12.6
			"/>
	</g>
	<path class="st1" d="M55.1,17.1c2.3,0.5,4.5,1.3,6.4,2.6c0.9,0.6,1.7,1.3,2.3,2.1"/>
</g>
</svg>
