<?xml version="1.0" encoding="utf-8"?>
<!-- Generator: Adobe Illustrator 22.1.0, SVG Export Plug-In . SVG Version: 6.00 Build 0)  -->
<svg version="1.1" id="Layer_1" xmlns="http://www.w3.org/2000/svg" xmlns:xlink="http://www.w3.org/1999/xlink" x="0px" y="0px"
	 viewBox="0 0 61 61" style="enable-background:new 0 0 61 61;" xml:space="preserve">
<style type="text/css">
	.st0{fill:none;stroke:#FFFFFF;stroke-miterlimit:10;}
</style>
<title>Asset 6</title>
<g id="Layer_2_1_">
	<g id="Layer_1-2">
		<path class="st0" d="M47.6,13c-0.5,0.1-0.9,0.2-1.3,0.4c-2.1,1.2-3,5-1.7,7.1c0.1,0.2,0.3,0.4,0.5,0.6c0.5,0.5,0.3,0.8-0.2,1.2
			c0.2-0.8-0.4-0.7-0.7-0.7c-1.4-0.3-2.9,0.6-3.2,2c-0.1,0.4-0.1,0.8,0,1.2c0.1,0.3,0.2,0.5,0.4,0.7c0.5,0.5,0.5,1-0.3,1.6
			c0.2-0.6-0.2-0.8-0.5-0.9c-1.7-0.7-3.6-0.2-4.7,1.2c2.7-0.7,5.3-0.1,7.8,1c1,0.6,2.2,0.8,3.3,0.8c1.4,0,2.6-1,2.8-2.4
			c0-0.2,0-0.3,0-0.5c-0.3,0.4-0.6,0.8-1,1.1c-1.1,0.9-2.7,0.7-3.6-0.4c-1-1.1-1-2.9,0.1-3.9c1-1,2.4-1.3,3.7-0.8
			c0.4,0.2,0.8,0,1-0.3c0,0,0,0,0-0.1c0.2-0.4,0.5-0.8,0.7-1.2l-2.5,0.6c2-2.3,4.5-4.2,7.3-5.4c-1.7,2.2-2.8,4.8-3.2,7.5l-0.9-1.6
			c-0.7,0.6-0.7,1.7-0.1,2.4c1,1.4,1.2,3.2,0.6,4.8c-0.7,2-2.2,3.6-4.2,4.4L47,33.6c0.4,1.7,1.8,3.1,3.6,3.4
			c0.6,0.1,1.2,0.5,1.4,1.2c0.2,0.8,0,1.6-0.6,2.1c-0.1-0.3-0.1-0.6-0.2-0.7c-0.2-0.2-0.4-0.3-0.7-0.2c-0.1,0-0.3,0.3-0.3,0.5
			c0.1,1.3,0.2,2.7,0.4,4s0.6,1.5,1.8,1.2c0.3,0,0.7,0,1,0.2c0.4,0.3,0.7,0.6,1,0.9c0.3,0.4,0.2,0.7-0.4,1.3
			c-0.1-0.6-0.3-0.8-0.9-0.4c-0.3,0.1-0.5,0-0.8-0.1c-0.6-0.3-1.2-0.3-1.8,0c-0.6,0.2-1.3,0.4-1.9,0.5c-0.2,0-0.4,0-0.5,0
			c-0.9-0.5-2.1-0.4-2.9,0.3c-0.3,0.1-0.7,0.1-1,0c-0.6-0.2-0.6-0.3-0.9,0.3c-0.8-0.7-0.8-1,0.3-1.8c-0.5,0-0.9-1.2-1.4,0
			c-0.5-0.8-0.3-1.2,0.5-1.5c0.3-0.1,0.6-0.3,0.9-0.5c0.1-0.1,0.1-0.2,0.1-0.3c0-0.1-0.1-0.2-0.3-0.2c-0.3,0-0.5,0-0.8,0.1
			c0.1-0.3,0.3-0.5,0.5-0.7c0.8-0.6,1.8-0.4,2.4,0.3c0.3,0.4,0.7,0.8,1.1,1.1c0.6,0.4,0.8,0.3,1-0.4c0.3-1.7,0-3.5-0.9-5
			c-0.7-0.2-1.2-0.3-1.8-0.4s-0.8,0-1.2-0.1c-0.4-0.3-0.9-0.4-1.4-0.3c-0.1,0-0.1,0-0.2,0c-0.8-0.4-1.5-0.8-2.3-1.2
			c-0.3-0.2-0.7-0.3-1-0.4c-0.1,0-0.4,0.3-0.4,0.5c0,0.5,0.3,1,0.8,1.2c0.6,0.2,1.1,0.7,1.2,1.3c0.2,1-0.4,1.7-1.7,2
			c0.1-0.1,0.3-0.2,0.3-0.3c0.1-0.2,0.1-0.4,0-0.5c-0.1-0.2-0.3-0.2-0.5-0.2c-0.3,0-0.6,0.1-0.8,0.3c-1.1,1.1-2.1,2.2-3.2,3.3
			c-0.2,0.3-0.3,0.6-0.5,0.9c0.2,0,0.4,0,0.6-0.1c0.6-0.3,1.3-0.2,1.8,0.1c0.9,0.5,1,0.9,0.3,1.5c-0.3,0-0.5-0.1-0.8-0.1
			c-0.5,0.1-1,0.1-1.5,0c-1-0.3-2-0.2-2.9,0.2c-0.6,0.3-1.3,0.4-1.9,0.2c-0.5,0-1.1,0.1-1.5,0.3c-0.6,0.2-1.1,0.8-1.8,0.3
			c-0.1-0.1-0.4,0.2-0.8,0.4c0-0.3-0.3-0.7-0.2-1s0.5-0.6,0.9-0.9c-0.2-0.2-0.3-0.3-0.4-0.5c-0.3-0.6-0.4-0.7-0.8-0.1
			c-0.3-0.7-0.1-1.2,0.6-1.3c0.1,0,0.3,0,0.4-0.1c0.2-0.2,0.4-0.3,0.5-0.5l-0.7-0.5c0-0.3,0.2-0.5,0.6-0.6c0.8-0.1,1.6-0.2,2.1,0.8
			c0.3,0.5,1,0.7,1.6,0.9c0.2,0,0.5,0,0.6-0.2c1.5-1.1,2.5-2.7,3-4.5l-1.9-0.8c-0.1,0-0.2-0.1-0.3-0.2c-0.5-0.5-1-1-1.5-1.6
			c-0.3-0.3-0.5-0.4-0.7,0c0,0.1-0.1,0.2-0.2,0.2c-0.9,0.4-1.8,0.8-2.8,1.2c-0.6,0.2-1,0.5-0.8,1.1c0.3,1-0.3,1.9-1.5,2.4
			c0.1-0.4,0.5-0.9-0.1-1.2c-0.5-0.3-1.2-0.2-1.5,0.3c-0.9,1.1-1.8,2.2-2.6,3.4c-0.2,0.3-0.3,0.6-0.4,0.9c-0.2,0.7,0.1,1,0.8,0.9
			c0.7-0.2,1.4-0.1,2,0.3c0.8,0.6,0.9,1,0,1.7c-0.1-0.4-0.3-0.6-0.7-0.3c-0.2,0.1-0.5,0.1-0.7,0c-0.9-0.4-1.9-0.4-2.8,0
			c-0.6,0.2-1.2,0.3-1.9,0.4c-0.4,0-0.8-0.2-1.1-0.3c-0.3-0.1-0.6,0-0.8,0.1c-0.4,0.7-1.3,0.9-2,0.5l-0.1,0.7
			c-0.8-0.5-0.8-1-0.2-1.6c0.3-0.3,0.4-0.5-0.1-0.8s-0.6-0.8-1.2-0.3c-0.2-1.3,1.1-1.2,1.6-1.8c-0.2-0.3,0.1-1-0.7-0.9
			c0.1-0.8,0.4-0.9,1.2-0.8c0.7,0,1.2,0.5,1.4,1.1c0.1,0.1,0.1,0.2,0.2,0.3c1,1.4,1.6,1.4,2.5,0c1-1.5,1.6-3.2,1.8-5
			c0-0.5-0.1-0.9-0.7-0.9c-0.1,0-0.2,0-0.3-0.1c-0.6-0.7-1.2-0.3-1.7,0.1c-0.2,0.1-0.4,0.2-0.6,0.3c-0.6,0.2-1.1,0.5-1.4,1
			c-0.8,0.8-2.1,0.9-2.9,0.1c0,0,0,0-0.1-0.1c0.2,0,0.4,0,0.6-0.1c0.6-0.1,1-0.6,0.9-1.2c0-0.1,0-0.2-0.1-0.3
			c-0.6-2.2-1.2-4.3-1.9-6.5c-0.1-0.2-0.1-0.4-0.1-0.6c-1.2,1.4-2.2,1.5-2.4,0.8c0.2-0.5,0.3-0.7,0.4-1c0.1-0.4,0.3-0.8,0.5-1.2
			c0.4-0.6,0.7-1.1,0.1-1.8c0,0,0-0.1-0.1-0.1c-0.6-1.2-0.6-1.1-1.9-1c-0.3,0-0.5-0.1-0.8-0.2c-0.2,0-0.5-0.1-0.9-0.1
			c0-0.2,0-0.7,0.2-0.8c0.4-0.5,1-0.7,1.6-0.5c0.5,0.2,0.9,0.3,1.4,0.4c0-0.5-0.4-0.9-0.8-1c-0.3-0.1-0.6-0.3-0.7-0.6
			c-0.2-0.5-0.6-0.6-1.1-0.3c-0.2-0.4,0-0.8,0.4-1c0,0,0,0,0,0c1-0.3,2,0.1,2.5,1c-0.3-0.7,0.5-1.5-0.6-1.8c0.5-0.4,1.1-0.4,1.6,0
			c0.5,0.5,0.7,1.1,0.6,1.8c0.1,0.9,0.4,1.8,0.9,2.5c0.2,0.5,0.5,1.1,0.7,1.6c0.5,1.2,1,2.5,1.5,3.8c0.1,0.1,0.2,0.3,0.3,0.4
			c0.3-0.2,0.5-0.4,0.2-0.7c-0.1,0-0.1-0.1-0.1-0.2c0.2-1-0.2-2.2,0.4-3.2c0.1-0.2,0.1-0.6,0.2-0.8c0.4-0.8,0.8-1.5,1.2-2.3
			c0.2-0.3,0.4-0.7,0.6-1c0.3-0.4,0.6-0.9,0.9-1.2c0.3-0.3,0.5-0.8,0.6-1.2c0.2-0.4,0-0.9-0.4-1.1c-0.4-0.3-0.6-0.1-1,0.1
			c-0.4,0.3-0.8,0.5-1.3,0.8l0.2-0.6L14,21l0.2-0.5h-1.8c0.6-0.5,1-1.3,1.1-2.2c-0.6,0.1-1.3,0.1-1.9,0c-0.6-0.2-1.2-0.4-1.7-0.7
			l0.1,1.1c-1-0.5-2-2.8-2.1-4.4l3.4,2.7l-0.9,0.2v0.2l2.4,0.3l0.3-2.1l-1.3-0.7c0.9-0.8,2-0.8,4.9-0.1c0-0.3-0.1-0.6,0-0.8
			c0.2-0.2,0.4-0.4,0.7-0.4c0.4-0.1,0.9-0.1,1.4-0.1c0.9,0.2,1.8,0.1,2.6-0.1c0.8-0.4,1.7-0.6,2.5-0.9l-0.4,1.3l1.9-0.6
			c0,1.1-0.7,1.8-1.4,2.7c0.9,0.3,1.5,1.2,1.5,2.2l-1.2-0.1l-0.2,0.2c1.1,1,2.3,1.9,1.3,3.6c-0.1-0.3-0.2-0.5-0.4-0.8
			c-0.1-0.1-0.4-0.1-0.7-0.2c0,0.2-0.2,0.5-0.1,0.6c0.2,0.3,0.4,0.5,0.6,0.8c0.7,0.5,0.8,1.5,0.3,2.2c-0.1,0.1-0.2,0.2-0.3,0.3
			c-0.2-0.3-0.4-0.6-0.7-0.9c-0.1-0.1-0.4,0-0.8,0c0.2,0.4,0.3,0.7,0.5,0.8c0.8,0.3,1.2,1.3,0.8,2.1c0,0.1-0.1,0.1-0.1,0.2
			c0.7-0.8,1.1-1.8,1.2-2.9c0.1-0.9,0.1-1.8,0.2-2.7c0.2-2.5,1.9-4.6,4.3-5.2c2.2-0.7,4.4-1,6.7-1c0.9,0,1.7-0.1,2.5-0.2
			c1.6-0.2,3.1-0.8,4.4-1.8l0.8-0.6c0.8-0.9,2.2-0.9,3.1-0.1c0.1,0.1,0.1,0.5,0.1,0.8L47.6,13z"/>
		<path class="st0" d="M9.3,0.5h42.4c4.9,0,8.8,3.9,8.8,8.8v42.4c0,4.9-3.9,8.8-8.8,8.8H9.3c-4.9,0-8.8-3.9-8.8-8.8V9.3
			C0.5,4.4,4.4,0.5,9.3,0.5z"/>
	</g>
</g>
</svg>
