<?xml version="1.0" encoding="utf-8"?>
<!-- Generator: Adobe Illustrator 22.1.0, SVG Export Plug-In . SVG Version: 6.00 Build 0)  -->
<svg version="1.1" id="Layer_1" xmlns="http://www.w3.org/2000/svg" xmlns:xlink="http://www.w3.org/1999/xlink" x="0px" y="0px"
	 viewBox="0 0 51.2 66.7" style="enable-background:new 0 0 51.2 66.7;" xml:space="preserve">
<style type="text/css">
	.st0{fill:none;stroke:#072249;stroke-miterlimit:10;}
</style>
<g>
	<path class="st0" d="M28.7,18.7c1.4-3.9,3.2-7.5,5.4-11H22.9c-3.4,0-6.8,0-10.2,0c-1.7,0-3.3,0-4.9,0.1c-4.7,0.5-8,5.6-7,10.4
		c0.8,3.6,2.8,6,6.2,6.9s6.4-0.3,8.6-3.2c0.2-0.2,0.5-0.4,0.8-0.4c3.8,0,7.6,0,11.4,0C28.1,20.5,28.4,19.6,28.7,18.7z M8.9,20.6
		c-2.2,0-4.1-1.8-4.1-4c0-2.2,1.8-4.1,4-4.1c2.2,0,4.1,1.8,4.1,4c0,0,0,0,0,0.1C12.9,18.8,11.1,20.6,8.9,20.6z"/>
	<path class="st0" d="M44.4,0.8c-24.1,21.7-16,65.4-16,65.4H42C42,66.2,59.7,33.6,44.4,0.8z"/>
	<path class="st0" d="M14.1,33.9v21.8"/>
	<path class="st0" d="M18.8,33.9v21.8"/>
	<path class="st0" d="M23.9,49.8c0-2.6,0.1-5.4,0.3-8.4c0.4-5.7,1.3-11.3,2.8-16.8c-3.2,0-6.3,0-9.5,0c-0.3,0-0.6,0.2-0.8,0.4
		c-0.9,1.2-2.2,2.2-3.6,2.9c-1.1,0.5-2.2,0.8-3.3,1.2v26.6c-1.6,0.5-1.9,1-1.9,2.8v1.4c-0.7,0-1.3,0-1.8,0c-1.1,0.1-2,1-1.9,2.1
		c0,0,0,0,0,0v1.6c0,1.7,0.7,2.5,2.2,2.5h18.6C24.2,60.7,23.9,55.3,23.9,49.8z"/>
	<path class="st0" d="M35,13c0,0,11.2,1,9.8,11s-14,9.8-14,21.3S42,66.2,42,66.2"/>
	<path class="st0" d="M50.6,30.4c-1.9,2.5-4.2,4.7-6.8,6.6c-1.2,0.9-2.3,2-3.2,3.2c-0.7,1-1.2,2-1.5,3.1c-1.5,5.9,1.6,11.8,6.1,15.4
		"/>
	<path class="st0" d="M37.6,7.8c3,0.6,5.8,1.7,8.5,3.3c0.8,0.5,1.5,1.2,2.1,2"/>
</g>
</svg>
