<?xml version="1.0" encoding="utf-8"?>
<!-- Generator: Adobe Illustrator 22.1.0, SVG Export Plug-In . SVG Version: 6.00 Build 0)  -->
<svg version="1.1" id="Layer_1" xmlns="http://www.w3.org/2000/svg" xmlns:xlink="http://www.w3.org/1999/xlink" x="0px" y="0px"
	 viewBox="0 0 56.8 71.1" style="enable-background:new 0 0 56.8 71.1;" xml:space="preserve">
<style type="text/css">
	.st0{fill:none;stroke:#106391;stroke-miterlimit:10;}
</style>
<title>Asset 7</title>
<g id="Layer_2_1_">
	<g id="Layer_1-2">
		<path class="st0" d="M56.3,43.7v8.1c0,1.6-0.6,3.1-1.7,4.2c-3.3,3.4-6.6,6.8-10,10.2c-1.1,0.8-1.6,2.1-1.4,3.4
			c0.1,0.7-0.2,1-0.9,1c-2.9,0-5.7,0-8.6,0c-0.7,0-0.9-0.2-0.8-0.8c0-2,0-4.1,0-6.1c0-0.8,0.4-1.6,1-2.1c4.2-4.2,8.3-8.5,12.5-12.8
			c0.8-0.8,1.9-1,2.9-0.6c0.7,0.2,1.2,0.9,1.2,1.7c0,0.7-0.2,1.3-0.7,1.8c-2,2.4-4,4.9-6,7.3c-0.5,0.6-0.8,1.4-0.7,2.1
			c0,0.5,0.4,0.9,0.8,0.9c0,0,0,0,0,0c0.4,0.1,0.9-0.2,1-0.6c0-0.1,0-0.1,0-0.2c0.1-0.7,0.4-1.3,0.9-1.8c1.9-2.3,3.8-4.6,5.7-6.9
			c1.4-1.6,1.3-4.1-0.3-5.5c-0.2-0.2-0.4-0.3-0.7-0.5c-0.5-0.3-0.5-0.6-0.5-1c0-3.3,0-6.7,0-10c-0.1-1.7,1.2-3.2,3-3.3
			s3.2,1.2,3.3,3c0,0.1,0,0.2,0,0.4C56.3,38.2,56.3,41,56.3,43.7L56.3,43.7z M0.5,43.7v8.4c0,1.4,0.6,2.8,1.6,3.8
			c3.3,3.4,6.7,6.9,10,10.3c1.1,0.8,1.6,2.2,1.5,3.5c-0.1,0.6,0.1,0.9,0.8,0.9c2.9,0,5.8,0,8.7,0c0.7,0,0.9-0.2,0.9-0.9
			c0-1.9,0-3.8,0-5.7c0.1-1-0.3-1.9-1-2.6c-1.5-1.5-3.1-3.1-4.6-4.7c-2.6-2.7-5.3-5.4-7.9-8.1c-0.9-0.9-2.3-1-3.4-0.2
			c-0.9,0.8-0.8,2,0.1,3.2c2,2.4,3.9,4.8,5.9,7.2c0.6,0.6,0.9,1.5,0.7,2.3c-0.1,0.5-0.5,0.8-1,0.8c0,0,0,0,0,0
			c-0.5,0-0.9-0.3-0.8-0.8c0-0.6-0.3-1.1-0.7-1.5c-2-2.4-4-4.9-6-7.3c-1.3-1.8-1-4.3,0.8-5.6c0.1-0.1,0.2-0.2,0.3-0.2
			c0.4-0.2,0.6-0.3,0.6-0.8c0-3.6,0-7.1,0-10.7c0-1.4-1.1-2.7-2.5-2.9c-1.7-0.4-3.4,0.6-3.8,2.2c-0.1,0.3-0.1,0.6-0.1,0.9
			C0.5,38,0.5,40.9,0.5,43.7L0.5,43.7z"/>
		<path class="st0" d="M30.3,23.4c6-0.7,10.5-5.8,10.5-11.9c-0.1-1.8-0.6-3.6-1.5-5.1c-3.6-5.8-11-7.7-16.9-4.3
			c-5.4,2.9-7.5,9.6-4.6,15c0.4,0.7,0.8,1.4,1.3,2C22,22.6,25.9,23.8,30.3,23.4z"/>
		<path class="st0" d="M11.6,34.9c0,2.3,0,4.6,0,6.8v1.2c0,0.9,0.5,1.7,1.2,2.1c0.5,0.3,0.9,0.6,1.3,1c1.9,1.9,3.7,3.8,5.5,5.6
			l3.6,3.7c1.1,1.1,2.2,2.3,3.4,3.4c0.2,0.2,0.4,0.5,0.6,0.7c0.5,0.6,1.3,0.8,2,0.3c0.1-0.1,0.2-0.1,0.2-0.2
			c0.2-0.2,0.4-0.5,0.6-0.7l4.3-4.3c2.7-2.8,5.5-5.6,8.2-8.4c0.4-0.4,0.9-0.8,1.5-1.1c0.8-0.5,1.2-1.3,1.2-2.2v-0.1
			c0-2.4,0-4.9,0-7.3c0-0.2,0-0.5,0-0.7c-2.4-3.7-6-6.5-10.2-7.9l-2,2.5l-4.4,5.3l-4.4-5.3L22,26.6c-4.3,1.4-8,4.2-10.4,8
			C11.6,34.7,11.6,34.8,11.6,34.9z"/>
	</g>
</g>
</svg>
