<?xml version="1.0" encoding="utf-8"?>
<!-- Generator: Adobe Illustrator 22.1.0, SVG Export Plug-In . SVG Version: 6.00 Build 0)  -->
<svg version="1.1" id="Layer_1" xmlns="http://www.w3.org/2000/svg" xmlns:xlink="http://www.w3.org/1999/xlink" x="0px" y="0px"
	 viewBox="0 0 64.2 66.8" style="enable-background:new 0 0 64.2 66.8;" xml:space="preserve">
<style type="text/css">
	.st0{fill:none;stroke:#106391;stroke-miterlimit:10;}
	.st1{fill:none;stroke:#106391;stroke-linejoin:round;}
	.st2{fill:none;stroke:#106391;stroke-linecap:round;stroke-miterlimit:10;}
</style>
<title>Asset 4</title>
<g id="Layer_2_1_">
	<g id="Layer_1-2">
		<path class="st0" d="M60.2,57c-1.2,1.7-2.6,3.2-4.1,4.7c-1.1,1-2.2,2-3.3,3l-2,1.6c-0.1,0.1-0.2,0.1-0.3,0
			c-0.6-0.5-1.2-0.9-1.8-1.4c-0.4-0.4-0.8-0.7-1.2-1.1c-0.6-0.5-1.2-1.1-1.8-1.7c-0.5-0.4-1-0.8-1.4-1.3c-0.5-0.6-1.1-1.1-1.6-1.8
			c-0.9-1.1-1.8-2.3-2.6-3.6l-1.2-1.9c-0.3-0.6-0.6-1.2-0.8-1.9c-0.2-0.7-0.4-1.4-0.4-2v-1.3c0.1-1.3,0.6-2.6,1.4-3.6
			c1-1.3,2.4-2.2,4-2.5c0.7-0.1,1.4-0.2,2.1-0.1c1,0.1,1.9,0.4,2.7,0.8c0.6,0.3,1.2,0.7,1.7,1.2c0.3,0.2,0.6,0.5,0.9,0.9
			c0.1,0.2,0.2,0.1,0.3,0c1.1-1.3,2.5-2.2,4.1-2.7c0.7-0.2,1.4-0.3,2.1-0.3c3.3,0.1,6.1,2.5,6.6,5.7c0,0.2,0,0.4,0.1,0.5v1.2
			c-0.1,1.1-0.4,2.1-0.9,3.1c-0.1,0.3-0.3,0.6-0.4,0.9l-0.9,1.5L60.2,57z"/>
		<path class="st1" d="M43.7,30l-3.2,4l-5.2,6.4L30.1,34l-3.2-3.9C15.8,33.7,8.3,44,8.3,55.7c0,1.6,0.1,3.3,0.3,4.9h0.1
			c0.4,0,0.7,0,1,0c5-0.6,9.9-1.8,14.7-3.4c2.3-0.7,4.7-1.5,6.9-2.3l3.1-1.1h0.1l0.4-0.1c0.2-0.1,0.5-0.1,0.7-0.2
			c-0.1-0.3-0.2-0.5-0.3-0.8c-0.3-0.9-0.5-1.8-0.6-2.8v-1.7V48c0.2-1.8,0.9-3.6,2-5c1.4-1.8,3.4-3.1,5.6-3.5
			c0.6-0.1,1.2-0.2,1.8-0.2c1.7,0,3.3,0.4,4.8,1.2c0.5,0.3,1,0.6,1.5,1c1-0.8,2.2-1.4,3.5-1.7c0.9-0.3,1.8-0.4,2.7-0.4
			C53.4,35,48.9,31.8,43.7,30z"/>
		<path class="st2" d="M5.6,55.1c0,0-7.5,5.4-4.4,8.1c7,6.1,36.3-6,36.3-6"/>
		<path class="st0" d="M47,7.1c-3.9-6.3-12.1-8.4-18.5-4.8c-5.9,3.1-8.2,10.5-5.1,16.4c0.4,0.8,0.9,1.5,1.5,2.2
			c3.2,3.8,7.4,5.1,12.3,4.7c6.6-0.8,11.6-6.4,11.5-13C48.6,10.6,48,8.7,47,7.1z"/>
	</g>
</g>
</svg>
