<?xml version="1.0" encoding="UTF-8" standalone="no"?><!DOCTYPE svg PUBLIC "-//W3C//DTD SVG 1.1//EN" "http://www.w3.org/Graphics/SVG/1.1/DTD/svg11.dtd"><svg width="100%" height="100%" viewBox="0 0 50 50" version="1.1" xmlns="http://www.w3.org/2000/svg" xmlns:xlink="http://www.w3.org/1999/xlink" xml:space="preserve" xmlns:serif="http://www.serif.com/" style="fill-rule:evenodd;clip-rule:evenodd;stroke-linejoin:round;stroke-miterlimit:1.41421;"><rect id="youtube" x="0" y="0" width="50.048" height="50" style="fill:none;"/><clipPath id="_clip1"><rect x="0" y="0" width="50.048" height="50"/></clipPath><g clip-path="url(#_clip1)"><g id="Layer_1-2"><g opacity="0.5"><path d="M13.77,27.91l1.84,0l0,9.37l1.79,0l0,-9.37l1.84,0l0,-1.59l-5.47,0l0,1.59Z" style="fill:#072249;fill-rule:nonzero;"/><path d="M33.42,29c-0.643,-0.027 -1.269,0.212 -1.73,0.66c-0.456,0.453 -0.703,1.077 -0.68,1.72l0,3.62c-0.037,0.665 0.181,1.32 0.61,1.83c0.435,0.458 1.049,0.703 1.68,0.67c0.652,0.052 1.297,-0.178 1.77,-0.63c0.436,-0.521 0.651,-1.193 0.6,-1.87l0,-0.41l-1.63,0l0,0.41c0.034,0.319 -0.022,0.641 -0.16,0.93l-0.54,0.21l-0.54,-0.25c-0.131,-0.277 -0.187,-0.584 -0.16,-0.89l0,-1.57l3,0l0,-2.06c0.04,-0.644 -0.172,-1.279 -0.59,-1.77c-0.438,-0.415 -1.028,-0.632 -1.63,-0.6Zm0.62,3.18l-1.4,0l0,-0.82l0.17,-0.72l0.54,-0.22l0.52,0.22l0.17,0.72l0,0.82Z" style="fill:#072249;fill-rule:nonzero;"/><path d="M22.87,35.33l-0.49,0.44l-0.44,0.17l-0.33,-0.13l-0.1,-0.41l0,-6.21l-1.58,0l0,6.81c-0.024,0.384 0.074,0.765 0.28,1.09l0.83,0.36l0.91,-0.26l0.92,-0.75l0,0.89l1.58,0l0,-8.14l-1.58,0l0,6.14Z" style="fill:#072249;fill-rule:nonzero;"/><path d="M28.64,29.09l-0.73,0.2l-0.68,0.56l0,-3.53l-1.59,0l0,11l1.59,0l0,-0.62l0.68,0.55l0.83,0.17c0.41,0.029 0.809,-0.143 1.07,-0.46c0.273,-0.38 0.404,-0.844 0.37,-1.31l0,-4.53c0.036,-0.532 -0.1,-1.062 -0.39,-1.51c-0.273,-0.353 -0.705,-0.548 -1.15,-0.52Zm-0.08,6.3l-0.14,0.55l-0.43,0.18l-0.38,-0.09l-0.37,-0.29l0,-5l0.32,-0.24l0.34,-0.08l0.49,0.21l0.17,0.62l0,4.14Z" style="fill:#072249;fill-rule:nonzero;"/><path d="M24.99,0c-13.715,0 -25,11.285 -25,25c0,13.715 11.285,25 25,25c13.715,0 25,-11.285 25,-25c0,-13.715 -11.285,-25 -25,-25Zm3.77,12.54l1.78,0l0,6.83l0.11,0.46l0.34,0.17l0.5,-0.19l0.55,-0.48l0,-6.79l1.78,0l0,8.91l-1.78,0l0,-1l-1,0.84l-1,0.28c-0.356,0.026 -0.704,-0.124 -0.93,-0.4c-0.226,-0.354 -0.334,-0.771 -0.31,-1.19l-0.04,-7.44Zm-6.61,2c-0.026,-0.631 0.24,-1.24 0.72,-1.65c0.547,-0.432 1.234,-0.649 1.93,-0.61c0.663,-0.028 1.312,0.201 1.81,0.64c0.469,0.426 0.729,1.037 0.71,1.67l0,4.6c0.036,0.668 -0.215,1.32 -0.69,1.79c-0.525,0.462 -1.212,0.699 -1.91,0.66c-0.689,0.031 -1.362,-0.214 -1.87,-0.68c-0.478,-0.473 -0.733,-1.128 -0.7,-1.8l0,-4.62Zm-4.85,-5.21l1.3,4.83l0.13,0l1.26,-4.79l2,0l-2.34,7.07l0,5l-2,0l0,-4.77l-2.39,-7.3l2.04,-0.04Zm23.32,25.42c0,0.02 0,0.04 0,0.06c0,3.143 -2.567,5.737 -5.71,5.77l-19.84,0c-3.143,-0.033 -5.71,-2.627 -5.71,-5.77c0,-0.02 0,-0.04 0,-0.06l0,-4.65c-0.032,-3.213 2.502,-5.92 5.71,-6.1l19.84,0c3.223,0.181 5.763,2.912 5.71,6.14l0,4.61Z" style="fill:#072249;fill-rule:nonzero;"/><path d="M24.71,20.13l0.58,-0.2l0.21,-0.57l0,-4.85l-0.22,-0.47l-0.57,-0.18l-0.53,0.18l-0.2,0.47l0,4.85l0.19,0.57l0.54,0.2Z" style="fill:#072249;fill-rule:nonzero;"/></g></g></g></svg>