<?xml version="1.0" encoding="utf-8"?>
<!-- Generator: Adobe Illustrator 22.1.0, SVG Export Plug-In . SVG Version: 6.00 Build 0)  -->
<svg version="1.1" id="Layer_1" xmlns="http://www.w3.org/2000/svg" xmlns:xlink="http://www.w3.org/1999/xlink" x="0px" y="0px"
	 viewBox="0 0 61 61" style="enable-background:new 0 0 61 61;" xml:space="preserve">
<style type="text/css">
	.st0{fill:none;stroke:#072249;stroke-miterlimit:10;}
</style>
<title>Asset 2</title>
<g id="Layer_2_1_">
	<g id="Layer_1-2">
		<path class="st0" d="M32.8,18.9c1.1-2.9,2.5-5.8,4.1-8.4h-8.6c-2.6,0-5.2,0-7.8,0c-1.3,0-2.5,0-3.8,0.1c-3.6,0.4-6.1,4.3-5.4,8
			c0.4,2.6,2.3,4.6,4.8,5.2c2.5,0.7,5.2-0.3,6.6-2.5c0.1-0.2,0.4-0.3,0.6-0.3h8.7C32.3,20.3,32.5,19.5,32.8,18.9z M17.7,20.3
			c-1.7,0-3.1-1.4-3.1-3.1c0-1.7,1.4-3.1,3.1-3.1c1.7,0,3.1,1.4,3.1,3.1c0,0,0,0,0,0C20.7,18.9,19.3,20.3,17.7,20.3z"/>
		<path class="st0" d="M44.8,5.2c-18.4,16.6-12.2,50-12.2,50H43C43,55.2,56.5,30.2,44.8,5.2z"/>
		<line class="st0" x1="21.6" y1="30.5" x2="21.6" y2="47.2"/>
		<line class="st0" x1="25.2" y1="30.5" x2="25.2" y2="47.2"/>
		<path class="st0" d="M29.1,42.7c0-2,0-4.2,0.2-6.4c0.3-4.4,1-8.7,2.1-12.9c-2.4,0-4.8,0-7.3,0c-0.2,0-0.4,0.1-0.6,0.3
			c-0.7,0.9-1.7,1.7-2.7,2.2c-0.8,0.4-1.6,0.6-2.5,0.9v20.3c-1.2,0.4-1.4,0.8-1.4,2.2v1.1h-1.4c-0.8,0-1.5,0.7-1.4,1.6
			c0,0,0,0.1,0,0.1c0,0.4,0,0.8,0,1.2c0,1.3,0.5,1.9,1.7,1.9H30C29.4,51,29.1,46.8,29.1,42.7z"/>
		<path class="st0" d="M37.6,14.5c0,0,8.6,0.8,7.5,8.4s-10.6,7.4-10.6,16.2s8.5,16,8.5,16"/>
		<path class="st0" d="M49.5,27.8c-1.5,1.9-3.2,3.6-5.2,5.1c-0.9,0.7-1.8,1.6-2.5,2.5c-0.5,0.7-0.9,1.5-1.1,2.4
			c-1.1,4.5,1.2,9,4.7,11.8"/>
		<path class="st0" d="M39.6,10.6c2.3,0.5,4.5,1.3,6.5,2.5c0.6,0.4,1.2,0.9,1.6,1.5"/>
		<path class="st0" d="M9.3,0.5h42.4c4.9,0,8.8,3.9,8.8,8.8v42.4c0,4.9-3.9,8.8-8.8,8.8H9.3c-4.9,0-8.8-3.9-8.8-8.8V9.3
			C0.5,4.4,4.4,0.5,9.3,0.5z"/>
	</g>
</g>
</svg>
