<?xml version="1.0" encoding="utf-8"?>
<!-- Generator: Adobe Illustrator 22.1.0, SVG Export Plug-In . SVG Version: 6.00 Build 0)  -->
<svg version="1.1" id="Layer_1" xmlns="http://www.w3.org/2000/svg" xmlns:xlink="http://www.w3.org/1999/xlink" x="0px" y="0px"
	 viewBox="0 0 72 122" style="enable-background:new 0 0 72 122;" xml:space="preserve">
<style type="text/css">
	.st0{fill:none;stroke:#072249;stroke-width:2;stroke-linejoin:round;}
</style>
<title>Asset 6</title>
<g id="Layer_2_1_">
	<g id="Layer_1-2">
		<path class="st0" d="M54.4,115.1c-0.4,0.1-0.9,1.2-1,1.9c-0.2,1.3-0.3,3.9-0.3,3.9l18.1-0.3c0,0-0.7-5.5-2.1-5.8
			c-1.3-0.2-2.4-0.9-3.2-1.8c-4.3-6.3-6.8-12.6-10.8-19.1c-0.7-1.2,1.1-2.9,0.6-4c-1-1.3-4.1-2.4-4.7-3.9c-2.1-5.3-4-10.6-5.9-16
			c-0.4-1.2,1.6-2.7,1.3-4c-0.2-1-2.8-1.9-3-2.9c-1.1-7-4.6-40.5-5.2-49.4c0.4-1,0.7-2.1,0.9-3.2c0-0.6-3.1-9.6-3.1-9.6
			s-3.2,9-3.2,9.5c0.2,1.1,0.5,2.2,0.9,3.2C33.1,22.5,29.6,56,28.5,63c-0.2,1-2.7,1.9-3,2.9c-0.3,1.3,1.7,2.8,1.3,4
			C25,75.4,23.1,80.8,21,86c-0.6,1.5-3.6,2.6-4.6,3.9c-0.5,1.1,1.3,2.8,0.6,4c-4,6.4-6.6,12.8-10.9,19.1c-0.8,1-2,1.6-3.2,1.8
			c-1.4,0.3-2.1,5.8-2.1,5.8l18.1,0.3c0,0-0.1-2.7-0.3-3.9c-0.1-0.7-0.6-1.9-1-1.9c-3.5-0.5-2.4-2.6-1.7-4.6
			c2.6-7.5,10.6-13,19.1-13.4c0.3,0,0.7,0,1,0s0.7,0,1,0c8.5,0.4,16.5,6,19.1,13.5C56.8,112.5,57.9,114.6,54.4,115.1z M40.3,89
			c-2,0-6.7,0-8.6,0c-2.6,0-3-0.5-2.4-3.2c1-3.9,1.9-7.8,2.9-11.8c1.2-4.9-0.2-5.6,3.7-5.4c4-0.1,2.5,0.5,3.8,5.4
			c1,3.9,2,7.8,2.9,11.8C43.3,88.5,42.9,89,40.3,89z"/>
	</g>
</g>
</svg>
