<?xml version="1.0" encoding="utf-8"?>
<!-- Generator: Adobe Illustrator 22.1.0, SVG Export Plug-In . SVG Version: 6.00 Build 0)  -->
<svg version="1.1" id="Layer_1" xmlns="http://www.w3.org/2000/svg" xmlns:xlink="http://www.w3.org/1999/xlink" x="0px" y="0px"
	 viewBox="0 0 87.9 71" style="enable-background:new 0 0 87.9 71;" xml:space="preserve">
<style type="text/css">
	.st0{fill:none;stroke:#106391;stroke-linejoin:round;}
</style>
<g>
	<path class="st0" d="M71.3,11.9c-0.4-1.6-12.4-13.1-30-11.2c-8.7,1-18.8,4.5-29.5,15.5C-3.7,32-0.3,54,4.8,60.8
		c0-18,5.6-34.2,14.5-38.9c-3.5,6.2-8.8,29.1-0.4,39.3c7.8,9.4,27.9,8,27.9,8s-10.8-6.9-12.1-29S51,5.7,71.3,11.9z"/>
	<path class="st0" d="M42.2,54c2.4,5.8,5.9,11.1,10.3,15.6c18.2,2.6,32.6-0.6,34.8-3.4C83.8,60.8,59.1,54.4,42.2,54z"/>
	<circle class="st0" cx="73.3" cy="27" r="4.4"/>
	<path class="st0" d="M51.8,32.9l9.8,2.5l-4.8,7.2c-0.2,0.7-0.2,1.4-0.1,2.1c0.1,0.5,0.4,1.1,0.8,1.5l5.5,6.5l-0.2,1
		c1.5,0.3,3,0.6,4.5,1l1.2-3.6l-4.5-6.6l2-2.4l0.1,2.1l7.6,5.4c0.7,0.3,1.5,0.1,2.1-0.5c0.5-0.6,0.5-1.4,0.1-2l-5.1-5.2l0.4-7.5
		c0-0.9-0.3-1.7-0.8-2.4c-0.5-0.6-1.2-0.9-2-1l-15.9-1.8c-0.7,0.3-1.2,1-1.3,1.8C51,31.7,51.3,32.4,51.8,32.9L51.8,32.9z"/>
	<path class="st0" d="M56.1,52.5c1.4,0.2,2.8,0.5,4.3,0.7l-3-3.5L56.1,52.5z"/>
</g>
</svg>
