<?xml version="1.0" encoding="utf-8"?>
<!-- Generator: Adobe Illustrator 22.1.0, SVG Export Plug-In . SVG Version: 6.00 Build 0)  -->
<svg version="1.1" id="Layer_1" xmlns="http://www.w3.org/2000/svg" xmlns:xlink="http://www.w3.org/1999/xlink" x="0px" y="0px"
	 viewBox="0 0 68.1 122" style="enable-background:new 0 0 68.1 122;" xml:space="preserve">
<style type="text/css">
	.st0{fill:none;stroke:#FFFFFF;stroke-width:2;stroke-linejoin:round;}
</style>
<title>Asset 7</title>
<g id="Layer_2_1_">
	<g id="Layer_1-2">
		<path class="st0" d="M66.8,114c-0.4-1.4-0.8-2.9-1.4-4.2c-4.2-11-8.9-21.8-13.5-32.5c-1.6-3.4-2.9-7-3.6-10.7
			c1.3-1,2.6-2.2,3.8-3.4c3-2.7,6-5.5,8.7-8.4c1.1-1.2,1-1.2,0-2.3c-2.7-2.8-5.6-5.5-8.1-8.4c-2-2.6-5.1-4.1-8.4-4.1
			c-2.1,0-3.8-2.2-3.7-4.4l1.8-2.2c1.4-1.4,2-3.4,1.8-5.4c-0.1-0.6,0.2-0.8,0.6-1.1c1.1-1,1.3-2.8,0.3-4c-1-1.2-2.7-1.4-3.9-0.5
			c-0.4,0.3-0.9,0.5-1.5,0.4c-2.2-0.2-4.4,0-6.2,1.6c-2.1,1.5-1.9,4-2.3,6.2c-0.1,1-0.1,1.9,0.1,2.9c0.1,0.8,0.2,1.6,1.3,1.7
			c1.6,0.2,2.2,1,2.2,2.6s-0.8,2.2-2.4,2.3c-1.6,0-3.2-0.2-4.8-0.6c-1.3-0.2-2.5-1-3.4-2c-1.4-1.7-3-3.4-4.4-5.1
			c1.2-0.7,2.8-1,3.5-2c0.5-0.7-5.5-2.5-5.5-2.5s6.7,0.7,7,0s0.3-0.7,0.2-2s-6.3-1.9-6.3-1.9s5.4-0.1,6.1-0.5s0.4-1.9,0.4-2.4
			c0.1-1.2-5.4-1.1-5.4-1.1s5.3-1.1,5.9-1.5s-0.3-2.3-0.4-2.6C25,14.6,19,16.1,19,16.1s4.1-1.4,5.2-3c0.4-0.5-0.3-1.8-0.8-2.1
			c-0.8-0.6-6.1,2-6.1,2s3.6-3.2,4.3-3.6c0.5-0.3-0.3-1.7-0.7-2c-1.4-1.7-5.3,2.6-5.3,2.6s1.9-3.3,2.7-4.3c0.3-0.5,0.7-0.6-1.3-1.8
			s-4,5-4,5s2.6-6.3,0.8-6.8c-0.5-0.1-1.9-0.6-2.2-0.3C9.8,3,9.8,8.2,9.8,8.2s0.3-5.3-0.8-7c-0.3-0.4-1.4-0.2-2.3,0S6.1,7.9,6.1,7.9
			S5.3,3.5,4,2.1C3.7,1.8,1,2.3,1,2.3s10.3,33.1,10.4,33.6c0.2,0.8,0.5,1.1,1.3,0.7c1-0.4,2-0.8,3-1.1c1.2,2.3,2.9,4.3,4.9,5.9
			c4.1,3,7.5,6.8,10,11.2c1.3,1.9,1.8,4.4,1.3,6.7c-0.5,2.2-0.9,4.5-1.3,6.7c-0.1,0.4-0.2,0.9-0.3,1.3c-0.4,3.5-1.9,6.6-3.6,9.6
			c-5,8.9-10.4,17.6-15.6,26.5c-1.7,2.6-3.2,5.3-4.5,8.1c-0.6,1.3-0.3,2.1,1,2.6c0.8,0.3,1.7,0.5,2.6,0.6c2.4,0.3,4.7,0.7,7,1.3
			c1.1,0.2,2.1,0.8,2.7,1.8c0.9,2,2.5,2.2,4.3,1.8c2.2-0.4,4.5-0.9,6.7-1.3c3.8-0.7,7.4-0.5,10.5,2c0.8,0.6,1.7,0.8,2.7,0.8
			c2.2-0.2,4.3-0.9,6.2-1.9c3.1-1.5,6.3-2.5,9.8-2.2c1.8,0.2,3.6,0.1,5.3-0.3C67.2,116.1,67.4,115.7,66.8,114z M46.4,54.2
			c1.1-1.9,1.7-4,1.8-6.2c2.1,1.9,4.1,3.9,6,5.9c0.4,0.4,0.4,1,0.1,1.5c-1.2,2.1-2.7,4.1-4.3,5.9c-0.7,0.7-2.7,0.2-2.9-0.8
			c-0.4-1.7-0.7-3.4-0.8-5.1C46.2,55,46.2,54.5,46.4,54.2z"/>
	</g>
</g>
</svg>
