<?xml version="1.0" encoding="utf-8"?>
<!-- Generator: Adobe Illustrator 22.1.0, SVG Export Plug-In . SVG Version: 6.00 Build 0)  -->
<svg version="1.1" id="Layer_1" xmlns="http://www.w3.org/2000/svg" xmlns:xlink="http://www.w3.org/1999/xlink" x="0px" y="0px"
	 viewBox="0 0 61 61" style="enable-background:new 0 0 61 61;" xml:space="preserve">
<style type="text/css">
	.st0{fill:none;stroke:#072249;stroke-miterlimit:10;}
</style>
<title>Asset 4</title>
<g id="Layer_2_1_">
	<g id="Layer_1-2">
		<path class="st0" d="M38.2,53c-0.2,0-0.4,0.5-0.4,0.8c-0.1,0.5-0.1,1.6-0.1,1.6l7.6-0.2c0,0-0.3-2.3-0.9-2.4
			c-0.5-0.1-1-0.4-1.3-0.8c-1.8-2.6-2.8-5.3-4.5-7.9c-0.3-0.5,0.5-1.2,0.2-1.7c-0.4-0.5-1.7-1-1.9-1.6c-0.9-2.2-1.7-4.4-2.5-6.7
			c-0.2-0.5,0.7-1.1,0.5-1.7s-1.2-0.8-1.2-1.2c-0.5-2.9-1.9-16.9-2.2-20.6c0.2-0.4,0.3-0.9,0.4-1.3c0-0.2-1.3-4-1.3-4
			s-1.3,3.8-1.3,4c0.1,0.5,0.2,0.9,0.4,1.3c-0.2,3.7-1.7,17.6-2.2,20.6c-0.1,0.4-1.1,0.8-1.2,1.2s0.7,1.2,0.5,1.7
			c-0.8,2.2-1.6,4.5-2.5,6.7c-0.2,0.6-1.5,1.1-1.9,1.6c-0.2,0.5,0.5,1.2,0.2,1.7c-1.7,2.7-2.7,5.3-4.5,7.9c-0.3,0.4-0.8,0.7-1.4,0.8
			c-0.6,0.1-0.9,2.4-0.9,2.4l7.6,0.2c0,0,0-1.1-0.1-1.6c0-0.3-0.2-0.8-0.4-0.8c-1.5-0.2-1-1.1-0.7-1.9c1.3-3.3,4.5-5.5,8-5.6H31
			c3.5,0.1,6.7,2.3,8,5.6C39.2,52,39.6,52.8,38.2,53z M32.3,42.2h-3.6c-1.1,0-1.2-0.2-1-1.3c0.4-1.6,0.8-3.3,1.2-4.9
			c0.5-2-0.1-2.3,1.6-2.3c1.6,0,1,0.2,1.6,2.3c0.4,1.6,0.8,3.3,1.2,4.9C33.5,42,33.4,42.2,32.3,42.2z"/>
		<path class="st0" d="M9.3,0.5h42.4c4.9,0,8.8,3.9,8.8,8.8v42.4c0,4.9-3.9,8.8-8.8,8.8H9.3c-4.9,0-8.8-3.9-8.8-8.8V9.3
			C0.5,4.4,4.4,0.5,9.3,0.5z"/>
	</g>
</g>
</svg>
