<?xml version="1.0" encoding="utf-8"?>
<!-- Generator: Adobe Illustrator 22.1.0, SVG Export Plug-In . SVG Version: 6.00 Build 0)  -->
<svg version="1.1" id="Layer_1" xmlns="http://www.w3.org/2000/svg" xmlns:xlink="http://www.w3.org/1999/xlink" x="0px" y="0px"
	 viewBox="0 0 87.9 71" style="enable-background:new 0 0 87.9 71;" xml:space="preserve">
<style type="text/css">
	.st0{fill:none;stroke:#106391;stroke-miterlimit:10;}
</style>
<g>
	<path class="st0" d="M63.6,44.8c-5.6-2.2-11.3-4.4-16.9-6.6L43.6,37c-0.2,0.3-0.3,0.4-0.4,0.6c-4.2,9.2-8.4,18.5-12.6,27.7
		c-1.1,2.5-0.8,3.4,1.3,5.1h1.6c1.3-1,2.4-2.2,3.5-3.4c2.6-3.3,5-6.7,7.4-10.1c0.5-0.8,1.3-1.3,2.1-1.5c5.1-1.3,10.1-2.7,15.2-4.1
		c0.9-0.2,1.8-0.7,2.6-1.2C66.5,48.5,66.1,45.9,63.6,44.8z"/>
	<path class="st0" d="M84.8,21.6c-1-0.3-2-0.1-2.8,0.6c-4,2.8-8.1,5.5-12.1,8.2c-0.4,0.2-0.9,0.3-1.4,0.2c-2.2-1-4.5-2.2-6.7-3.3
		c-2.1-1-4.1-2.2-6.2-3c-1.8-0.9-4-0.2-5,1.6c-0.1,0.2-0.1,0.3-0.2,0.5c-0.9,2.2,0.2,4.7,2.4,5.5l0,0c5.1,2.2,10.3,4.3,15.4,6.5
		c0.5,0.1,1,0.2,1.5,0.3l0.2,0.2c1-0.4,2.1-1,3-1.6c2-1.6,3.8-3.3,5.7-5c2.4-2.2,4.8-4.3,7.1-6.6c1-0.8,1.2-2.3,0.4-3.3
		C85.8,22,85.4,21.8,84.8,21.6z"/>
	<path class="st0" d="M56.9,18.6c4.9,0.2,9-3.7,9.2-8.6c0-0.1,0-0.3,0-0.4c-0.1-5-4.3-9-9.3-8.8C52,0.9,48.1,4.7,48,9.5
		C47.9,14.5,51.9,18.5,56.9,18.6L56.9,18.6z"/>
	<path class="st0" d="M34.9,39.2c1.4,0.7,2.5-0.2,2.3-1.7c-0.1-0.8-0.3-1.5-0.7-2.2c-0.7-1.7-1.5-3.4-2.3-5.2l8.9-0.7
		c0.3-2.6,0.6-5.1,0.9-7.8c-5.6,0.8-11.2,1.6-16.8,2.6c-2.4,0.4-3.1,2.2-1.6,4.2c2.2,3,4.5,6,6.8,8.9C33.1,38,34,38.7,34.9,39.2z"/>
</g>
</svg>
