<svg xmlns="http://www.w3.org/2000/svg" viewBox="0 0 67.7 72.33"><defs><style>.cls-1{fill:none;stroke:#106391;stroke-miterlimit:10;}</style></defs><title>Asset 11</title><g id="Layer_2" data-name="Layer 2"><g id="Layer_1-2" data-name="Layer 1"><ellipse class="cls-1" cx="14.46" cy="9.62" rx="9.76" ry="9.12" transform="translate(-0.17 0.26) rotate(-1.02)"/><path class="cls-1" d="M15.53,71.83h0a8.15,8.15,0,0,1-8.08-5.65L.88,37.1A13.35,13.35,0,0,1,1,30.31a10,10,0,0,1,9.93-7.46l7.45-.14a10,10,0,0,1,10.19,7.11,13.32,13.32,0,0,1,.36,6.78L23.39,65.9A8.14,8.14,0,0,1,15.53,71.83Z"/><ellipse class="cls-1" cx="52.46" cy="9.62" rx="9.76" ry="9.12" transform="translate(-0.16 0.93) rotate(-1.02)"/><path class="cls-1" d="M53.53,71.83h0a8.15,8.15,0,0,1-8.08-5.65L38.88,37.1A13.35,13.35,0,0,1,39,30.31a10,10,0,0,1,9.93-7.46l7.45-.14a10,10,0,0,1,10.19,7.11,13.32,13.32,0,0,1,.36,6.78L61.39,65.9A8.14,8.14,0,0,1,53.53,71.83Z"/></g></g></svg>