<?xml version="1.0" encoding="utf-8"?>
<!-- Generator: Adobe Illustrator 22.1.0, SVG Export Plug-In . SVG Version: 6.00 Build 0)  -->
<svg version="1.1" id="Layer_1" xmlns="http://www.w3.org/2000/svg" xmlns:xlink="http://www.w3.org/1999/xlink" x="0px" y="0px"
	 viewBox="0 0 58.6 66.4" style="enable-background:new 0 0 58.6 66.4;" xml:space="preserve">
<style type="text/css">
	.st0{fill:none;stroke:#072249;stroke-linejoin:round;}
	.st1{fill:none;stroke:#072249;stroke-linecap:round;stroke-miterlimit:10;}
</style>
<g>
	<g>
		<path class="st0" d="M26.4,48.1c0.5-2,2.6-3.3,4.6-2.8c0.4,0.1,0.9,0.3,1.3,0.6c0.7,0.5,1.4,1,2.1,1.5c0.2,0.1,0.4,0.1,0.6,0.1
			c1.4-0.7,2.8-1.5,4.3-2.2l-0.2-0.4c-1.4-2.9-4.5-9.4-4.6-9.8L28.9,41l-6.6-7c-0.5,0.1-0.9,0.3-1.4,0.5c-7.9,3-13.1,10.6-13,19
			c0,1.6,0.2,3.1,0.6,4.6c6.6-1.3,12.9-3.6,19.2-5.8c-0.3-0.7-0.6-1.3-1-1.9C26.4,49.7,26.3,48.9,26.4,48.1z"/>
		<path class="st0" d="M33.1,50c-0.9-0.6-1.7-1.2-2.6-1.8c-0.3-0.2-0.8,0-1.1,0.1c-0.1,0-0.2,0.4-0.1,0.6c0.4,0.9,0.9,1.8,1.4,2.8
			L33.1,50z"/>
		<path class="st0" d="M41.8,43.7c0.2,0.3,0.3,0.7,0.5,1l6-2.3c0-0.1-0.1-0.2-0.2-0.2c-2.6-2.9-5.2-5.8-7.8-8.6
			c-0.2-0.2-0.5-0.4-0.8-0.5c-0.7-0.2-1.5,0-2,0.5c-0.5,0.6-0.1,1.1,0.2,1.7C39,38.1,40.4,40.9,41.8,43.7z"/>
		<path class="st0" d="M33.5,59.8c0.1,0.3,0.5,0.8,0.6,0.7c0.4-0.1,0.9-0.3,1-0.7c0.3-1,0.5-2,0.8-3l-3,0.4
			C33.1,58.1,33.2,59,33.5,59.8z"/>
		<path class="st0" d="M56.8,43.3c-0.3-0.1-0.7-0.1-1-0.1c-1.2,0.1-2.4,0.3-3.6,0.6c-5.5,1.5-10.8,3.8-15.7,6.7
			c-1.8,1-3.5,2.2-5.3,3.4c-0.5,0.4-0.9,0.7-1.3,1.2l0.1,0.2c0.3,0.1,0.6,0.1,0.9,0.1c1-0.1,2.1-0.2,3.1-0.3
			c5.3-0.9,10.5-2.4,15.5-4.5c2-0.9,4-1.8,6-2.9c0.8-0.5,1.6-1.1,2.1-1.9c0.5-0.6,0.4-1.5-0.2-2C57.3,43.5,57.1,43.4,56.8,43.3z"/>
		<path class="st0" d="M52,52.1l-5.9,2.3c0.4,1.4,0.8,2.7,1.2,4.1c0.7,2.2,1.3,4.4,2,6.5c0.1,0.5,0.6,0.9,1.1,0.9
			c0.1,0,0.3-0.1,0.4-0.1c1-0.2,1.6-1.1,1.5-2.1c0-3.7-0.1-7.3-0.1-11C52.1,52.5,52,52.3,52,52.1z"/>
	</g>
	<path class="st1" d="M4.1,55.3c0,0-5.3,3.8-3.1,5.7c5,4.3,25.5-4.2,25.5-4.2"/>
	<path class="st0" d="M11.9,9.1l1.4,0.8l-0.2,6.2c0,0.2,0.2,0.4,0.4,0.5c0,0,0,0,0,0h1.4c0.2,0,0.4-0.2,0.4-0.4c0,0,0,0,0,0
		l-0.2-5.4l1.9,1c3.6,1.9,7.3,3.8,11,5.7c0.7,0.5,1.7,0.5,2.4,0c4-2.1,13-6.9,15.9-8.4c0.2-0.1,0.3-0.4,0.2-0.7
		c0-0.1-0.1-0.2-0.2-0.2c-2.9-1.3-11.8-5.4-16.5-7.5c-0.5-0.2-1.1-0.1-1.6,0.1c-4.4,2-13.4,6.2-16.2,7.5c-0.2,0.1-0.3,0.4-0.2,0.7
		C11.7,9,11.8,9,11.9,9.1z"/>
	<path class="st0" d="M18.8,16.6c0.2-0.4,0.7-0.6,1.1-0.4c0,0,0,0,0,0c2.4,1.5,4.1,2.7,6.1,3.8c2.4,1.2,3.9,1.3,6.3,0
		c2-1.1,3.8-2.3,6.1-3.7c0.4-0.2,0.9-0.1,1.1,0.3c0,0,0,0,0,0c2.2,4.4,0.5,10.7-3.6,13.9c-4.4,3.5-10.8,3.1-14.7-1
		C17.7,26.1,16.8,20.1,18.8,16.6z"/>
	<path class="st0" d="M15.1,18.1h-1.9c-0.2,0-0.3,0.1-0.3,0.3c-0.1,0.6-0.4,3.7-0.6,4.7c0,0.2,0.1,0.4,0.3,0.4c0,0,0,0,0.1,0h3.3
		c0.2,0,0.3-0.2,0.3-0.3c0,0,0-0.1,0-0.1c-0.2-1-0.6-4.1-0.8-4.7C15.4,18.2,15.3,18.1,15.1,18.1z"/>
</g>
</svg>
