<?xml version="1.0" encoding="utf-8"?>
<!-- Generator: Adobe Illustrator 22.1.0, SVG Export Plug-In . SVG Version: 6.00 Build 0)  -->
<svg version="1.1" id="Layer_1" xmlns="http://www.w3.org/2000/svg" xmlns:xlink="http://www.w3.org/1999/xlink" x="0px" y="0px"
	 viewBox="0 0 61 61" style="enable-background:new 0 0 61 61;" xml:space="preserve">
<style type="text/css">
	.st0{fill:none;stroke:#072249;stroke-miterlimit:10;}
	.st1{fill:none;stroke:#072249;stroke-linejoin:round;}
	.st2{fill:none;stroke:#072249;stroke-linecap:round;stroke-miterlimit:10;}
</style>
<title>Asset 3</title>
<g id="Layer_2_1_">
	<g id="Layer_1-2">
		<path class="st0" d="M9.3,0.5h42.4c4.9,0,8.8,3.9,8.8,8.8v42.4c0,4.9-3.9,8.8-8.8,8.8H9.3c-4.9,0-8.8-3.9-8.8-8.8V9.3
			C0.5,4.4,4.4,0.5,9.3,0.5z"/>
		<path class="st1" d="M28.3,41.9c0.4-1.6,2-2.5,3.5-2.1c0.3,0.1,0.7,0.2,1,0.4c0.5,0.4,1.1,0.8,1.6,1.2c0.1,0.1,0.3,0.1,0.5,0.1
			c1.1-0.6,2.1-1.1,3.3-1.7c-0.1-0.1-0.1-0.2-0.2-0.3c-1.1-2.2-3.5-7.2-3.5-7.5l-4.2,4.5l-5.1-5.4c-0.4,0.1-0.7,0.2-1.1,0.4
			c-6,2.3-10,8.1-9.9,14.6c0,1.2,0.2,2.4,0.5,3.5c5-1.2,9.9-2.6,14.7-4.5l-0.7-1.4C28.3,43.1,28.2,42.5,28.3,41.9z"/>
		<path class="st1" d="M33.4,43.3c-0.7-0.5-1.3-1-2-1.3c-0.2-0.1-0.6,0-0.9,0.1c-0.1,0-0.2,0.3-0.1,0.5c0.3,0.7,0.7,1.4,1,2.1
			L33.4,43.3z"/>
		<path class="st1" d="M40,38.5c0.1,0.3,0.3,0.5,0.4,0.8l4.6-1.8c0-0.1-0.1-0.1-0.1-0.2c-2-2.2-4-4.4-5.9-6.6
			c-0.2-0.2-0.4-0.3-0.6-0.4c-0.6-0.2-1.2,0-1.5,0.4c-0.4,0.4-0.1,0.9,0.1,1.3C37.9,34.3,39,36.4,40,38.5z"/>
		<path class="st1" d="M33.7,50.8c0.1,0.2,0.3,0.6,0.4,0.6c0.3-0.1,0.7-0.3,0.8-0.5c0.2-0.8,0.4-1.5,0.6-2.3l-2.3,0.3
			C33.4,49.5,33.5,50.2,33.7,50.8z"/>
		<path class="st1" d="M51.5,38.3c-0.3-0.1-0.5-0.1-0.8-0.1c-0.9,0.1-1.9,0.2-2.8,0.4c-4.2,1.2-8.2,2.9-12,5.1
			c-1.4,0.8-2.7,1.7-4,2.6c-0.4,0.3-0.7,0.6-1,0.9l0.1,0.2c0.2,0.1,0.5,0.1,0.7,0.1c0.8,0,1.6-0.1,2.4-0.2c4.1-0.7,8.1-1.9,11.9-3.5
			c1.6-0.7,3.1-1.4,4.6-2.2c0.6-0.4,1.2-0.9,1.6-1.5c0.4-0.5,0.3-1.1-0.2-1.5C51.9,38.4,51.7,38.3,51.5,38.3z"/>
		<path class="st1" d="M47.9,45l-4.5,1.8c0.3,1,0.6,2.1,0.9,3.1c0.5,1.7,1,3.3,1.5,5c0.1,0.4,0.5,0.7,0.9,0.6c0.1,0,0.1,0,0.2-0.1
			c0.7-0.2,1.2-0.9,1.1-1.7c0-2.8-0.1-5.6-0.1-8.4C47.9,45.3,47.9,45.1,47.9,45z"/>
		<path class="st2" d="M11.2,47.4c0,0-4,2.9-2.3,4.3c3.8,3.3,19.5-3.2,19.5-3.2"/>
		<path class="st1" d="M17.2,12.1l1,0.6l-0.1,4.8c0,0.2,0.1,0.3,0.3,0.3c0,0,0,0,0,0h1.1c0.2,0,0.3-0.2,0.3-0.3l-0.2-4.2
			c0,0,1.1,0.6,1.5,0.8c2.8,1.4,5.6,2.9,8.4,4.3c0.6,0.3,1.3,0.3,1.8,0c3.1-1.6,10-5.2,12.1-6.4c0.2-0.1,0.3-0.3,0.2-0.5
			c0-0.1-0.1-0.1-0.2-0.2c-2.2-1-9-4.2-12.6-5.8c-0.4-0.1-0.8-0.1-1.2,0.1c-3.4,1.5-10.3,4.7-12.4,5.7c-0.2,0.1-0.3,0.3-0.2,0.5
			C17,11.9,17.1,12,17.2,12.1z"/>
		<path class="st1" d="M22.5,17.8c0.2-0.3,0.5-0.4,0.8-0.3c0,0,0,0,0,0c1.8,1.1,3.1,2.1,4.7,2.9c1.5,1,3.3,1,4.8,0
			c1.5-0.8,2.9-1.8,4.7-2.9c0.3-0.2,0.7-0.1,0.9,0.3c0,0,0,0,0,0c1.6,3.4,0.4,8.2-2.8,10.6c-3.4,2.7-8.3,2.3-11.3-0.8
			C21.6,25.1,21,20.5,22.5,17.8z"/>
		<path class="st1" d="M19.7,18.9h-1.4c-0.1,0-0.2,0.1-0.3,0.2c-0.1,0.5-0.3,2.8-0.5,3.6c0,0.1,0.1,0.3,0.2,0.3c0,0,0,0,0.1,0h2.5
			c0.1,0,0.3-0.1,0.3-0.2c0,0,0,0,0-0.1c-0.2-0.8-0.5-3.2-0.6-3.6C19.9,19,19.8,18.9,19.7,18.9z"/>
	</g>
</g>
</svg>
