<?xml version="1.0" encoding="utf-8"?>
<!-- Generator: Adobe Illustrator 22.1.0, SVG Export Plug-In . SVG Version: 6.00 Build 0)  -->
<svg version="1.1" id="Layer_1" xmlns="http://www.w3.org/2000/svg" xmlns:xlink="http://www.w3.org/1999/xlink" x="0px" y="0px"
	 viewBox="0 0 61.8 66.9" style="enable-background:new 0 0 61.8 66.9;" xml:space="preserve">
<style type="text/css">
	.st0{fill:none;stroke:#106391;stroke-miterlimit:10;}
</style>
<title>Asset 11</title>
<g id="Layer_2_1_">
	<g id="Layer_1-2">
		<path class="st0" d="M5.1,53c0.6-1.1,1.3-2.2,2.1-3.2c3.2-3.4,6.4-6.9,9.8-10.1c9.3-8.8,19.6-16.3,30.8-22.5
			c2.4-1.2,5-2.2,7.6-3.1c0.7-0.2,1.5-0.3,2.3-0.3c2.7,0.1,4.3,2.2,3.2,4.6c-0.9,2-2.1,3.8-3.7,5.3c-3.7,3.3-7.6,6.5-11.6,9.4
			C35.8,40.3,25.2,46.3,14.1,51c-2.2,0.9-4.4,1.6-6.7,2.2c-0.7,0.1-1.3,0.2-2,0.2L5.1,53z"/>
		<path class="st0" d="M40.1,43.6l11.8-8.2c0.1,0.4,0.3,0.8,0.4,1.2c2,7.9,4,15.9,5.9,23.8c0.7,2.1-0.2,4.4-2.2,5.4
			c-1,0.8-2.4,0.7-3.3-0.2c-0.2-0.2-0.3-0.4-0.4-0.6c-2.5-4.4-5.1-8.8-7.6-13.2C43.1,49.2,41.6,46.4,40.1,43.6z"/>
		<path class="st0" d="M38.6,16.3l-11.8,8c-0.5-0.6-1.1-1.3-1.6-1.9L11.9,6.2c-0.8-1-2-2-1.2-3.5c0.8-1.5,2.5-2.3,4.2-2.2
			c0.7,0,1.5,0.2,2.1,0.6C24,6,31.1,11,38.2,15.9C38.3,16,38.5,16.2,38.6,16.3z"/>
		<path class="st0" d="M12.6,56.4l6.3-2.4c0,2.4,0.2,4.7-0.1,7c-0.1,0.7-1,1.5-1.8,1.9c-0.2,0.1-1.2-0.7-1.6-1.3
			C14.4,59.9,13.6,58.2,12.6,56.4z"/>
		<path class="st0" d="M9.5,40.5l-4.4,5c-1.5-1.8-3-3.5-4.4-5.3c-0.2-0.3-0.2-1.2,0-1.3c0.7-0.4,1.7-1,2.4-0.8
			C5.2,38.6,7.3,39.6,9.5,40.5z"/>
	</g>
</g>
</svg>
