<?xml version="1.0" encoding="UTF-8" standalone="no"?><!DOCTYPE svg PUBLIC "-//W3C//DTD SVG 1.1//EN" "http://www.w3.org/Graphics/SVG/1.1/DTD/svg11.dtd"><svg width="100%" height="100%" viewBox="0 0 50 50" version="1.1" xmlns="http://www.w3.org/2000/svg" xmlns:xlink="http://www.w3.org/1999/xlink" xml:space="preserve" xmlns:serif="http://www.serif.com/" style="fill-rule:evenodd;clip-rule:evenodd;stroke-linejoin:round;stroke-miterlimit:1.41421;"><rect id="twitter" x="0.048" y="0" width="50.048" height="50" style="fill:none;"/><g id="Layer_1-2"><g opacity="0.5"><path d="M25.048,0c-13.714,0 -25,11.285 -25,25c0,13.715 11.286,25 25,25c13.715,0 25,-11.285 25,-25c0,-13.715 -11.285,-25 -25,-25Zm12.43,18.73l0,0.812c0,9.874 -8.125,18 -18,18c-0.08,0 -0.16,-0.001 -0.24,-0.002c-3.477,0.001 -6.885,-0.98 -9.83,-2.83c0.51,0 1,0.08 1.53,0.08c2.893,0.015 5.709,-0.935 8,-2.7c-2.722,-0.031 -5.14,-1.796 -6,-4.38c0.396,0.072 0.798,0.109 1.2,0.11c0.571,0 1.139,-0.074 1.69,-0.22c-2.959,-0.57 -5.123,-3.176 -5.14,-6.19l0,-0.08c0.892,0.487 1.885,0.758 2.9,0.79c-2.8,-1.809 -3.689,-5.555 -2,-8.43c3.281,3.959 8.084,6.357 13.22,6.6c-0.113,-0.472 -0.17,-0.955 -0.17,-1.44c0.028,-3.47 2.89,-6.31 6.36,-6.31c0.017,0 0.034,0 0.05,0c1.767,-0.001 3.46,0.723 4.68,2c1.439,-0.275 2.819,-0.796 4.08,-1.54c-0.482,1.468 -1.485,2.71 -2.82,3.49c1.273,-0.15 2.516,-0.487 3.69,-1c-0.866,1.261 -1.95,2.358 -3.2,3.24Z" style="fill:#072249;fill-rule:nonzero;"/></g></g></svg>