<svg viewBox="0 0 111.77 117.12" xmlns="http://www.w3.org/2000/svg"><g fill="#072249" opacity=".5"><path d="M93.17 19.9h15.72l-6.12 10.89h1.72l6.34-11.27a.75.75 0 0 0 0-.74.74.74 0 0 0-.65-.37h-17z"/><path d="M100.63 30.79l4.65-8.28a.48.48 0 0 0 0-.49.5.5 0 0 0-.43-.25H93.17v1H104l-4.51 8zm-75.04-9.02H6.08a.5.5 0 0 0-.44.74l4.66 8.28h1.14l-4.51-8h18.66zm29.87 93.08L42.57 91.94l-1.57.18 13.86 24.62a.75.75 0 0 0 1.3 0l15.78-28-1.83.2z"/><path d="M8.15 30.79L2 19.9h23.59v-1.49H.75a.74.74 0 0 0-.65 1.11l6.33 11.27zm91.32 43.32l-.09.07-.1.06c-1.55.86-2.7 1.56-3.41 2.06-1.06.76-1.93 1.38-2.64 1.87a13.18 13.18 0 0 0 4.77-.45c1.84-.61 1.68-2.12 1.67-3.73zM45.66 91.6l-1.08.11L55 110.27a.47.47 0 0 0 .43.25.5.5 0 0 0 .44-.25l11.91-21.11-1.23.13L55.46 109zM37.86 74l-.93 2.11a6.32 6.32 0 0 1-.28.67 11.79 11.79 0 0 0 1.5.78c.32-.59.66-1.27 1-2v-.09l.05-.08a21.62 21.62 0 0 0 1.9-3.66 2.4 2.4 0 0 1 1-1.25l.32-.2h.32a3.48 3.48 0 0 1-1.18-1.9c-.42-2-.11-4.45-.11-6.47V43.22c0-1.66.71-4.54-1.32-5.2A13.31 13.31 0 0 0 35 38c-1.49.24-2.44.6-2.69 2a33.07 33.07 0 0 0-.07 5.45V66.1a19.51 19.51 0 0 0 .69 5.82 1.22 1.22 0 0 1 .26.06 2.16 2.16 0 0 1 .9-.28l.76-.07.51.08 1-.09.48.55a1.5 1.5 0 0 1 .76.48l.45.52-.16.69zm7.68-4.47a2.34 2.34 0 0 1-.73.83h.12l.39.37a2 2 0 0 1 .52.94l.54-.42.17-.08s.18-.09.89-.54l.09-.06h.11a12.27 12.27 0 0 1 3.65-1.14 3.32 3.32 0 0 1 .46 0 13 13 0 0 1 2.12.22h.17l1.12.46a10.92 10.92 0 0 0 .26-2.41V42.52c0-2 .52-4.36-2.27-4.61-1.65-.14-4-.33-5.63.31-1.29.52-1.4 1.39-1.43 2.61-.13 5.14 0 10.29 0 15.43v9.84a7.34 7.34 0 0 1-.55 3.43zm38.85-13.64c.57-3.18.2-6.87.08-10.1A7.31 7.31 0 0 0 80 39.06c-2.75-1.2-5.84-1.24-8.82-1.24-2.45 0-5.37-.46-7.72.3s-1.67 4.62-1.67 6.61V69a1.21 1.21 0 0 1 .15 1l-.06.23-.09.26v.78a12.13 12.13 0 0 1 .76-1 6.45 6.45 0 0 1 .8-1h-.21l2.18-2.53a7.79 7.79 0 0 1 1.58-1.42 5.29 5.29 0 0 1 2.21-1.07h.13l1.42-.15a1.36 1.36 0 0 1 1.93.36 2.15 2.15 0 0 1 .31.68 2.42 2.42 0 0 1 1.7 1.19 3.11 3.11 0 0 1 .4 1.11c.12.25.23.5.32.74.32.46.33 1 .11 2.16H76a30.12 30.12 0 0 0 2.89-2.08l.15-.11.17-.08s.18-.09.88-.54l.1-.06h.1a15.1 15.1 0 0 1 2.84-1c-.17-.56-.34-1.1-.5-1.65-.36-1.24-1-2.68-.77-4 .37-1.82 2.19-3.05 2.53-4.93zm-8.85-3.11a3.79 3.79 0 0 1-.59 2.3c-1.18 1.63-3.43 1.33-3.74-.46a5.42 5.42 0 0 1 0-.57c-.12-2.42-.52-5.34-.06-7.73.2-1 .26-1 1.36-.76 1.93.35 2.83 1.08 3 2.9.03 1.43.09 2.88.03 4.32z"/><path d="M102.36 69.35a8.09 8.09 0 0 0-1.63.7c-1.28.59-2.22 1.06-2.81 1.39a41.76 41.76 0 0 0-4.5 2.56 19.32 19.32 0 0 0-2 1.32 2.58 2.58 0 0 1-.83.53l.11-.24a1.1 1.1 0 0 0 0-.36 8.65 8.65 0 0 1 .43-.89V74a8.77 8.77 0 0 1 .55-1.35 11.8 11.8 0 0 0 1.73-.88 2.46 2.46 0 0 0 1.07-.64 8.23 8.23 0 0 0 1.11-.6c.28-.14.78-.45 1.51-.91.38-.48.62-.72.73-.74a1.94 1.94 0 0 1 .74-.83 10.2 10.2 0 0 1 .87-.89v-.08c-.09-.33-.27-.47-.53-.45-.56.22-1.12.46-1.69.75a39.9 39.9 0 0 1-4 1.86 9.07 9.07 0 0 1 .49-1.3v-.18a5.34 5.34 0 0 0 0-.54.74.74 0 0 1 .31-.39 10 10 0 0 0 1.31-.71A27.17 27.17 0 0 0 98 64.94a8.74 8.74 0 0 0 1.21-.78 1.71 1.71 0 0 0 .72-.52 5.1 5.1 0 0 0 .85-.62 3.1 3.1 0 0 0 1.29-.84q.17-.37.36-.39v-.09a1.12 1.12 0 0 1-.42.18H102a1.57 1.57 0 0 1 .35-.3l-.35.08-7.37 2.64a10.76 10.76 0 0 1-2.26.71h-.11l-.11.06a3.53 3.53 0 0 1-1.27.79c-1.82.71-2.8 1.33-2.93 1.85 0 .16.13.34.53.54a3 3 0 0 0 1.59.19 2 2 0 0 1 .67-.28h.1c-.34.82-.66 1.65-.94 2.5a.76.76 0 0 1-.55.5c-1.2.49-1.85.93-1.94 1.3a2.76 2.76 0 0 0 .16.27c-.27-.31-.5-.47-.69-.45q.08-.33-1.5-.21a21.05 21.05 0 0 0-4.91 2 17.34 17.34 0 0 1-2 1.09 4.65 4.65 0 0 0 0-.59 6.35 6.35 0 0 0 .3-.78c.91-1.68 1.59-2.6 2-2.78a16.57 16.57 0 0 1 1.45-1.08 4.57 4.57 0 0 1 1.84-.93 7.7 7.7 0 0 1 2.08 0 1 1 0 0 1-.21.42.18.18 0 0 0 .18.17.94.94 0 0 1 .35-.12.45.45 0 0 1 .25.06 4.71 4.71 0 0 0 .69-.38q.16-.68-.09-.93l-1-.44a9.21 9.21 0 0 0-2.15-.19A10.79 10.79 0 0 0 81 68.68c-.6.4-1 .63-1.09.69a15.22 15.22 0 0 0-2.7 2.45 9.39 9.39 0 0 0-2.25 3.68c-.85.19-1.49.35-1.9.48h-.27a.27.27 0 0 0 0-.18l.11-.19a3.08 3.08 0 0 1 0-.45l.24-.29h-.06c.28-1.55.45-2.46.52-2.73l.12-.24s0-.25.07-.76c0 0 .07 0 .07-.06a.4.4 0 0 1 0-.24c.26-1.3.31-1.93.16-1.92a8.64 8.64 0 0 0-.44-1.07c-.1-.58-.19-.87-.26-.87a1.07 1.07 0 0 0-1.18-.65 1.28 1.28 0 0 0-1 .51l-.06.23a21.59 21.59 0 0 1-.9 2.09l-5 8.08C64.57 78.39 64.19 79 64 79c-1 .18-1.48.36-1.52.55q-.2.75.78 1.14a21.72 21.72 0 0 0-1 2.37h.06c-.16.65-.06.95.3.92h.06l.12-.06c.13.08.19.13.18.17a1 1 0 0 0 .2-.16c.46-.82.77-1.23.9-1.25a8.22 8.22 0 0 0 1.71-1.91s.27-.15.77-.29a7.51 7.51 0 0 0 1-.36 25.52 25.52 0 0 1 2.49-1c.16 0 .23.33.22 1.05a9.21 9.21 0 0 0 .64 3.47.93.93 0 0 0 1 .79v-.18c0-.54-.08-.8-.19-.79a5.73 5.73 0 0 0 .08-1.39l.16-.42v-.76l.14-.32a5.23 5.23 0 0 0 .13-1.17.71.71 0 0 1 .09-.15V79l.06-.23c0-.05 0-.08.13-.1a3.82 3.82 0 0 0 0-.81 2.28 2.28 0 0 1 1-.72l-.03-.14a2.68 2.68 0 0 0 .62-.33l.66-.24a3 3 0 0 0 .9 2.57 3.62 3.62 0 0 0 1.35 1 10.9 10.9 0 0 0 2.71.31 11.2 11.2 0 0 0 3.26-1 2.94 2.94 0 0 1 1.1-.74h.17c0-.19.32-.45.84-.8A15.6 15.6 0 0 0 87.78 75v-.13s-.12.07-.21.19h-.09l.4-.76.07-.27a3.64 3.64 0 0 0-.08-.94 4.42 4.42 0 0 1 1.06.36l-.11.46-.08.09h.06a19.24 19.24 0 0 0-.67 2v.23h-.06a.16.16 0 0 0 0 .13l-.12.24v.18l-.12.28c-.17 1-.19 1.53 0 1.52 0 .15 0 .21.27.19.11.23.21.34.29.34a.81.81 0 0 0 .52.3l.34-.08a.22.22 0 0 0 .15 0 5.54 5.54 0 0 0 1.38-1q1-.59 4.22-2.92c.76-.54 1.94-1.26 3.54-2.17a21.41 21.41 0 0 1 2.46-1.57 7.18 7.18 0 0 1 1.32-1s.24-.23.7-.65c.61-.3 1-.62 1-1l-.19-.29c-.94.27-1.43.47-1.47.62zM70.3 75.8l-.08.09v1a6.89 6.89 0 0 1-2 .72h-.1a16.83 16.83 0 0 1 1.4-1.92 5.28 5.28 0 0 1 .78-1.19h.06a6.92 6.92 0 0 0-.06 1.3zm6.53 2.85h-.06c-.1 0-.14-.08-.13-.12-.27 0-.41-.42-.42-1.34a.17.17 0 0 1 .15-.15 2.86 2.86 0 0 0 .47 1.56zm9.67-5a7.12 7.12 0 0 1-2.28 2.7 6.92 6.92 0 0 0-.88.71 9.49 9.49 0 0 1-3.89 1.85c-.64 0-1-1-1.06-3.07l.08-.09s-.06 0-.08-.13a.6.6 0 0 0 .13-.28s.22-.11.61-.33a9.44 9.44 0 0 0 1.29-.61 25.31 25.31 0 0 1 2.9-1.4h.06l-.27.2a5.64 5.64 0 0 0-1.22.61 17.17 17.17 0 0 0-2.21 1.33l.07.13.13-.06a.83.83 0 0 1 .7-.47 3.84 3.84 0 0 1 1.15-.51 7.52 7.52 0 0 0 1.41-.68 20 20 0 0 1 2.45-.81.28.28 0 0 1 .15 0 .4.4 0 0 1 .19-.1H86c.51.02.66.36.5.98zM102 70c-1.26.58-2.42 1.12-3.47 1.63h-.09v-.09a4 4 0 0 1 .85-.39 4 4 0 0 1 .94-.54 4.23 4.23 0 0 1 1-.46 5.91 5.91 0 0 1 1.46-.67 4.46 4.46 0 0 0-.69.52z"/><path d="M111.3 38.46c-.55-.71-1.67-.71-2.53-.75-2-.08-3.93 0-5.88 0H96.1c-2 0-4.77-.24-5.28 2-.59 2.57-.1 5.78-.1 8.37v15.84c.13-.07.21.37.24.35l.17-.22 1-1 .32.11a16.21 16.21 0 0 0 1.58-.53l7.49-2.55 2.81-.61-.12 1h.16l-.3 1.27c1.57 0 3.19-.22 3.89-1.25s.46-3.42.28-4.62-.51-1.45-1.65-1.67c-1.77-.36-3.79.32-5.51-.16-2-.56-1.46-3.31-1.44-4.83 0-.86 0-1.73.06-2.58.1-1.34.84-1.57 2.14-1.68 1-.08 2-.05 3-.06 2 0 5.91.63 6.61-1.69a.49.49 0 0 0 0-.11c.2-1.24.68-3.57-.15-4.63zM9.42 76.62l-.15-.57.24-.25c0-.34.11-.78.22-1.37a2 2 0 0 0-.1-.75l-.09-.23v-.78a1.6 1.6 0 0 1 .92-1.06l.08-.28h1.19a3 3 0 0 1 1.58.26l.41.11.18.05.16.09c.82.45 1.74 1.45 1.46 3.66l-.06.42a1.42 1.42 0 0 1 0 .2 2.56 2.56 0 0 1-.16.49 3.39 3.39 0 0 1-.08.39l.67-.06-.51 1a12.73 12.73 0 0 0 4.95-1c.24-.11.47-.24.7-.37l2.49-3.86A17.22 17.22 0 0 0 24.3 71l.1-.39.13-.19a2.52 2.52 0 0 1 1.32-.94C26.6 63.06 23 59 18.06 54.89c-2.37-2-5.11-4.08-5.51-7.18-.18-1.35.47-5 2.66-3 .84.75.83 1.61 1.37 2.48 1.24 2 5 .94 6.92.35 2.46-.76 2.41-2 1.65-4.16-1.64-4.64-6.18-7-11.35-6.53-5.8.46-10.58 3.82-11.06 9.43-.47 5.35 2.72 9 6.57 12.53l4.07 3.71a10.24 10.24 0 0 1 2.73 3c.73 1.63.77 4.49-1.5 4.76-3.52.42-1.94-4.31-4.51-5.13a12 12 0 0 0-6.78.74c-2.44 1.31-.39 5.27.53 6.92a9.52 9.52 0 0 0 5.42 4.51 5.48 5.48 0 0 0 .15-.7z"/><path d="M43 82.3a3.62 3.62 0 0 0 1.35 1 11 11 0 0 0 2.72.31 11.71 11.71 0 0 0 3.26-1 2.87 2.87 0 0 1 1.1-.74h.16c0-.19.33-.46.84-.8.84-.76 1.49-1.39 2-1.91-.11.35-.19.65-.25.89a4 4 0 0 0-.06 1.34 3.51 3.51 0 0 0 .79 1.36 3.26 3.26 0 0 0 2.09 1.8c1-.23 1.5-.41 1.54-.55q.64-.6 1-.9a8.56 8.56 0 0 1 .89-1.6 4.34 4.34 0 0 1 .67-1.41.22.22 0 0 1 0-.18v-.14a6.16 6.16 0 0 1 .49-.85 21.86 21.86 0 0 1 1.84-3.84A44.69 44.69 0 0 1 66 71a20.65 20.65 0 0 0 1.88-2.6 3.41 3.41 0 0 0 .48-.63c0-.09-.07-.13-.13-.12a8.14 8.14 0 0 1 .51-.77v-.13h-.17a6.25 6.25 0 0 1-1.14 1 22 22 0 0 0-1.72 1.92v.13l.12-.06h.06c-.21.29-.33.43-.38.44h-.06a1.38 1.38 0 0 1 .25-.34.46.46 0 0 1-.18.06c-.63.78-1.07 1.28-1.29 1.51a4.31 4.31 0 0 1-1.11 1.45h-.05a.76.76 0 0 1 .25-.38 6.17 6.17 0 0 1 1-1.44c.21-.47.43-.71.67-.74a2.2 2.2 0 0 1 1-1.07 2.92 2.92 0 0 1 .54-.68q.07-.3.78-.75v-.09h-.17v-.05l.14-.15a1.64 1.64 0 0 0 1-.58 4.72 4.72 0 0 0 1.09-.93.47.47 0 0 0-.21 0c0-.12.17-.28.44-.49v-.09h-.06a3.67 3.67 0 0 0-1.65.83 6.54 6.54 0 0 0-1.4 1.3h.06a10.26 10.26 0 0 1 1-.81h.11v.09A14 14 0 0 0 65.51 69a13.7 13.7 0 0 0-1.69 2 11.56 11.56 0 0 0-1.09 1.57c-.67 1-1 1.47-1 1.53h-.21l.12-.24h-.17a49.16 49.16 0 0 0-3.17 5.63 11.19 11.19 0 0 1-1.7 2.71h-.06a.94.94 0 0 0-.19-.52c-.31 0-.43-.22-.34-.55a.07.07 0 0 0 .07 0 .39.39 0 0 0-.09-.3l.08-.32.13-.28a.2.2 0 0 1 0-.14 2.07 2.07 0 0 1 .34-.7.27.27 0 0 1 0-.22 2.07 2.07 0 0 1 .26-.61v-.18c.16-.37.26-.56.3-.56a19.22 19.22 0 0 1 1.25-3.52.16.16 0 0 0 0-.13l.13-.29.18-.72v-.09a5.46 5.46 0 0 0 .75-2c.66-.47 1-.85 1.09-1.13l.07-.28a2 2 0 0 0-.35-.32c-.18-.55-.29-.83-.34-.82.12-.46-.15-.9-.8-1.31h-.49c-.06 0-.17.11-.34.3l-.06.23c-.24.54-.54 1.3-.89 2.28 0 0 .05 0 0 0a10.12 10.12 0 0 0-.34 1 5.3 5.3 0 0 0-.12.64c-.62 1.83-1.14 3.38-1.56 4.67 0-.3-.13-.44-.26-.43-.31-.39-.56-.57-.78-.55q.09-.35-1.5-.21a21 21 0 0 0-4.9 2 17.34 17.34 0 0 1-2 1.09h-.06a3.22 3.22 0 0 0 0-.59 6.35 6.35 0 0 0 .3-.78s-.05 0 0 0c.92-1.68 1.6-2.61 2-2.78a15.62 15.62 0 0 1 1.45-1.09 4.72 4.72 0 0 1 1.86-.8 7.29 7.29 0 0 1 2.08 0 1.18 1.18 0 0 1-.21.42.2.2 0 0 0 .18.17 1.07 1.07 0 0 1 .35-.12.43.43 0 0 1 .25.06 3.79 3.79 0 0 0 .69-.38q.16-.67-.09-.93l-1-.44a9.28 9.28 0 0 0-2.16-.19A10.79 10.79 0 0 0 48.29 72a10.65 10.65 0 0 1-1.09.69 15.22 15.22 0 0 0-2.7 2.45c-.21.23-.41.47-.6.7a12.23 12.23 0 0 0 .75-1.84v-.1h-.11a1.35 1.35 0 0 0-.15-.7l.12-.28-.19-.29a.76.76 0 0 0-.14-.75.88.88 0 0 1-.54-.21l-.6.06a1 1 0 0 0-.46.58 26.9 26.9 0 0 1-2 4.13 35.71 35.71 0 0 1-1.69 3.33 14.11 14.11 0 0 1-1.09 2.43 9.62 9.62 0 0 1-1.61-1.32 11.39 11.39 0 0 1-1.77-2.55A14.34 14.34 0 0 0 35.51 76l.92-2.19c0-.06 0-.08-.2-.07s-.29-.13-.54-.43h-.38l-.51-.08h-.56a.54.54 0 0 0-.44.27c0 .12.07.17.12.17a.4.4 0 0 1-.2.15h-.11a7.26 7.26 0 0 0-.87-.36.38.38 0 0 0-.17.06.36.36 0 0 0-.16 0 .55.55 0 0 0-.43.22v.18a2.53 2.53 0 0 0-.07.68q-.21.63-.24.78v.08l-.06.45-.12.28v.09c-.35 1.13-.63 2-.82 2.45a.31.31 0 0 0 0 .13c-.1.27-.21.59-.33 1-1.19.26-2 .48-2.56.63h-.28a.22.22 0 0 0 0-.18l.11-.19a3.08 3.08 0 0 1 0-.45l.24-.29h-.06c.28-1.54.45-2.46.52-2.73l.12-.24s0-.25.07-.76c0 0 .07 0 .07-.05a.43.43 0 0 1 0-.25q.39-1.93.15-1.92a7.25 7.25 0 0 0-.43-1.07c-.1-.58-.19-.86-.26-.87a1 1 0 0 0-1.18-.64 1.25 1.25 0 0 0-1 .5l-.06.23a21.59 21.59 0 0 1-.9 2.09l-5 8.08c-.59 1.16-1 1.75-1.14 1.76-1 .18-1.48.36-1.52.55a1.09 1.09 0 0 0 0 .3l-1.23.36c-2.76.89-4.24 1.35-4.42 1.36l.05-.23v-.22a.07.07 0 0 0 .07 0 .25.25 0 0 0 0-.14l.17-.46a.52.52 0 0 0 0-.35c.11-.19.18-.29.24-.29.06-.41.12-.71.17-.92l.09-.36.22-.25.22-1.54a3.52 3.52 0 0 1 .15-.37c.09-.49.18-.93.28-1.32l.06-.27.12-.24v-.4a.51.51 0 0 1 .09-.14 5.5 5.5 0 0 1 .18-1 7 7 0 0 0 .19-.95 1.23 1.23 0 0 0 .15-.43.44.44 0 0 0 0-.3.39.39 0 0 1 .1-.19c.15-1.25-.1-2.06-.74-2.43a3 3 0 0 1-.79-.28 2.46 2.46 0 0 0-.78-.06.07.07 0 0 1-.07 0h-.16c-.3.06-.47.15-.5.27v.23a4.13 4.13 0 0 1 .19 1.41 6.43 6.43 0 0 0-.28 1.77.45.45 0 0 1-.11.19 5 5 0 0 1-.24 1.63v.27s-.07 0-.07.06-.13 1.07-.51 3.24-.59 3.33-.63 3.48l-.08.09-.09.6a8.53 8.53 0 0 1-1 2.28 2.2 2.2 0 0 0 1.45 1 5.85 5.85 0 0 1 .95-.28c.08-.33.75-.73 2-1.22a12.41 12.41 0 0 1 2.54-1.19A8.89 8.89 0 0 0 17 85.6q.33-.24.75-.51l.22.11a19.4 19.4 0 0 0-1 2.37H17c-.16.65-.06 1 .3.92h.06l.12-.06c.13.08.18.14.18.17a1 1 0 0 0 .2-.16c.46-.82.77-1.23.9-1.25a8 8 0 0 0 1.71-1.91c0-.05.27-.15.77-.29a7.51 7.51 0 0 0 .95-.36 25.52 25.52 0 0 1 2.49-1c.16 0 .23.33.22 1a9.21 9.21 0 0 0 .64 3.47.93.93 0 0 0 1 .79v-.18c0-.54-.07-.8-.18-.79a5.73 5.73 0 0 0 .08-1.39l.16-.41v-.76l.14-.33a4.71 4.71 0 0 0 .26-1.1.51.51 0 0 1 .09-.14v-.28l.06-.23s.05-.08.13-.1a3.82 3.82 0 0 0 0-.81 2.37 2.37 0 0 1 1-.72l-.08-.12a2.68 2.68 0 0 0 .62-.33c.5-.17.9-.33 1.23-.46-.33 1-.72 2.37-1.16 4a2.53 2.53 0 0 0 .17 1.9c.33.1.49.17.48.22.19 0 .3-.1.32-.16l.07-.33.2-.37a4 4 0 0 0 1-1.08c.13 0 .44-.71.95-2.1l.86-1.29c.26-.77.45-1.16.55-1.17a12.91 12.91 0 0 0 2.26 2.15 9.28 9.28 0 0 0 1.53 1 17 17 0 0 0-.68 2.08.22.22 0 0 1 0 .13.55.55 0 0 0-.11.23v.27a.07.07 0 0 0-.07.05v.18a2.35 2.35 0 0 1-.15.37 1.35 1.35 0 0 1 .17.61l.13-.06a.65.65 0 0 1 .44-.49 16 16 0 0 1 1.08-2.15h.11a4.6 4.6 0 0 1-.27.64c0 .27 0 .4.06.4 0 .36.06.53.13.53h.17l.12-.06c.4-.81.68-1.23.85-1.24s.46-.29.79-.8c.62-1.2 1.31-2.69 2.05-4.45a3 3 0 0 0 .9 2.55zm21.13-10.36a6.07 6.07 0 0 1 1.22-1.64h.1a11.77 11.77 0 0 1-1.09 1.35c-.35.63-.6 1-.73 1a1.5 1.5 0 0 1 .5-.71zm-18.3 6.64s.22-.11.62-.33a8.89 8.89 0 0 0 1.28-.61 27.72 27.72 0 0 1 2.91-1.36h.06l-.27.2a5.11 5.11 0 0 0-1.22.61A15.47 15.47 0 0 0 47 78.42l.07.13.13-.06a.81.81 0 0 1 .7-.47 3.64 3.64 0 0 1 1.1-.46 7.23 7.23 0 0 0 1.4-.68 20.67 20.67 0 0 1 2.45-.81.33.33 0 0 1 .16 0s.07-.06.18-.1h.12c.47 0 .63.25.46.91a6.93 6.93 0 0 1-2.28 2.7 5 5 0 0 0-.87.71 9.6 9.6 0 0 1-3.89 1.85c-.64 0-1-1-1.06-3.07l.07-.09s-.06 0-.07-.13a.57.57 0 0 0 .16-.27zm-2.15 1.73a2.88 2.88 0 0 0 .48 1.56c-.1 0-.14-.08-.13-.12-.27 0-.41-.42-.42-1.34a.17.17 0 0 1 .07-.1zM25 80.32l-.08.09-.05 1a6.57 6.57 0 0 1-1.95.72h-.1a16.83 16.83 0 0 1 1.4-1.92A5.28 5.28 0 0 1 25 79a7.5 7.5 0 0 0 0 1.32zM39.72 13c.09.06.35.28.61.5a.43.43 0 0 0 .71-.26 13.16 13.16 0 0 1 3.06-6.96 3.71 3.71 0 0 1 .23-.28s-1.92-1.1-1.94-2.86a.43.43 0 0 0-.57-.39 3.7 3.7 0 0 0-2 1.57 2.85 2.85 0 0 0-.26 3c.34.77-.47.72-.9 2a3.67 3.67 0 0 0 1 3.7z"/><path d="M85 34.32c-7.23-2.55-17.86-2-20.8-4C58 26 57.52 15.8 61.13 12.36s9.18-3.81 12.29-.71a.31.31 0 0 0 .5-.1 3.63 3.63 0 0 0-.38-3.42c-.5-.85-1.68-1-2.06-1.59s-.43-1.47-.87-2A17.53 17.53 0 0 0 68.14 3 10.07 10.07 0 0 0 64.33.67a21.24 21.24 0 0 0-11.26.17c-4.75 1.31-8.17 6.3-8.17 6.3a20.15 20.15 0 0 0-3 8 .32.32 0 0 1-.23.26c-3.24.78-7.63-.92-9.26-3.24a.29.29 0 0 0-.48 0 2.92 2.92 0 0 0-.43 2.32c.21 1.74 1.18 2.19 1.52 3.23s.08 1.64.54 2.85a2.6 2.6 0 0 0 .36.59 5 5 0 0 0 1.14.06 2.66 2.66 0 0 1 1.45.09 3.24 3.24 0 0 0 1.12.12c1.76-.05 3.51-.11 5.27-.19.58 0 1.15-.11 1.73-.18.87-.11 1.73-.27 2.6-.35a5.55 5.55 0 0 1 1.21.14c.29 0 .58.08.85.12a.37.37 0 0 0 .43-.32c0-.38.07-.73.14-1.08A1.68 1.68 0 0 1 51 18.35c.46-.18 1.41.33 1.71.78a2.16 2.16 0 0 1 .2 2.23 7.63 7.63 0 0 0-.39.75c0 .11.05.27.08.4l.06.06a5.58 5.58 0 0 1 2.27 3c.66 1.39 1.37 2.76 2 4.16a8.46 8.46 0 0 1 .42 1.09 2.53 2.53 0 0 0 .89 1.34c.32.25.46 1.35.46 1.35a7.29 7.29 0 0 0-.82-.3 6.56 6.56 0 0 0-.84-.16 6.18 6.18 0 0 0 0-1.09c-.11-.45-.41-.66-.68-1.08s-1-1.39-1.33-1.91c-.81-1.1-1.56-2.25-2.4-3.34a4.71 4.71 0 0 0-.85-.71l-1.87 1.19v.06l3.3 1.7c.62.33.05 1.48-.08 1.56-.48.29-.92 3.08 0 3.38.13 0 1.49-.27 1.84.28 0 .15-.91.27-1.53.58a12.48 12.48 0 0 1-1.21.68.48.48 0 0 1-.36-.24.75.75 0 0 1-.08-.56 8.41 8.41 0 0 0-.79-2.93c-.46.2-2.67.94-3.16 1.14a.6.6 0 0 0-.39.64c0 .18 1.79.55 1.48 1.36a11.64 11.64 0 0 0-1.93-.59c-.94-.17-2-.17-2-.17a.7.7 0 0 1 .08-.92c.36-.29 3.75-2 4.74-2.88a1.38 1.38 0 0 0-.89.17l-1 .11c-1.21-.24-2.42-.48-3.63-.74a2 2 0 0 1-1.3-3.25c.58-.73 1.3-1.37 2-2.05l.28-.29-1.07-.15c-.86-.06-1.72-.06-2.57-.17s-2-.33-3-.5c-.45-.07-.89-.16-1.34-.22a.81.81 0 0 0-.31 0c-.37.06-.74.15-1.11.21a8.28 8.28 0 0 1-.83 0c.37.32.75.61 1.06.84a.58.58 0 0 1-.08 1 9.91 9.91 0 0 1-4.26 1 .51.51 0 0 0-.49.61 3.14 3.14 0 0 0 1.31 1.7c.53.34.34.13 1.06.19s1.69 1.54 2.71 2.22a20.77 20.77 0 0 0 4.5 1.68v.08c-4 .12-11.95.93-15.75 2.2a.37.37 0 0 0 .19.71c3.37-.67 9.63-.7 13.48-.57a91.73 91.73 0 0 1 13.51 1.59 1 1 0 0 0 .36-.08c.78-.29 1.83-1.34 3.7-1.34a4.83 4.83 0 0 1 2.79.89 2.16 2.16 0 0 0 .94.45c.66 0 8.65-1.42 13.84-1.42 1.55 0 3.15.06 4.64.15 2.13.24 4.23.54 6.19.87.66.11.84-.56.25-.77zm.42-21.67a1.16 1.16 0 0 1-.23-.49 7.45 7.45 0 0 0-.56-1.58c-.47-1-2.19-1.38-2.63-1.69a9.61 9.61 0 0 1-1.22-1.55c-.51-.63-1.61-.11-2.28-.5s-1.5-2.2-3.92-3.06a16.65 16.65 0 0 0-3.64-.71 5 5 0 0 1 .78.69 4.92 4.92 0 0 1 .92 1.81l.07.23.13.07a4.79 4.79 0 0 1 2 1.77 6.35 6.35 0 0 1 .81 2.05 1.35 1.35 0 0 0 1 1 12.72 12.72 0 0 1 4.43 2.08c1.1.75 1.53.74 2 1.64.78 1.53 1.48 1.19 1.55 2.19s.41 1.46 1 1.46c.71 0 1.23-.24 1.23-1.48a6.9 6.9 0 0 0-1.44-3.93z"/></g></svg>