<?xml version="1.0" encoding="utf-8"?>
<!-- Generator: Adobe Illustrator 22.1.0, SVG Export Plug-In . SVG Version: 6.00 Build 0)  -->
<svg version="1.1" id="Layer_1" xmlns="http://www.w3.org/2000/svg" xmlns:xlink="http://www.w3.org/1999/xlink" x="0px" y="0px"
	 viewBox="0 0 240.2 277.7" style="enable-background:new 0 0 240.2 277.7;" xml:space="preserve">
<style type="text/css">
	.st0{opacity:0.7;}
</style>
<title>Asset 4</title>
<g id="Layer_2_1_" class="st0">
	<g id="Layer_1-2">
		<g class="st0">
			<path d="M104.8,205.9c-0.2,0.6-0.5,1.2-1,1.6c-1.1,1-1.5,0.9-3.1,1.1c-0.8,0.1-1.6,0-2.3-0.2c-0.3-0.1-0.6-0.3-0.9-0.5
				c-0.5-0.5-0.8-1.1-1-1.8c0-0.2-0.1-0.7,0.4-0.8c0.8-0.1,1.3-0.2,1.6-0.2c0.5,0,0.6,0,0.8,0.4c0,0,0,0.1,0.1,0.2
				c0,0.2,0.1,0.3,0.2,0.5c0.3,0.4,0.9,0.6,1.4,0.5c0.5-0.1,0.9-0.6,1-1.1c0-1-0.5-1.1-1.7-2l-2.1-1.4c-1-0.6-1.6-1.7-1.5-2.9
				c0.3-1.4,1.4-2.5,2.8-2.7c3.5-0.9,5.1,0.6,5.3,2c0,0.2-0.1,0.3-0.3,0.4c-0.6,0.2-1.2,0.3-1.8,0.4c-0.3,0-0.5,0-0.6-0.2
				s-0.2-0.2-0.2-0.4c-0.4-0.5-1.2-0.7-1.7-0.3c-0.2,0.2-0.4,0.4-0.5,0.7c-0.1,0.7,0.2,1.4,0.9,1.8c0.4,0.4,2.3,1.3,2.9,1.8
				C104.5,203.2,105.1,204.6,104.8,205.9z"/>
			<path d="M115.3,196.9c0,0.1-0.1,0.2-0.1,0.3c-0.3,0.1-0.7,0.2-1,0.2c-0.5,0-0.9,0.1-1.3,0.3c-0.3,0.2-0.3,0.5-0.3,1.2
				c-0.1,3-0.1,4.6-0.2,7.7c0,0.6,0,1-0.5,1.1s-1.2,0.1-1.8,0.1s-0.5-0.4-0.5-0.9c0.1-3.2,0.1-4.9,0.2-8c0-0.6,0-0.8-0.2-1
				c-0.4-0.1-0.8-0.2-1.2-0.1h-0.6c-0.4,0-0.7-0.1-0.7-0.4c0-0.4,0-0.8,0-1.1c0-0.1,0.1-0.2,0.2-0.3c0.3-0.1,0.7-0.2,1-0.2l5.9-0.5
				c1.2-0.1,1.2-0.1,1.2,0.7C115.3,196.4,115.3,196.6,115.3,196.9z"/>
			<path d="M123.6,206.6c-0.1,0.1-0.3,0.2-0.4,0.2c-2,0.7-4,0.6-5.2-0.6c-0.2-0.2-0.3-0.4-0.4-0.6c-0.2-0.5-0.2-1-0.2-1.5
				c0.1-3.3,0.2-4.9,0.3-8c0-0.4,0.1-0.7,0.2-0.8c0.7-0.2,1.4-0.3,2.2-0.3c0.7,0,0.5,0.4,0.5,1c-0.2,2.9-0.2,4.4-0.4,7.4
				c0,0.3,0,0.5,0,0.7c0,0.6,0.5,1,1,1c0.1,0,0.2,0,0.3,0c1.1-0.2,1.3-1,1.3-1.8c0.2-3.1,0.3-4.7,0.4-7.7c0-0.8,0.1-0.9,1.3-1
				c0.4,0,0.8-0.1,1.2-0.1c0.5,0,0.5,0.4,0.4,0.9c-0.2,3.3-0.3,5-0.5,8.4C125.6,204.8,124.9,205.7,123.6,206.6z"/>
			<path d="M136.9,196.3c-0.2,2.5-0.3,3.8-0.6,6.4c-0.1,0.6-0.3,1.3-0.8,1.7c-1.6,1.8-2.5,1.6-6.8,1.9h-0.1c-0.2,0-0.3,0-0.5-0.1
				c-0.2-0.1-0.2-0.4-0.1-1c0.3-4.2,0.4-6.2,0.7-10.2c0-0.2,0.1-0.5,0.1-0.6c0.1-0.4,0.6-0.4,1.1-0.5l3.4-0.3
				c0.8-0.1,1.5,0.1,2.2,0.5C136.7,195,137,195.5,136.9,196.3z M134,197.1c0-0.2,0-0.3,0-0.5c0-0.6-0.4-0.8-1.2-0.8
				c-0.9,0-1.2,0.2-1.2,0.8c-0.2,2.5-0.3,3.8-0.5,6.4c0,0.4-0.1,0.8,0.4,0.9c0.9,0.2,2-0.4,2.1-1.1
				C133.7,200.6,133.8,199.4,134,197.1L134,197.1z"/>
			<path d="M148.4,192.8c0.1,0.1,0,0.3-0.1,0.6c-1.1,2-2.2,4-3.4,6.5c-0.1,0.2-0.1,0.4-0.1,0.6c-0.2,1.8-0.3,3.1-0.4,3.7
				c-0.1,1-0.1,1-1.3,1.1l-0.8,0.1c-0.4,0-0.6-0.1-0.6-0.4c0-0.1,0-0.4,0.1-1c0.1-1.1,0.2-1.6,0.3-2.7c0.1-0.4,0.1-0.8,0-1.1
				c-0.2-0.6-0.3-1.1-0.8-2.2c-0.6-1.5-0.9-2.3-1.4-3.7c-0.1-0.2-0.1-0.4-0.2-0.6c0-0.1,0.1-0.3,0.3-0.3c0.8-0.1,1.5-0.2,2.3-0.2
				c0.2,0,0.4,0.1,0.4,0.3c0.1,0.2,0.3,0.6,0.4,1.1c0,0.2,0.3,0.9,0.4,1.1s0.2,0.5,0.4,0.5c0.1,0,0.3-0.1,0.3-0.2
				c0.1-0.2,0.3-0.5,0.5-0.9c0.5-1,0.8-1.6,1-1.9c0.1-0.2,0.3-0.3,0.6-0.4c0.8-0.1,1.5-0.1,2-0.1
				C148.2,192.7,148.3,192.7,148.4,192.8z"/>
			<path d="M112.9,222.7c0,0,0,0.1,0,0.1v0.1c-0.1,0.4-0.3,0.6-0.8,0.6s-1,0.1-1.5,0.1c-0.3,0-0.5-0.1-0.5-0.4s-0.1-0.8-0.2-1.4
				s-0.2-1.1-0.3-1.4c0-0.3-0.1-0.6-0.2-0.9c-0.1-0.1-0.3-0.1-0.4,0c0,0,0,0,0,0c-0.1,0.2-0.2,0.3-0.2,0.5c-0.3,1.5-0.5,2.4-0.6,2.9
				c-0.2,0.8-0.2,0.9-1.3,1c-0.7,0-1.4,0.2-1.5-0.3l-0.3-1.3c-0.2-0.6-1.7-8.2-2-9.6c-0.2-0.7,0-0.9,1-0.9h0.4l0,0
				c1.1-0.1,1.4-0.2,1.5,0.3c0.1,0.7,0.2,1.1,0.4,1.8c0,0.3,0.2,1.2,0.3,1.6c0,0.2,0.1,0.3,0.3,0.3s0.3-0.1,0.4-0.4
				c0.1-0.4,0.3-1.4,0.3-1.5c0.2-0.9,0.3-1.6,0.4-2c0.1-0.3,0.3-0.4,0.6-0.4c0.5,0,1.1-0.1,1.7-0.1s0.8,1.1,0.8,1.2
				c0.1,0.4,0.3,1.7,0.4,2.2c0,0.1,0.1,0.3,0.1,0.4c0.1,0.2,0.3,0.2,0.4,0.1c0.1,0,0.1-0.1,0.2-0.2c0.2-0.7,0.3-1.2,0.5-2.3
				c0.1-0.4,0.2-0.7,0.2-0.9c0.2-0.5,0.2-0.6,1-0.7l1.4-0.1c0.4,0,0.6,0.1,0.5,0.5c0,0.1-0.1,0.5-0.3,1.3
				C114.8,215,113.4,220.5,112.9,222.7z"/>
			<path d="M118.9,223c-0.4,0-0.8,0.1-1,0.1c-0.6,0-0.5-0.4-0.5-0.9c0.2-4.2,0.3-6.4,0.5-10.6c0-0.4,0.1-0.7,0.2-0.8
				c0.7-0.2,1.4-0.3,2.1-0.3c0.6,0,0.5,0.4,0.5,1c-0.2,4.2-0.3,6.4-0.6,10.6C120,222.9,120,222.9,118.9,223z"/>
			<path d="M130.6,211.3c0,0.1-0.1,0.3-0.1,0.4c-0.3,0.1-0.6,0.2-0.9,0.2c-0.4,0-0.9,0.1-1.2,0.3c-0.3,0.2-0.3,0.5-0.3,1.2
				c-0.2,3.2-0.4,4.8-0.6,8c0,0.6,0,1.1-0.6,1.1s-1.2,0.1-1.7,0.1s-0.5-0.4-0.4-0.9c0.2-3.3,0.3-4.9,0.6-8.2c0-0.6,0.1-0.9-0.1-1
				c-0.4-0.2-0.8-0.2-1.2-0.1h-0.5c-0.4,0-0.6-0.1-0.6-0.4s0-0.8,0.1-1.2c0-0.1,0.1-0.2,0.2-0.3c0.2-0.1,0.5-0.1,1-0.2l5.7-0.4
				c1.1-0.1,1.1-0.1,1.1,0.8C130.6,210.9,130.6,211.2,130.6,211.3z"/>
			<path d="M138.3,221.6c-0.4,0-0.7,0-0.9,0c-0.6,0-0.5-0.4-0.4-0.9c0.1-1.2,0.2-1.9,0.3-3.1c0-0.2,0-0.5,0-0.7
				c-0.1-0.5-1.1-0.3-1.8-0.3s-0.6,0.6-0.7,1.1c-0.1,1.3-0.2,2-0.3,3.3c-0.1,0.9-0.2,0.9-1.3,1c-0.8,0.1-1.2,0.1-1.3,0
				s-0.1-0.4-0.1-1c0.4-4.2,0.6-6.4,0.9-10.6c0-0.4,0.1-0.7,0.2-0.8c0.7-0.2,1.4-0.3,2.1-0.3c0.6,0,0.5,0.4,0.4,1
				c-0.1,1.2-0.2,1.8-0.3,3c-0.1,0.6-0.1,1,0.1,1.1c0.5,0.1,1.1,0.1,1.7,0c0.7-0.1,0.7-0.7,0.8-1.2l0.1-1.6c0.1-0.7,0.1-1.3,0.2-1.6
				s0.1-0.7,0.2-0.8c0.7-0.2,1.3-0.3,2-0.3c0.6,0,0.5,0.4,0.4,0.9c-0.4,4.3-0.6,6.5-1.1,10.8C139.6,221.5,139.5,221.6,138.3,221.6z"
				/>
			<path d="M117.5,238c-0.1,0.1-0.2,0.1-0.4,0.2c-1.8,0.6-3.6,0.4-4.7-0.6c-0.2-0.2-0.3-0.4-0.4-0.6c-0.1-0.4-0.2-0.9-0.2-1.4
				c0.1-3.1,0.2-4.6,0.3-7.8c0-0.4,0.1-0.7,0.2-0.8c0.6-0.2,1.3-0.3,2-0.2c0.6,0,0.5,0.4,0.5,1c-0.1,3-0.2,4.4-0.3,7.3
				c0,0.2,0,0.5,0,0.6c0.1,0.5,0.5,1,1.1,0.9c0,0,0.1,0,0.1,0c1-0.2,1.2-0.9,1.2-1.7c0.2-2.9,0.2-4.4,0.4-7.5c0-0.9,0.1-0.9,1.2-0.9
				l1.1-0.1c0.5,0,0.4,0.4,0.4,0.9c-0.2,3.3-0.3,5-0.5,8.2C119.2,236.5,118.5,237.5,117.5,238z"/>
			<path d="M129.1,235.3c-0.2,0.6-0.5,1.1-1,1.5c-1.1,0.9-1.5,0.8-3,1c-0.7,0.1-1.4,0-2.1-0.3c-0.3-0.1-0.6-0.3-0.8-0.5
				c-0.4-0.5-0.7-1-0.8-1.7c0-0.2-0.1-0.7,0.4-0.7c0.7-0.1,1.2-0.2,1.5-0.2c0.4,0,0.6,0.1,0.7,0.4c0,0.1,0,0.1,0.1,0.2
				c0,0.2,0.1,0.3,0.2,0.4c0.3,0.4,0.8,0.6,1.3,0.5c0.5-0.1,0.9-0.5,1-1c0.1-1-0.3-1.1-1.4-1.9l-1.9-1.4c-0.9-0.7-1.4-1.8-1.2-3
				c0.3-1.4,1.4-2.5,2.9-2.8c3.4-0.9,4.7,0.8,4.8,2.2c0,0.2-0.1,0.3-0.3,0.4c-0.6,0.2-1.1,0.3-1.7,0.4c-0.3,0-0.4-0.1-0.5-0.2
				c-0.1-0.2-0.1-0.3-0.2-0.4c-0.3-0.5-1-0.7-1.6-0.3c-0.3,0.2-0.4,0.4-0.5,0.7c-0.2,0.7,0.1,1.4,0.7,1.8c0.4,0.4,2,1.4,2.5,1.8
				C128.9,232.9,129.4,234.1,129.1,235.3z"/>
			<path d="M76.7,189.9c0.1-0.2,0.2-0.4,0.3-0.6c0.7-0.4,1.2-1,1.7-1.6c0.2,0,0.8-1.1,1.7-3.1l1.5-1.9c0.5-1.1,0.8-1.7,1-1.7
				c1.2,1.2,2.5,2.3,4,3.2c0.8,0.6,1.7,1,2.7,1.4c-0.5,1-0.9,2-1.2,3.1c0,0.1,0,0.1,0,0.2c-0.1,0.1-0.2,0.2-0.2,0.3v0.1v0.3
				c-0.1,0-0.1,0-0.1,0.1v0.3c-0.1,0.2-0.2,0.4-0.3,0.6c0.2,0.3,0.3,0.6,0.3,0.9l0.2-0.1c0.1-0.4,0.4-0.6,0.8-0.7
				c0.5-1.1,1.2-2.2,1.9-3.2h0.2c-0.1,0.3-0.3,0.7-0.5,1c0,0.4,0,0.6,0.1,0.6c0,0.5,0.1,0.8,0.2,0.8h0.3l0.2-0.1
				c0.7-1.2,1.2-1.8,1.5-1.9s0.8-0.4,1.4-1.2c1.1-1.8,2.3-4,3.6-6.6c-0.3,1.5,0.3,3,1.5,3.9c0.7,0.7,1.5,1.2,2.4,1.5
				c1.6,0.3,3.2,0.5,4.8,0.5c2-0.3,3.9-0.8,5.7-1.5c0.6-0.5,1.2-0.9,1.9-1.1h0.3c0.1-0.3,0.6-0.7,1.5-1.2c1.2-0.9,2.3-1.8,3.4-2.8
				c-0.2,0.5-0.3,1-0.4,1.3c-0.2,0.7-0.2,1.3-0.1,2c0.3,0.8,0.8,1.5,1.4,2c0.6,1.2,1.8,2.1,3.8,2.7c1.7-0.4,2.6-0.6,2.7-0.8
				c0.8-0.6,1.4-1,1.8-1.3c0.4-0.8,0.9-1.6,1.6-2.4c0.3-0.8,0.7-1.5,1.2-2.1c0-0.1,0-0.2,0-0.3l0.1-0.2c0.2-0.4,0.5-0.9,0.8-1.3
				c0.9-2,2-3.9,3.2-5.7c1.4-2.1,2.9-4.1,4.5-6c1.2-1.2,2.3-2.5,3.3-3.8c0.3-0.3,0.6-0.6,0.8-0.9c-0.1-0.1-0.1-0.2-0.2-0.2
				c0.3-0.4,0.6-0.8,0.9-1.1l0.1-0.2h-0.3c-0.6,0.5-1.3,1-2,1.4c-1.1,0.9-2.1,1.8-3,2.8l-0.1,0.2l0.2-0.1h0.1
				c-0.4,0.4-0.6,0.6-0.6,0.6H139c0-0.1,0.2-0.2,0.4-0.5v-0.1c-0.1,0-0.2,0.1-0.3,0.1c-1.1,1.2-1.9,1.9-2.3,2.2
				c-0.5,0.8-1.1,1.6-1.9,2.1h-0.1v-0.1c0.1-0.2,0.2-0.4,0.4-0.6c0.5-0.8,1.1-1.5,1.8-2.1c0.4-0.7,0.8-1.1,1.2-1.1
				c0.1-0.5,0.7-1,1.7-1.6c0.3-0.4,0.6-0.7,1-1c0.1-0.3,0.5-0.7,1.4-1.1v-0.1H142v-0.1l0.2-0.2c0.6-0.1,1.2-0.4,1.7-0.9
				c0.7-0.3,1.3-0.7,1.9-1.2c-0.1,0-0.2,0-0.4,0c0-0.2,0.3-0.4,0.8-0.7v-0.1H146c-1,0.2-2,0.6-2.9,1.2c-0.9,0.5-1.7,1.2-2.4,1.9h0.1
				c1.1-0.8,1.7-1.2,1.8-1.2h0.2v0.1c-1.3,0.9-2.6,2-3.7,3.3c-1.1,0.9-2.1,1.9-3,3c-0.7,0.7-1.3,1.5-1.9,2.3
				c-1.2,1.4-1.8,2.2-1.8,2.3H132V172l0.2-0.4h-0.3c-2,2.6-3.9,5.4-5.6,8.3c-1.7,2.7-2.7,4-3,4h-0.1c0-0.3-0.1-0.6-0.3-0.8
				c-0.6,0-0.8-0.3-0.6-0.8c0.1,0,0.1,0,0.1-0.1s0-0.3-0.2-0.4l0.1-0.5l0.2-0.4c0-0.1,0-0.1,0-0.2c0.1-0.4,0.3-0.7,0.6-1.1
				c0-0.1,0-0.2,0-0.3c0.1-0.3,0.3-0.6,0.5-0.9v-0.3c0.3-0.6,0.5-0.8,0.5-0.8c1.3-3.4,2-5.2,2.2-5.2c0-0.1,0-0.1,0-0.2l0.2-0.4
				l0.3-1.1l-0.1-0.1c0.3-0.2,0.8-1.1,1.3-2.9c1.1-0.7,1.8-1.3,1.9-1.7l0.1-0.4c0,0-0.2-0.2-0.6-0.5c-0.3-0.8-0.5-1.2-0.6-1.2
				c0.2-0.7-0.3-1.3-1.4-1.9l-0.9,0.1c-0.1,0-0.3,0.1-0.6,0.4l-0.1,0.3c-0.4,0.8-0.9,1.9-1.6,3.4c0.1,0,0.1,0,0.1,0.1
				c-0.2,0.5-0.4,0.9-0.6,1.4c-0.1,0.3-0.2,0.6-0.2,0.9c-1.1,2.7-2,5-2.7,6.9c-0.1-0.4-0.2-0.6-0.5-0.6c-0.5-0.6-1-0.9-1.4-0.8
				c0.1-0.3-0.8-0.4-2.6-0.3c-3,0.7-5.8,1.7-8.6,3c-1.1,0.6-2.3,1.1-3.5,1.6h-0.1c0.1-0.3,0.1-0.6,0.1-0.9c0.2-0.4,0.4-0.8,0.5-1.2
				c-0.1,0-0.1,0-0.1-0.1c1.6-2.5,2.8-3.9,3.6-4.1c0.8-0.6,1.7-1.1,2.5-1.6c1-0.6,2.1-1,3.3-1.2c1.2-0.1,2.4-0.1,3.7,0
				c-0.1,0.2-0.2,0.4-0.4,0.6c0,0.1,0.1,0.2,0.3,0.2c0.2-0.1,0.4-0.1,0.6-0.2c0.2,0,0.3,0,0.4,0.1c0.4-0.2,0.8-0.3,1.2-0.6
				c0.2-0.7,0.2-1.1-0.2-1.4l-1.8-0.6c-1.2-0.2-2.5-0.3-3.8-0.3c-1.9,0.3-3.8,0.8-5.5,1.6c-1,0.6-1.7,0.9-1.9,1
				c-3.1,2.1-4.6,3.3-4.7,3.6c-0.4,0.3-0.7,0.7-1,1c0.5-0.9,1-1.8,1.3-2.7v-0.1h-0.2c0-0.4-0.1-0.7-0.3-1l0.2-0.4l-0.3-0.4
				c0.2-0.4,0.1-0.8-0.2-1.1c-0.3,0-0.7-0.1-0.9-0.3l-1.1,0.1c-0.4,0.2-0.7,0.5-0.8,0.9c-1,2.1-2.2,4.2-3.6,6.1
				c-0.9,1.7-1.9,3.3-3,4.9c-0.5,1.3-1.2,2.5-1.9,3.6c-1-0.6-1.9-1.2-2.8-1.9c-1.2-1.1-2.3-2.4-3.1-3.8c0.8-1.1,1.4-2.2,2-3.4
				l1.5-3.2c0-0.1-0.1-0.1-0.3-0.1s-0.5-0.2-1-0.6H86l-0.9-0.1l-1,0.1c-0.3,0-0.6,0.1-0.8,0.4c0,0.2,0.1,0.3,0.2,0.2
				c-0.1,0.1-0.2,0.2-0.3,0.2h-0.1c-1-0.4-1.5-0.5-1.5-0.5c-0.1,0-0.2,0.1-0.3,0.1c-0.1,0-0.2,0-0.3,0c-0.3,0-0.6,0.1-0.8,0.3
				l-0.1,0.3c-0.1,0.3-0.1,0.7-0.1,1c-0.2,0.6-0.4,1-0.4,1.1v0.1h-0.1l-0.1,0.7l-0.2,0.4v0.1c-0.6,1.7-1.1,2.9-1.4,3.6
				c0,0.1,0,0.1,0,0.2c-0.2,0.4-0.4,0.9-0.6,1.4c-2.1,0.4-3.6,0.7-4.5,0.9h-0.5c0-0.1,0-0.2,0-0.3l0.2-0.3c0-0.2,0-0.4,0-0.7V180
				l0.4-0.4h-0.1c0.5-2.3,0.8-3.6,0.9-4l0.2-0.4c-0.1,0,0-0.4,0.1-1.1c0.1,0,0.1,0,0.1-0.1c0-0.1,0-0.3,0-0.4
				c0.5-1.9,0.6-2.9,0.3-2.8c-0.2-0.5-0.5-1.1-0.8-1.6c-0.2-0.9-0.3-1.3-0.5-1.3c-0.4-0.7-1.2-1.1-2.1-0.9c-0.7,0-1.3,0.2-1.8,0.7
				l-0.1,0.3c-0.5,1.1-1,2.1-1.6,3.1l-8.6,12c-1,1.7-1.7,2.6-2,2.6c-1.7,0.3-2.6,0.5-2.7,0.8c0,0.1,0,0.3,0,0.4l-2,0.5
				c-4.8,1.3-7.4,2-7.8,2l0.1-0.4v-0.3c0.1,0,0.1,0,0.1-0.1c0-0.1,0-0.1,0-0.2l0.3-0.7c0.1-0.2,0.1-0.4,0-0.5
				c0.2-0.3,0.3-0.4,0.4-0.4c0.1-0.6,0.2-1.1,0.3-1.4l0.2-0.5l0.4-0.4l0.4-2.3c0.1-0.2,0.2-0.4,0.3-0.5c0.2-0.7,0.3-1.4,0.5-2
				l0.1-0.4l0.2-0.4c-0.1,0-0.1-0.2,0-0.6c0-0.1,0.1-0.2,0.2-0.2c0.1-0.5,0.2-1,0.3-1.4c0.1-0.5,0.3-0.9,0.3-1.4
				c0.1-0.1,0.2-0.3,0.3-0.6c0.1-0.2,0-0.3,0-0.4c0-0.1,0.1-0.2,0.2-0.3c0.3-1.9-0.2-3-1.3-3.6c-0.5-0.1-0.9-0.2-1.4-0.4
				c-0.5-0.1-0.9-0.1-1.4-0.1c0,0,0,0.1-0.1,0.1c-0.1,0-0.2,0-0.3,0c-0.5,0.1-0.8,0.2-0.9,0.4v0.3c0.3,0.7,0.4,1.4,0.3,2.1
				c-0.3,0.8-0.4,1.7-0.4,2.6c0,0.1-0.1,0.2-0.2,0.3c0,0.8-0.1,1.6-0.4,2.4v0.4c-0.1,0-0.1,0-0.1,0.1c-0.2,1.6-0.5,3.2-0.9,4.8
				c-0.7,3.2-1,4.9-1.1,5.1l-0.1,0.1l-0.2,0.9c-0.4,1.2-1,2.4-1.8,3.4c0.6,0.8,1.5,1.3,2.5,1.4c0.5-0.2,1.1-0.3,1.7-0.4
				c0.1-0.5,1.3-1.1,3.5-1.8c1.4-0.7,2.9-1.3,4.5-1.8c1-0.5,2-1,2.9-1.7c0.4-0.3,0.9-0.5,1.3-0.7l0.4,0.1c-0.6,1.1-1.2,2.3-1.7,3.5
				h0.1c-0.3,0.9-0.1,1.4,0.5,1.4h0.1l0.2-0.1c0.2,0.1,0.3,0.2,0.3,0.2c0.1-0.1,0.2-0.1,0.3-0.2c0.8-1.2,1.3-1.8,1.6-1.9
				c1.1-0.8,2.2-1.7,3-2.8c0.4-0.2,0.9-0.4,1.3-0.4c0.6-0.1,1.1-0.3,1.7-0.5c1.1-0.4,2.6-0.9,4.4-1.4c0.3,0,0.4,0.5,0.4,1.6
				c0.3,2.9,0.6,4.6,1.1,5.1c0.2,0.8,1,1.3,1.8,1.2l0.1-0.3c0-0.8-0.1-1.2-0.3-1.2c0.1-0.7,0.2-1.3,0.1-2l0.3-0.6v-1.1l0.2-0.5
				c0.2-0.6,0.2-1.1,0.2-1.7c0-0.1,0.1-0.2,0.2-0.2v-0.4l0.1-0.3c0-0.1,0.1-0.1,0.2-0.1c0.1-0.4,0.1-0.8,0.1-1.2
				c0.4-0.5,1-0.9,1.6-1.1l-0.1-0.2v-0.1c0.4-0.1,0.7-0.3,1.1-0.5c0.9-0.3,1.6-0.5,2.2-0.7c-0.6,1.6-1.2,3.5-2,5.9
				c-0.3,0.9-0.2,2,0.3,2.8c0.6,0.1,0.9,0.2,0.8,0.3c0.3-0.1,0.5-0.1,0.6-0.2L76.7,189.9z M136.6,168.6c0.6-0.9,1.3-1.7,2.1-2.4
				l0.2,0.1c-0.6,0.7-1.2,1.4-1.9,2c-0.6,0.9-1,1.4-1.3,1.4C135.9,169.3,136.2,168.9,136.6,168.6z M104.5,178.5c0,0,0.4-0.2,1.1-0.5
				c0.8-0.2,1.5-0.5,2.2-0.9c1.7-0.8,3.4-1.4,5.1-2h0.1l-0.5,0.3c-0.7,0.2-1.5,0.5-2.1,0.9c-1.3,0.6-2.6,1.2-3.9,2v0.1l0.1,0.2
				l0.2-0.1c0.3-0.4,0.7-0.7,1.2-0.7c0.6-0.3,1.3-0.6,2-0.8c0.9-0.3,1.7-0.6,2.5-1c1.4-0.5,2.8-0.9,4.3-1.2c0.1,0,0.2,0,0.3,0
				c0,0,0.1-0.1,0.3-0.1h0.2c0.8-0.1,1.1,0.4,0.8,1.4c-0.3,1-1.6,2.3-4,4c-0.5,0.3-1,0.6-1.5,1c-2.9,1.7-5.2,2.6-6.8,2.7
				c-1.1,0-1.7-1.5-1.9-4.5l0.1-0.1c-0.1,0-0.1-0.1-0.1-0.2C104.4,178.8,104.5,178.6,104.5,178.5z M100.7,181c0,0.8,0.3,1.7,0.8,2.3
				v0.1h-0.1c-0.2-0.1-0.2-0.1-0.2-0.2c-0.5,0-0.7-0.6-0.7-2C100.5,181.1,100.6,181,100.7,181z M68,181l-0.1,0.1l-0.1,1.5
				c0,0.1-1.2,0.5-3.4,1.1l-0.2-0.1c0.7-1,1.6-2,2.4-2.8c0.4-0.6,0.8-1.2,1.4-1.7h0.1C68,179.7,68,180.4,68,181z"/>
			<path d="M214.8,118c-3.4-0.1-6.9,0-10.3,0c-4,0-7.9,0-11.9,0c-3.5,0-8.4-0.3-9.2,2.9c-1,3.8-0.2,8.6-0.2,12.4v23.5
				c0.2-0.1,0.4,0.5,0.4,0.5l0.3-0.3l1.8-1.4l0.6,0.2c0.5-0.1,1.3-0.3,2.8-0.8l13.1-3.8l4.9-0.9l-0.2,1.4h0.3l-0.5,1.9
				c2.8,0,5.6-0.3,6.8-1.9s0.8-5,0.5-6.8c-0.3-1.6-0.9-2.1-2.9-2.5c-3.1-0.5-6.6,0.5-9.7-0.2c-3.5-0.8-2.6-4.9-2.5-7.1
				c0-1.3,0-2.6,0.1-3.8c0.2-2,1.5-2.3,3.8-2.5c1.7-0.1,3.5-0.1,5.3-0.1c3.5,0,10.3,0.9,11.6-2.5c0,0,0.1-0.1,0.1-0.2
				c0.2-1.8,1-5.2-0.4-6.8C218.2,118.1,216.3,118.1,214.8,118z"/>
			<path d="M172.1,144.9c1-4.7,0.4-10.2,0.1-14.9c-0.2-4.3-2.7-8-7.9-10c-4.8-1.8-10.2-1.8-15.4-1.8c-4.3,0-9.4-0.7-13.5,0.4
				c-4.3,1.2-2.9,6.8-2.9,9.8v35.8c0.4,0.4,0.4,1,0.3,1.5l-0.1,0.3c0,0.1-0.1,0.3-0.2,0.4v1.1c0.3-0.4,0.8-0.9,1.3-1.5
				c0.4-0.5,0.9-1,1.4-1.5h-0.4l3.8-3.7c0.8-0.8,1.8-1.5,2.8-2.1c1.2-0.8,2.5-1.3,3.9-1.6h0.2l2.6-0.2c1.1-0.7,2.5-0.4,3.4,0.5
				c0.2,0.3,0.4,0.6,0.5,1c1.2,0.1,2.3,0.8,3,1.8c0.4,0.5,0.6,1.1,0.8,1.7c0.2,0.4,0.4,0.7,0.6,1.1c0.6,0.7,0.6,1.5,0.2,3.2h1
				c1.7-0.9,3.4-2,5.1-3.1l0.2-0.2l0.3-0.1l0,0c0,0,0.3-0.1,1.5-0.8l0.2-0.1l0.2-0.1c1.6-0.6,3.3-1.1,5-1.5
				c-0.3-0.8-0.6-1.6-0.9-2.4c-0.6-1.8-1.8-4-1.4-5.9C168.3,149.5,171.5,147.7,172.1,144.9z M156.6,140.3c0.1,1.2-0.3,2.4-1,3.4
				c-2.1,2.4-6,2-6.6-0.7c0-0.3,0-0.6,0-0.9c-0.2-3.6-0.9-7.9-0.1-11.4c0.3-1.5,0.4-1.4,2.4-1.1c3.4,0.5,4.9,1.6,5.3,4.3
				C156.6,136,156.6,138.2,156.6,140.3z"/>
			<path d="M105,160c0,1.6,0,3.6-1,5.1c-0.3,0.5-0.8,0.9-1.3,1.2h0.2l0.7,0.6c0.4,0.4,0.7,0.9,0.9,1.4l0.9-0.6l0.3-0.1
				c0,0,0.3-0.1,1.5-0.8l0.2-0.1l0.2-0.1c2.1-0.8,4.2-1.4,6.4-1.7c0.2,0,0.5,0,0.8,0c1.2,0,2.5,0.1,3.7,0.3h0.3l2,0.7
				c0.3-1.2,0.5-2.4,0.4-3.6v-37.2c0-3,0.9-6.4-4-6.8c-2.9-0.2-7.1-0.5-9.9,0.5c-2.3,0.8-2.4,2-2.5,3.9c-0.2,7.6,0,15.2,0,22.8v12.4
				C105,158.6,105,159.3,105,160z"/>
			<path d="M90.5,171.6l-1.6,3.1c-0.1,0.3-0.3,0.7-0.5,1c0.8,0.4,1.7,0.8,2.6,1.1c0.6-0.9,1.2-1.9,1.8-3l0.1-0.1l0.1-0.1
				c1.3-1.7,2.4-3.5,3.3-5.4c0.4-0.8,1-1.5,1.8-1.9l0.5-0.3l0.6-0.1c-1-0.7-1.7-1.7-2.1-2.8c-0.7-2.9-0.2-6.6-0.2-9.6v-27.5
				c0-2.5,1.2-6.7-2.3-7.7c-2.5-0.7-6.6-0.4-9.2,0s-4.3,0.9-4.7,3c-0.5,2.6-0.1,5.5-0.1,8.1V160c-0.1,2.9,0.3,5.8,1.2,8.6
				c0.2,0,0.3,0,0.5,0.1c0.5-0.2,1-0.4,1.6-0.4l1.3-0.1l0.9,0.1l1.7-0.1l0.8,0.8c0.5,0.1,1,0.4,1.3,0.7l0.8,0.8l-0.3,1L90.5,171.6z"
				/>
			<path d="M198.5,172.7l-0.2,0.1l-0.2,0.1c-2.7,1.2-4.7,2.2-6,2.9c-1.9,1.1-3.4,2-4.6,2.7c2.8,0.2,5.6,0,8.3-0.6
				c3.2-0.9,3-3,2.9-5.3L198.5,172.7z"/>
			<path d="M40.7,175.6l-0.3-0.9l0.4-0.4c0.1-0.7,0.2-1.3,0.4-2c0-0.4,0-0.8-0.2-1.1l-0.2-0.3V170l0.1-0.2c0.3-0.7,0.9-1.3,1.6-1.6
				l0.1-0.4h1.6h0.2h0.1h0.1c0.9-0.1,1.9,0.1,2.8,0.4l0.7,0.2l0.3,0.1l0.3,0.1c1.4,0.7,3,2.1,2.5,5.4l-0.1,0.6l0,0
				c0,0.1,0,0.2-0.1,0.3c-0.1,0.2-0.2,0.5-0.3,0.7c0,0.2-0.1,0.4-0.1,0.6l1.2-0.1l-0.9,1.5c3,0,5.9-0.5,8.7-1.4
				c0.4-0.2,0.8-0.4,1.2-0.6l4.4-5.7c0.5-0.8,1-1.7,1.4-2.6l0.2-0.6l0.2-0.3c0.6-0.7,1.4-1.2,2.3-1.4c1.3-9.6-5-15.6-13.7-21.6
				c-4.1-2.9-8.9-6-9.6-10.6c-0.3-2,0.8-7.4,4.7-4.5c1.5,1.1,1.5,2.4,2.4,3.7c2.2,3,8.8,1.4,12.1,0.5c4.3-1.1,4.2-3,2.9-6.2
				c-2.9-6.9-10.8-10.3-19.9-9.7c-10.2,0.7-18.5,5.7-19.4,14c-0.8,7.9,4.8,13.4,11.5,18.5l7.1,5.5c1.8,1.3,3.8,2.7,4.8,4.5
				c1.3,2.4,1.3,6.6-2.6,7c-6.2,0.6-3.4-6.4-7.9-7.6c-2.9-0.8-9.4,0-11.9,1.1c-4.3,1.9-0.7,7.8,0.9,10.2c2.2,3.3,5.6,5.7,9.5,6.7
				C40.6,176.3,40.7,175.9,40.7,175.6z"/>
			<path d="M203.5,164.8c-1,0.2-1.9,0.6-2.9,1c-2.2,0.9-3.9,1.6-4.9,2.1c-2.7,1.1-5.3,2.4-7.9,3.8c-1.2,0.6-2.4,1.2-3.6,1.9
				c-0.4,0.4-0.9,0.6-1.5,0.8l0.2-0.3c0-0.2,0-0.4,0-0.5c0.2-0.5,0.5-0.9,0.8-1.3l0.1-0.2v-0.3h0.1c0.3-0.7,0.6-1.4,1-2
				c1-0.4,2-0.8,3-1.3c0.7-0.2,1.3-0.5,1.9-0.9c0.7-0.3,1.3-0.6,1.9-0.9c0.5-0.2,1.4-0.7,2.6-1.4c0.6-0.7,1.1-1.1,1.3-1.1
				c0.1-0.3,0.5-0.7,1.3-1.2c0.5-0.5,1-0.9,1.5-1.3v-0.1c-0.1-0.4-0.5-0.7-0.9-0.6c-1,0.3-2,0.7-3,1.1c-3.9,1.6-6.2,2.6-7,2.8
				c0.2-0.7,0.5-1.3,0.8-1.9l0.1-0.3c0-0.3,0.1-0.5,0.1-0.8c0.1-0.2,0.3-0.5,0.5-0.6c0.8-0.3,1.6-0.6,2.3-1c1.6-0.6,3.1-1.1,4.6-1.8
				c0.7-0.3,1.4-0.7,2.1-1.2c0.5-0.1,0.9-0.4,1.2-0.8c0.5-0.3,1-0.6,1.5-0.9c0.8-0.2,1.6-0.7,2.3-1.2c0.2-0.4,0.4-0.6,0.6-0.6v-0.1
				h-0.1c-0.2,0.1-0.5,0.2-0.7,0.2h-0.1c0-0.1,0.2-0.2,0.6-0.4v-0.1l-0.6,0.1l-12.9,3.9c-1.3,0.5-2.6,0.8-4,1h-0.2l-0.2,0.1
				c-0.7,0.5-1.4,0.9-2.2,1.2c-3.2,1-4.9,2-5.1,2.7c-0.1,0.2,0.2,0.5,0.9,0.8c0.9,0.3,1.8,0.4,2.8,0.3c0.4-0.2,0.8-0.3,1.2-0.4h0.2
				c-0.6,1.2-1.2,2.4-1.7,3.7c-0.1,0.3-0.4,0.6-1,0.7c-2.1,0.7-3.2,1.4-3.4,1.9l0.3,0.4c-0.3-0.4-0.7-0.6-1.2-0.7
				c0.1-0.3-0.8-0.4-2.6-0.3c-3,0.7-5.9,1.7-8.6,3c-1.1,0.6-2.3,1.1-3.5,1.6h-0.1c0.1-0.3,0.1-0.6,0.1-0.9c0.2-0.4,0.4-0.8,0.5-1.2
				c-0.1,0-0.1,0-0.1-0.1c1.6-2.5,2.8-3.9,3.6-4.1c0.7-0.5,1.6-1.1,2.5-1.6c1-0.6,2.1-1,3.3-1.2c1.2-0.1,2.4-0.1,3.6,0
				c-0.1,0.2-0.2,0.4-0.4,0.6c0,0.1,0.1,0.2,0.3,0.2c0.2-0.1,0.4-0.1,0.6-0.2c0.2,0,0.3,0,0.4,0.1c0.4-0.2,0.8-0.3,1.2-0.6
				c0.2-0.7,0.1-1.1-0.2-1.4l-1.8-0.6c-1.2-0.2-2.5-0.3-3.8-0.3c-1.9,0.3-3.8,0.8-5.5,1.6c-1,0.6-1.7,0.9-1.9,1
				c-3.1,2.1-4.6,3.3-4.7,3.6c-1.7,1.5-3.1,3.3-3.9,5.4c-1.5,0.3-2.6,0.5-3.3,0.7h-0.5c0-0.1,0-0.2,0-0.3l0.2-0.3c0-0.2,0-0.4,0-0.7
				v-0.1l0.4-0.4H152c0.5-2.3,0.8-3.6,0.9-4l0.2-0.4c-0.1,0,0-0.4,0.1-1.1c0.1,0,0.1,0,0.1-0.1c0-0.1,0-0.2,0-0.4
				c0.5-1.9,0.6-2.9,0.3-2.8c-0.2-0.5-0.5-1.1-0.8-1.6c-0.2-0.9-0.3-1.3-0.5-1.3c-0.4-0.8-1.2-1.2-2.1-1c-0.7,0-1.3,0.3-1.8,0.7
				l-0.1,0.4c-0.5,1.1-1,2.1-1.6,3.1l-8.7,11.9c-1,1.7-1.7,2.6-2,2.6c-1.7,0.3-2.6,0.5-2.7,0.8c-0.2,0.7,0.3,1.3,1.4,1.7
				c-0.7,1.1-1.3,2.3-1.8,3.5h0.1c-0.3,0.9-0.1,1.4,0.5,1.4h0.1l0.2-0.1c0.2,0.1,0.3,0.2,0.3,0.2s0.2-0.1,0.3-0.2
				c0.8-1.2,1.4-1.8,1.6-1.9c1.1-0.8,2.2-1.7,3-2.8c0.4-0.2,0.9-0.4,1.4-0.4c0.6-0.1,1.1-0.3,1.7-0.5c1.1-0.4,2.6-0.9,4.4-1.4
				c0.3,0,0.4,0.5,0.4,1.6c0.2,2.9,0.6,4.6,1.1,5.1c0.2,0.8,1,1.3,1.8,1.2l0.1-0.3c0-0.8-0.1-1.2-0.3-1.2c0.1-0.7,0.2-1.4,0.1-2.1
				l0.3-0.6l-0.1-1.1l0.2-0.5c0.2-0.6,0.2-1.1,0.2-1.7c0-0.1,0.1-0.2,0.2-0.2V179l0.1-0.3c0-0.1,0.1-0.1,0.2-0.1
				c0.1-0.4,0.1-0.8,0.1-1.2c0.5-0.5,1.1-0.9,1.7-1.1l-0.1-0.2V176c0.4-0.1,0.7-0.3,1.1-0.5l1.2-0.4c-0.3,1.5,0.3,3,1.6,3.9
				c0.7,0.7,1.5,1.2,2.4,1.5c1.6,0.3,3.2,0.5,4.8,0.5c2-0.3,3.9-0.8,5.7-1.5c0.6-0.5,1.2-0.9,1.9-1.1h0.3c0.1-0.3,0.6-0.7,1.5-1.2
				c1.8-1.2,3.5-2.6,5-4.2l0.1-0.2c-0.1,0-0.2,0.1-0.4,0.3h-0.2l0.7-1.1c-0.1,0-0.1,0-0.1-0.1l0.1-0.4c0-0.5,0-0.9-0.1-1.4
				c0.6,0.1,1.3,0.3,1.9,0.5l-0.2,0.7l-0.1,0.1h0.1c-0.4,1-0.8,2.1-1.1,3.2v0.3c-0.1,0-0.1,0-0.1,0.1c0,0.1,0,0.1,0,0.2l-0.2,0.3
				v0.3l-0.2,0.4c-0.3,1.5-0.3,2.3-0.1,2.2c-0.1,0.2,0.1,0.3,0.5,0.3c0.2,0.3,0.4,0.5,0.5,0.5c0.2,0.3,0.6,0.4,0.9,0.4l0.6-0.1
				c0.1,0,0.2,0,0.3,0c0.9-0.4,1.7-0.9,2.4-1.5c1.2-0.6,3.7-2,7.4-4.3c1.3-0.8,3.4-1.9,6.2-3.2c1.4-0.9,2.8-1.7,4.3-2.5
				c0.7-0.6,1.5-1.1,2.3-1.5c0,0,0.4-0.4,1.2-1c1.1-0.4,1.7-0.9,1.8-1.4l-0.3-0.4C204.5,164.3,203.6,164.6,203.5,164.8z
				 M147.4,174.3l-0.1,0.1l-0.1,1.5c-1.1,0.5-2.2,0.9-3.4,1.1l-0.2-0.1c0.7-1,1.6-2,2.4-2.8c0.4-0.6,0.8-1.2,1.4-1.8h0.1
				C147.4,173.1,147.3,173.7,147.4,174.3L147.4,174.3z M158.8,178.6h-0.1c-0.2-0.1-0.2-0.1-0.2-0.2c-0.5,0-0.7-0.6-0.7-2
				c0-0.1,0.1-0.2,0.3-0.2C158,177,158.3,177.8,158.8,178.6L158.8,178.6z M175.7,171.1c-0.3,0.9-1.6,2.3-4,4
				c-0.5,0.3-1.1,0.7-1.5,1.1c-2.9,1.7-5.2,2.6-6.8,2.7c-1.1,0-1.7-1.5-1.9-4.5l0.1-0.1c-0.1,0-0.1,0-0.1-0.2
				c0.1-0.1,0.2-0.3,0.2-0.4c0,0,0.4-0.2,1.1-0.5c0.8-0.2,1.5-0.5,2.2-0.9c1.7-0.8,3.4-1.4,5.1-2h0.1l-0.5,0.3
				c-0.7,0.2-1.5,0.5-2.1,0.9c-1.3,0.6-2.6,1.2-3.9,2v0.1l0.1,0.2l0.2-0.1c0.3-0.4,0.7-0.7,1.2-0.7c0.6-0.3,1.3-0.6,2-0.8
				c0.9-0.2,1.7-0.6,2.5-1c1.4-0.5,2.8-0.9,4.3-1.2c0.1,0,0.2,0,0.3,0c0,0,0.1-0.1,0.3-0.2h0.2C175.8,169.7,176,170.2,175.7,171.1z
				 M195.7,168.6c-1,0.5-1.8,0.8-2.4,1.1h-0.2c1.1-0.6,2.2-1.1,3.3-1.5C196.3,168.4,196,168.5,195.7,168.6z M202.9,165.7
				c-2.2,0.9-4.2,1.7-6.1,2.4c0,0,0-0.1-0.2-0.1v-0.1c0.5-0.2,1-0.4,1.5-0.6c0.5-0.3,1.1-0.6,1.7-0.8c0.6-0.3,1.2-0.5,1.8-0.7
				c0.8-0.4,1.7-0.8,2.5-1h0.1C203.7,165.1,203.3,165.4,202.9,165.7z"/>
			<path d="M191.5,110.1l-4.8-8.5c-0.1-0.2-0.4-0.4-0.6-0.4c-0.1,0-3.7-0.6-8.6-1.2l-1.4-0.3c-1-0.2-1.5-1.3-1.6-2.3
				c0-0.7-0.3-1.5-0.7-2.1c-0.9-1.2-1.5-2.5-1.8-4c-0.2-1.3-0.5-2.5-0.9-3.7c-1.2-3.7-2.5-7.3-3.7-10.9c-1-3.1-1.9-6.3-4.8-8.3
				c-0.1,0-0.1-0.1-0.1-0.2c-0.1-0.4-0.2-0.8-0.1-1.1c0.3-0.6,0.8-1.2,1.2-1.8c1.1-1.8,1.1-4,0.1-5.8c-0.6-1.2-2.8-2.8-4-2.4
				c-1.5,0.3-2.7,1.3-3.2,2.7c-0.3,1.1-0.5,2.2-0.8,3.5c0,0.1-0.1,0.2-0.2,0.2c0,0,0,0,0,0c-0.9-0.2-1.8-0.5-2.8-0.8
				c-1-0.3-1.9-0.6-2.9-0.7c-2.2,0-4.3,0.2-6.5,0.2c-1.4,0-2.9,0.1-4.3,0c-4.3-0.3-8.7-0.6-13-0.9c-0.9,0-1.9-0.2-2.7-0.6
				c-1.1-0.6-2.3-0.8-3.6-0.6c-0.5,0-1-0.1-1.4-0.3l-0.1-0.1c-0.7-3-0.9-6-0.6-9c0-0.2,0.1-0.5,0.1-0.7c0.8-7,4.6-13.5,10.5-16.7
				c3.7-2.2,7.8-3.6,12-4.2c1.2-0.2,2.4-0.4,3.6-0.4c0.8-0.1,2.1,0.2,0.7-0.9s-12.9,1.3-16.9,3.4c-5.4,2.8-9.5,7.5-11.5,13.3
				c0,0.1-0.1,0.1-0.1,0.1c-0.1,0-0.1-0.1-0.1-0.1c-0.5-5.9,0.5-11.9,2.7-17.4c0.1-0.2,0-0.5-0.3-0.6c-0.2-0.1-0.4,0-0.5,0.1
				c-1.7,2.1-8.4,14.8-6.1,28.7c1.8,10.8,7.9,18.5,7.5,18.7s-3.9-4.5-5.6-7.3c-1-1.8-1.9-3.6-2.8-5.5c-3.5-8-4.1-17-1.7-25.4
				c2.1-7.8,3.2-12.2,10.9-20.2c0.2-0.2,0.1-0.5,0-0.6c-0.1-0.1-0.3-0.1-0.4-0.1c-3.9,1.2-8.8,5.7-11.4,9.2c-4.3,6-6.9,13-7.7,20.3
				c-0.8,8-0.4,11.7,0.7,19.8c0.1,0.5-1.4-2.5-1.6-3.2c-1.1-3.4-3.1-10-2.3-22.4c0.5-6.4,2.1-12.7,4.6-18.6c0.1-0.2,0-0.5-0.3-0.6
				c-0.1,0-0.3,0-0.4,0.1c-6.3,4.5-10.2,13.2-11.2,26.3c-0.5-2.3-0.9-4.7-1-7.1c0-11.1,1.9-20.5,10.1-28.2c0.2-0.2,0.4-0.3,0.6-0.4
				c0.1-0.1,0.1-0.2,0.1-0.3c-0.4-0.7-1.3-0.6-1.8-1.1s-0.7-0.8-0.4-1.4s0.5-0.9,1.2-0.8c2.4,0.1,3.7-0.7,4.4-2.9
				c0.1-0.2-0.1-0.5-0.3-0.5c-0.1,0-0.2,0-0.3,0c-3.4,1.5-6.6,3.5-9.4,6c-5.1,4.7-9,10.6-11.1,17.3c-3.4,9.9-4.2,20.5-2.2,30.8
				c2.4,11.9,8.2,20.8,19.8,34.4c0.1,0.1,0.1,0.2,0,0.3s-0.2,0.1-0.3,0l0,0c-4.9-5-18.2-16.5-22.3-25.4c-1.7-3.7-3.2-6.7-4.4-9.3
				l0,0c-0.3-1.1-0.4-2.3-0.8-3.4s-0.7-0.6-0.5-1.7s-1.3-7.9-1.4-8.3s-0.1-0.4-0.2-0.6c0.1-1.3,0-2.7-0.1-4l0,0c0-0.5-0.1-2-0.1-2.4
				c0.1-1.2,0.3-2.5,0.6-3.7c0,0,0,0,0-0.1c0.6-1.2,1.4-2.2,2.4-3.1c1-0.9,1.5-2.2,1.3-3.6c0.1-0.5,0.2-3.7,0.6-4.8l0,0
				c0.8-1.8,2.1-3.3,3.7-4.4c0.3-0.3,0.6-0.5,1-0.7c-0.3,1.7,0,3.5,1,5c0.8,1.3,1.4,2.3,1.4,2.2c0.2-0.8,0.5-1.6,0.8-2.3
				c-2.4-3.1-1.8-4.6-0.5-6c0.2-0.3,0.2-0.7-0.1-0.9c-0.1-0.1-0.3-0.2-0.5-0.1c-2,0.1-3.8,0.8-5.3,2.1c-0.4,0.3-0.8,0.7-1.2,1.1
				c-1.8,2-2.8,4.6-2.9,7.3v0.2c0,0.6,0,1.2,0.1,1.7c0.1,0.5,0.3,0.9-0.3,1.4c-3.3,2.5-4.7,6.7-3.7,10.7v0.2c0,0,0-0.1,0-0.1
				s0.2,0.5,0.3,0.9l0,0c-0.1-0.2-0.1-0.5-0.2-0.8c0.1,0.2,0.2,0.5,0.2,0.8c0.3,1.1,0.2,0.6,0,0c0,0.2,0,0.4,0,0.6
				c-0.1,1.3-0.2,3.9-0.3,4.2l0,0c0.4,7.7,2.4,15.2,5.7,22.1c6.2,12.7,16.2,21.2,23.2,25.9c0.1,0.1,0.1,0.2,0.1,0.3
				c-0.1,0.1-0.2,0.1-0.3,0.1c-4.5-2-13.3-5.4-19.5-9.9c-1-0.7-1.3-1-1.8-1c-0.1,0-4-3.8-4.3-6.3c0-0.9-0.7-1.7-1.6-1.7
				c-0.1,0-0.2,0-0.2,0c-2.6,0-4.8-1.8-5.4-4.3c-0.9-2.6-2.6-4.9-4.9-6.5c-3.1-2.2-4.8-5.9-4.5-9.7c0-2.4-0.7-4.8-2-6.8
				c-1.1-2.1-1.7-4.5-1.8-6.9l0.1,0.1c-0.2-0.8-0.2-1.6-0.2-2.4c0-0.1,0-0.3,0-0.5v0c0-0.2,0-0.3,0-0.5c0.1-0.6,0.6,0.2,1.5,1
				c2.7,2.1,5.7,3.8,8.9,4.9c1.6,0.5,3.2,0.7,4.9,0.8c0,0,0-0.1,0-0.2c0-0.2,0-0.4,0-0.6c0-0.3,0-0.7,0.1-1c-4.7-0.7-8.3-1.6-12.2-5
				c-1-0.7-1.8-1.6-2.5-2.7c-0.2-0.3-0.6-0.5-0.8-0.2c-1.1,1.2-1.7,2.8-1.6,4.5c-0.7,3-0.4,6.2,0.9,9c1.2,2.8,2,5.9,2.2,8.9
				c0.2,4,2.5,6.9,5.4,9.3c1.9,1.6,3.3,3.6,4.1,5.9c0.8,2.6,3.2,4.5,6,4.7h0.2l0.2,0.2c0.4,0,0.7,0.2,1.1,0.3l0,0
				c0.4,0.4,0.7,0.8,0.9,1.3c0.8,1.7,1.8,3.2,3.1,4.6l0,0C79.8,87,86.7,90.9,94,93.8c0.2,0.1,0.3,0.3,0.3,0.5
				c-0.1,0.2-0.3,0.3-0.5,0.3c-6.9-1-13.6-2.8-20.1-5.3c-3.4-1.4-6.7-2.9-9.9-4.4c-4.3-2.1-6.1-5.6-10.3-8c-0.4-0.2-0.8-0.3-1.2-0.5
				c-0.5-0.4-1-0.8-1.5-1.2c-0.5-0.4,0.6-0.3,1.7-0.5c2.6-0.5,5.1-1.4,7.4-2.5c-0.3-0.5-0.6-1.1-0.7-1.7c-2,1.2-4.2,1.9-6.5,2.3
				c-1.2,0.3-2.5,0.4-3.7,0.2c-0.4-0.1-0.7,0.1-0.6,0.5c0.1,0.5,0.3,1.1,0.5,1.6c0.6,1.7,2.8,3.7,6,5.2c0.5,0.3,1,0.7,1.3,1.2
				c1.8,2.7,4.7,4.7,8.1,6.3c0.7,0.4,1.3,0.7,2,1.1c0.1,0.1,0.2,0.1,0.3,0.2c0.7,0.3,1.4,0.6,2.1,0.9c4.1,1.7,20.2,7.6,30.3,10.8
				c-6.9-1.1-13.8-1.8-20.7-1.9c-9.8,0-24.3,2.5-24.4,2.5c-0.3,0-0.5,0.2-0.7,0.4l-4.8,8.5c-0.2,0.3-0.1,0.7,0.2,1
				c0.2,0.2,0.4,0.3,0.7,0.3c0.1,0,0.3,0,0.4-0.1c0.1-0.1,11.8-5.1,28.6-5.1c10.4,0,20.7,1.4,30.7,4c0.4,0.1,0.8,0,1-0.3
				c0,0,2.7-3.5,9.8-3.5s9.7,3.4,9.8,3.5c0.2,0.3,0.6,0.4,1,0.3c10-2.6,20.4-4,30.7-4c16.8,0,28.5,5.1,28.6,5.1
				c0.1,0.1,0.3,0.1,0.4,0.1c0.2,0,0.5-0.1,0.7-0.3C191.6,110.9,191.7,110.5,191.5,110.1z M157.4,95c-1.8-0.8-3.6-1.5-5.4-2.2
				c-0.6-0.2-1-0.8-0.9-1.5c0-0.7,0.4-1.4,1.1-1.6l3.8-1.2c0.1,0,0.2,0,0.2,0.1c0,0,0,0,0,0c0.4,2.1,1.8,3.8,1.4,6.1
				C157.7,95,157.6,95,157.4,95C157.4,95,157.4,95,157.4,95z M154.7,76.5l4.7-2.5c0.1,0,0.2,0,0.2,0c0.7,0.6,1.3,1.3,1.8,2
				c2,3.4,3.6,6.9,5.6,10.3c0.7,1.2,1.6,3.1,2.2,4.3c0.7,1,1.1,2.2,1.4,3.4c0,1.3-0.1,2.6-0.3,3.9c0,0.1-0.1,0.2-0.2,0.2l-1.1-0.2
				c-1.3-0.2-2.7-0.4-3.6-1.6c-0.4-0.4-0.9-0.8-1.4-1c-1.6-0.7-2.8-2.2-3.1-4c-0.2-0.8-0.3-1.7-0.5-2.5c-0.2-1.2-0.2-2.2,1.1-2.8
				c0.3-0.2,0.6-0.5,0.9-0.8c1.2-1.2,1.2-2.2-0.2-3.2c-2.4-1.7-4.9-3.3-7.5-5.2C154.6,76.7,154.6,76.6,154.7,76.5
				C154.6,76.5,154.7,76.5,154.7,76.5L154.7,76.5z M119,63.5c-0.2-0.4-0.3-0.8-0.3-1.3c0.5,0.2,1.3,0.2,1.4,0.3
				c0.3,0.7,0.8,0.6,1.4,0.6c0.8,0,1.6-0.2,2.4-0.2c0.3-0.1,0.6-0.1,0.9,0c1.2,0.3,2.3,0.7,3.4,1c2.4,0.7,4.7,1.5,7.1,2.1
				c2.1,0.5,4.2,0.7,6.3,1.1c0.8,0.2,1.6,0.4,2.7,0.6l-0.8,0.7c-1.8,1.6-3.8,3-5.4,4.8c-2,2.2-1.9,5.5,0.3,7.5
				c0.6,0.5,1.3,0.9,2,1.2c2.9,1,5.8,1.9,8.7,2.8c0.7,0.2,1.5,0.4,2.2,0.7c0.1,0,0.2,0,0.2-0.1c0.5-0.8,0.9-1.5,2.2-0.8
				c-2.5,2-5.3,3.8-8.2,5.2c-0.1,0-0.1,0-0.2,0c-1.1-0.6-2.2-1.1-3.2-1.7c-2.8-1.7-5.8-3.2-8.4-5.1c-1.3-1-4-3-4-3
				c-0.6-0.7-2-1.9-1.5-1.6C125.5,74.7,120.5,67.7,119,63.5z M118.7,81.8c3.1,3,6.5,5.7,10.1,8.1c7.7,4.8,16.3,8,25.2,9.2
				c-1.1,0.1-2.3,0.2-3.4,0.3c-20.5-2.2-38.1-15.7-45.4-35C108.8,70.8,113.4,76.7,118.7,81.8L118.7,81.8z M95.7,76.5
				c-9.1-12.1-9.6-26.2-8.9-26.3c0.5,1.1,0.8,2.2,1.1,3.4l0,0c2.1,7.9,5.8,15.3,10.8,21.8c4.2,5.3,9.3,9.9,15.1,13.5l0,0
				c1.3,0.7,8.3,4.5,8.2,4.7C121.7,94.2,105.8,90,95.7,76.5L95.7,76.5z M161.7,104.5c-10.3,0-20.6,1.4-30.7,3.9
				c-1.1-1.1-4.4-3.7-10.9-3.7s-9.8,2.6-10.9,3.7c-10-2.6-20.3-3.9-30.7-3.9c-9.2,0-18.4,1.4-27.1,4.4l3.4-6.1
				c2.5-0.4,15-2.4,23.6-2.4c12.9,0,29.1,3.4,29.3,3.5c0.3,0.1,0.6,0,0.8-0.2c0.1,0,4.2-3.1,11.5-3.1s11.5,3.1,11.5,3.1
				c0.2,0.2,0.5,0.2,0.8,0.2c0.2,0,16.4-3.5,29.3-3.5c8.6,0,21.1,2,23.6,2.4l3.4,6.1C180,105.9,170.9,104.4,161.7,104.5L161.7,104.5
				z"/>
			<path d="M133.4,6c1.1,0.6,2.1,1.3,3,2.2c1.8,1.5,3.8,2.8,6,3.9c2.7,1.3,3.8,3.9,4.1,6.7c0.1,1.4,1,2.7,2.3,3.4
				c3.4,1.8,4.7,5,4.8,8.7c0,0.7-0.8,0.6-1.6-0.5c-2.1-4.5-5.1-5.8-9.2-7c-2.9-0.9-6-0.9-8.8,0.1c-2.4,0.9-6,3.9-5.6,4l1.7-1
				c6.7-3.9,17-2.2,20.8,3.7c0.9,1.5,1.6,3,2.1,4.7c0.1,0.3,0.4,0.4,0.7,0.3c0.1,0,0.2-0.1,0.3-0.2c1.3-2,1.8-4.5,1.3-6.9
				c-0.6-3.4-2.8-6.3-5.9-7.8c-0.5-0.2-0.9-0.3-1-1c-0.3-4.5-3-7.2-6.6-9.2c-2.8-1.5-4.6-4.2-7.3-5.8c-7.1-4.4-15.7-5.5-23.7-3
				c0,1.5,0.5,3.2-2,3.3c-0.9,0.2-1.4,1.1-1.2,2c0,0.1,0,0.1,0.1,0.2C116,2.4,124.6,1.4,133.4,6z"/>
			<path d="M141.5,8.1c1,0.1,2,0.2,3,0.2c2,0.1,11.9,1.7,16.8,4.7c2.3,1.2,4,3.2,4.8,5.6c0.1,0.8,0.8,1.3,1.6,1.2c0.1,0,0.1,0,0.2,0
				c2.1-0.3,4.2,0.8,5,2.8c1.1,2,2.8,3.6,4.8,4.7c2.8,1.4,4.6,4.2,4.9,7.3c0.3,1.9,1.2,3.8,2.5,5.2c1.4,2,2.4,4.4,2.7,6.9
				c0.2,0.9,0.1,1.9-0.4,2.7c-0.4,1.1-1.5,1.8-2.7,1.6c-1-0.2-1.7-1.2-1.5-2.2c0,0,0,0,0-0.1c0.2-2.3-0.8-4.6-2.7-6
				c-0.3-0.3-0.5-0.6-0.6-1c-1.8-4.9-6.2-7-10.2-9.5c-3.4-2.2-7.2-3.7-11.2-4.3c-1.2-0.1-1.6,1.5-0.3,1.6c7,0.4,12.8,4.5,18,9
				c2.1,1.8,2.9,4.8,4.9,6.8c0.4,0.4,0.3,1.5,0.3,2.3c0.1,2.2,1.5,4,3.2,4.1s3.2-1.2,3.9-3.2c1.1-3.4,0.2-6.5-1.4-9.4
				c-1.4-2.1-2.4-4.5-3-7c-0.7-3.2-2.9-5.3-5.6-6.9c-1.7-1-3-2.4-4-4.1c-1-2-3.2-3.2-5.4-3c-0.9,0.1-1.8-0.4-2.2-1.2
				c-5.5-8.2-21-11.1-24.9-9.6C140.5,7.8,141.1,8.1,141.5,8.1z"/>
			<polygon points="28.5,110.9 4.1,67.6 39.6,67.6 39.6,65.2 0,65.2 25.8,110.9 			"/>
			<polygon points="211.6,110.9 214.4,110.9 240.2,65.2 177.6,65.2 177.6,67.6 236.1,67.6 			"/>
			<polygon points="167.4,189.2 120.1,272.9 78.6,199.4 76.1,199.7 120.1,277.7 170.3,188.8 			"/>
			<polygon points="203.9,110.9 205.8,110.9 226.7,73.9 227.3,72.7 177.6,72.7 177.6,74.3 224.6,74.3 			"/>
			<polygon points="36.2,110.9 15.6,74.3 39.6,74.3 39.6,72.7 12.9,72.7 34.4,110.9 			"/>
			<polygon points="159.1,190.3 120.1,259.2 85.8,198.4 84.1,198.6 119.4,261.2 120.1,262.5 161,190 			"/>
		</g>
	</g>
</g>
</svg>
