<svg xmlns="http://www.w3.org/2000/svg" viewBox="0 0 240.2 277.7"><defs><style>.cls-1{opacity:0.7;}.cls-2{fill:#072249;}</style></defs><title>Asset 4</title><g id="Layer_2" data-name="Layer 2"><g id="Layer_1-2" data-name="Layer 1"><g class="cls-1"><path class="cls-2" d="M104.83,205.89a3,3,0,0,1-1,1.59c-1.08,1-1.53.92-3.12,1.11a4.87,4.87,0,0,1-2.31-.24,2.67,2.67,0,0,1-.89-.52,3.76,3.76,0,0,1-1-1.76c0-.25-.12-.68.37-.77.77-.14,1.32-.23,1.57-.25.46,0,.63,0,.77.39,0,0,0,.1.07.22a1.39,1.39,0,0,0,.24.47,1.29,1.29,0,0,0,1.43.47,1.35,1.35,0,0,0,1-1.11c0-1-.46-1.14-1.69-2l-2.11-1.37a3.11,3.11,0,0,1-1.52-2.93,3.41,3.41,0,0,1,2.81-2.73c3.5-.89,5.1.6,5.33,2,0,.2-.08.31-.32.4a8.46,8.46,0,0,1-1.85.38c-.29,0-.48,0-.57-.22s-.15-.25-.24-.42a1.24,1.24,0,0,0-2.19.41,1.75,1.75,0,0,0,.87,1.76c.45.39,2.29,1.32,2.88,1.78A3.15,3.15,0,0,1,104.83,205.89Z"/><path class="cls-2" d="M115.29,196.9a.59.59,0,0,1-.13.33,2.16,2.16,0,0,1-1,.2,2.87,2.87,0,0,0-1.3.3c-.29.21-.28.5-.3,1.17-.1,3-.14,4.6-.24,7.73,0,.63,0,1-.53,1.11s-1.22.12-1.79.14-.51-.4-.5-.92c.08-3.24.12-4.85.19-8,0-.58,0-.8-.2-1a2.25,2.25,0,0,0-1.21-.08l-.56,0c-.45,0-.65-.05-.67-.38a10.75,10.75,0,0,1,0-1.13.45.45,0,0,1,.15-.3,2.63,2.63,0,0,1,1-.17l5.88-.5c1.16-.1,1.21-.11,1.18.69A7.24,7.24,0,0,1,115.29,196.9Z"/><path class="cls-2" d="M123.61,206.57a1.33,1.33,0,0,1-.41.21c-2,.68-4,.58-5.21-.55a2.07,2.07,0,0,1-.42-.65,4.7,4.7,0,0,1-.22-1.49c.14-3.27.21-4.89.35-8,0-.41.07-.67.2-.76a8.17,8.17,0,0,1,2.18-.31c.65,0,.54.38.51,1-.15,2.93-.22,4.43-.38,7.45,0,.27,0,.5,0,.69a1,1,0,0,0,1.31.91c1.08-.21,1.3-1,1.35-1.83.18-3.12.27-4.66.44-7.67,0-.83.08-.85,1.31-1,.42,0,.81-.07,1.15-.08.54,0,.46.42.43.88-.21,3.28-.32,5-.54,8.37C125.63,204.78,124.92,205.72,123.61,206.57Z"/><path class="cls-2" d="M136.88,196.3c-.22,2.54-.34,3.84-.57,6.45a3,3,0,0,1-.76,1.73c-1.63,1.8-2.48,1.56-6.77,1.91h-.1a.84.84,0,0,1-.46-.06c-.18-.13-.17-.35-.12-1,.3-4.16.45-6.23.73-10.22,0-.25.06-.46.07-.6.1-.41.64-.42,1.1-.46l3.45-.31a3.23,3.23,0,0,1,2.17.46C136.72,195,137,195.52,136.88,196.3Zm-2.87.8a2.81,2.81,0,0,0,0-.46c0-.57-.44-.82-1.2-.8-.91,0-1.22.21-1.25.84-.19,2.54-.29,3.84-.5,6.44,0,.43-.08.79.36.89.88.18,2-.37,2.09-1.07C133.72,200.58,133.82,199.41,134,197.1Z"/><path class="cls-2" d="M148.4,192.76c.12.15,0,.34-.13.63-1.07,2-2.22,4-3.45,6.5a1.88,1.88,0,0,0-.12.59c-.17,1.8-.3,3.06-.37,3.71-.12,1-.1,1-1.34,1.09l-.83.06c-.43,0-.56-.08-.57-.42,0-.13,0-.45.07-1,.1-1.07.16-1.6.26-2.66a2.56,2.56,0,0,0,0-1.13c-.18-.57-.34-1.08-.79-2.19-.57-1.51-.86-2.26-1.45-3.73q-.1-.3-.18-.57c0-.13.12-.3.31-.33a11.23,11.23,0,0,1,2.31-.18.49.49,0,0,1,.44.34c.09.25.26.64.42,1.11,0,.2.28.86.38,1.14s.18.5.43.48a.34.34,0,0,0,.32-.23c.14-.25.29-.54.48-.92.49-1,.8-1.58,1-1.9a.71.71,0,0,1,.56-.35c.8-.09,1.5-.1,2-.13A.4.4,0,0,1,148.4,192.76Z"/><path class="cls-2" d="M112.89,222.69a.13.13,0,0,1,0,.1v.11c-.11.43-.26.55-.77.59s-1,.08-1.53.09c-.34,0-.51-.11-.54-.35s-.11-.83-.23-1.42-.25-1.14-.29-1.41a3.09,3.09,0,0,0-.22-.94.31.31,0,0,0-.44,0,1.12,1.12,0,0,0-.25.54c-.28,1.46-.49,2.44-.59,2.89-.18.83-.25.87-1.35,1-.66,0-1.41.19-1.52-.32l-.3-1.32c-.15-.64-1.7-8.25-2-9.57-.17-.74,0-.86,1-.91l.37,0v0c1.13-.08,1.39-.21,1.48.28.14.7.22,1.05.36,1.75,0,.26.22,1.22.3,1.62,0,.19.14.29.3.31s.35-.15.38-.36c.1-.4.28-1.36.31-1.54.2-.95.35-1.6.44-2a.57.57,0,0,1,.57-.41c.46,0,1.06-.1,1.74-.13s.79,1.11.79,1.19c.08.42.28,1.66.38,2.19a1.25,1.25,0,0,0,.13.39.33.33,0,0,0,.61-.08c.19-.74.3-1.24.52-2.34.08-.39.17-.71.24-.95.15-.54.24-.63,1-.7l1.42-.09c.44,0,.58.12.52.46,0,.1-.11.52-.28,1.26C114.77,215,113.4,220.47,112.89,222.69Z"/><path class="cls-2" d="M118.88,223c-.43,0-.76.05-1,.05-.61,0-.52-.44-.5-.93.21-4.2.31-6.35.51-10.6,0-.42.08-.69.18-.77a7.08,7.08,0,0,1,2.11-.29c.62,0,.52.4.49,1-.23,4.23-.35,6.36-.6,10.55C120,222.91,120,222.93,118.88,223Z"/><path class="cls-2" d="M130.6,211.3a.67.67,0,0,1-.15.35,2,2,0,0,1-.94.2,2.36,2.36,0,0,0-1.25.29c-.29.22-.3.52-.35,1.23-.24,3.2-.37,4.8-.61,8,0,.64,0,1.06-.57,1.12s-1.16.1-1.7.12-.47-.41-.43-.94c.23-3.27.34-4.93.57-8.24,0-.61.06-.85-.14-1a2,2,0,0,0-1.16-.11l-.54,0c-.43,0-.63-.06-.63-.42s0-.79.07-1.2a.49.49,0,0,1,.16-.31c.2-.14.48-.13,1-.17l5.65-.44c1.1-.09,1.15-.09,1.08.75C130.65,210.88,130.62,211.16,130.6,211.3Z"/><path class="cls-2" d="M138.26,221.64c-.38,0-.68,0-.88,0-.56,0-.46-.39-.41-.87.12-1.25.18-1.88.29-3.13a2.17,2.17,0,0,0,0-.74c-.13-.49-1.12-.34-1.79-.26s-.64.55-.69,1.06c-.12,1.31-.19,2-.31,3.26-.08.85-.18.92-1.29,1-.77.06-1.17.1-1.33,0s-.12-.36-.07-1c.38-4.21.57-6.36.93-10.6,0-.45.1-.71.23-.81a7.66,7.66,0,0,1,2.08-.27c.62,0,.5.41.45,1-.11,1.2-.16,1.8-.27,3-.06.58-.14,1,.1,1.12a3.27,3.27,0,0,0,1.67,0c.67-.12.7-.67.75-1.19l.15-1.61c.07-.71.13-1.26.18-1.61s.11-.71.24-.81a6.88,6.88,0,0,1,2-.26c.61,0,.48.41.44.88-.43,4.32-.65,6.5-1.1,10.79C139.55,221.51,139.48,221.55,138.26,221.64Z"/><path class="cls-2" d="M117.48,238a1.06,1.06,0,0,1-.37.18c-1.85.57-3.61.44-4.74-.63a1.72,1.72,0,0,1-.39-.61,4.87,4.87,0,0,1-.21-1.38c.12-3.05.18-4.62.3-7.82,0-.42.07-.68.18-.77a6.37,6.37,0,0,1,2-.25c.61,0,.5.4.48,1-.14,3-.2,4.42-.34,7.26,0,.25,0,.47,0,.64a1,1,0,0,0,1.2.88c1-.17,1.19-.91,1.23-1.68.16-2.92.24-4.43.4-7.49,0-.85.07-.87,1.2-.94l1.06-.06c.49,0,.42.45.39.91-.2,3.34-.3,5-.51,8.16A3.21,3.21,0,0,1,117.48,238Z"/><path class="cls-2" d="M129.06,235.31a3.06,3.06,0,0,1-1,1.49c-1.07.93-1.47.84-3,1a4.43,4.43,0,0,1-2.12-.26,2.24,2.24,0,0,1-.78-.51,3.23,3.23,0,0,1-.81-1.67c0-.24-.06-.66.4-.74.73-.12,1.25-.2,1.48-.22.44,0,.59.05.69.39a2,2,0,0,1,.05.22,1.63,1.63,0,0,0,.18.45,1.13,1.13,0,0,0,1.29.47,1.39,1.39,0,0,0,1-1c.1-1-.34-1.11-1.41-1.94l-1.87-1.38a3.07,3.07,0,0,1-1.23-3,3.7,3.7,0,0,1,2.86-2.79c3.36-.87,4.71.75,4.8,2.2,0,.21-.1.32-.33.4a7.4,7.4,0,0,1-1.74.36q-.4,0-.51-.24c-.07-.18-.11-.27-.19-.44a1.14,1.14,0,0,0-2.07.38,1.75,1.75,0,0,0,.67,1.81c.39.4,2,1.37,2.54,1.83A3,3,0,0,1,129.06,235.31Z"/><path class="cls-2" d="M76.65,189.9a5.49,5.49,0,0,1,.35-.55,6.8,6.8,0,0,0,1.69-1.6c.22,0,.78-1.05,1.67-3.11l1.5-1.9c.46-1.14.78-1.72,1-1.73a20.37,20.37,0,0,0,4,3.17,15.51,15.51,0,0,0,2.68,1.44,21,21,0,0,0-1.19,3.07.32.32,0,0,1,0,.2.67.67,0,0,0-.2.34l0,.07v.33c-.07,0-.11,0-.12.07l0,.27a4.47,4.47,0,0,1-.26.55,1.81,1.81,0,0,1,.29.9l.23-.09a1,1,0,0,1,.77-.72,22,22,0,0,1,1.89-3.19l.18,0a5.14,5.14,0,0,1-.46,1c0,.4,0,.59.11.58,0,.54.11.8.23.79l.29,0,.21-.08c.7-1.21,1.2-1.82,1.48-1.85s.82-.42,1.39-1.17c1.1-1.78,2.29-4,3.59-6.58A4,4,0,0,0,99.49,184a6.41,6.41,0,0,0,2.36,1.53,22.79,22.79,0,0,0,4.76.46,22.7,22.7,0,0,0,5.71-1.52,5.11,5.11,0,0,1,1.93-1.08l.29,0c.08-.27.57-.67,1.47-1.18a43,43,0,0,0,3.44-2.83c-.18.52-.32,1-.43,1.33a4.8,4.8,0,0,0-.1,2,5.21,5.21,0,0,0,1.37,2c.56,1.2,1.83,2.08,3.82,2.67,1.73-.35,2.63-.62,2.68-.82.76-.59,1.36-1,1.8-1.33a12,12,0,0,1,1.55-2.37,6.2,6.2,0,0,1,1.18-2.08.28.28,0,0,1,0-.27l.06-.2a10.11,10.11,0,0,1,.84-1.26,31.26,31.26,0,0,1,3.23-5.68,67.33,67.33,0,0,1,4.46-6,32.08,32.08,0,0,0,3.3-3.84,4.51,4.51,0,0,0,.83-.93c-.05-.13-.13-.19-.23-.18a9.49,9.49,0,0,1,.9-1.13l.06-.2-.29,0a10.8,10.8,0,0,1-2,1.42,38.16,38.16,0,0,0-3,2.83l-.06.2.21-.09h.1c-.36.43-.58.64-.65.65H139c0-.09.16-.25.43-.5v-.06a1,1,0,0,1-.3.08c-1.12,1.16-1.88,1.9-2.27,2.24a6.84,6.84,0,0,1-1.94,2.14h-.1l0-.07a1.29,1.29,0,0,1,.45-.56,9.36,9.36,0,0,1,1.75-2.13c.38-.69.77-1.05,1.18-1.09q.21-.7,1.68-1.59a4.46,4.46,0,0,1,1-1c.09-.3.54-.67,1.37-1.11l0-.13-.29,0,0-.07.24-.21a3.16,3.16,0,0,0,1.66-.86,9.56,9.56,0,0,0,1.87-1.21.86.86,0,0,0-.37,0c0-.18.31-.42.78-.73l0-.12H146a7,7,0,0,0-2.9,1.22,11.39,11.39,0,0,0-2.45,1.92h.1c1.11-.79,1.7-1.19,1.76-1.2h.19l0,.14a22.14,22.14,0,0,0-3.68,3.27,21.39,21.39,0,0,0-3,3,16.64,16.64,0,0,0-1.91,2.33c-1.17,1.41-1.77,2.17-1.8,2.26l-.36,0v-.06l.21-.35-.31,0a72.07,72.07,0,0,0-5.55,8.32q-2.58,4-3,4h-.1a1.45,1.45,0,0,0-.33-.77c-.55,0-.75-.32-.61-.81.07,0,.11,0,.12-.08s0-.26-.15-.44l.14-.47.22-.42a.3.3,0,0,1,0-.19,2.75,2.75,0,0,1,.59-1.05.45.45,0,0,1,0-.33,3.16,3.16,0,0,1,.46-.89l0-.27c.29-.55.46-.83.53-.83q1.9-5.17,2.19-5.2a.2.2,0,0,0,0-.19l.23-.43.31-1.07-.06-.13q.47-.26,1.32-2.88c1.15-.7,1.79-1.26,1.91-1.68l.12-.4s-.19-.19-.61-.49c-.31-.81-.5-1.21-.59-1.21.2-.68-.26-1.32-1.4-1.93l-.86.07q-.15,0-.6.45l-.1.34c-.42.79-.94,1.91-1.57,3.36.07,0,.09,0,.08.07a11.8,11.8,0,0,0-.6,1.43,6.87,6.87,0,0,0-.2.94q-1.65,4.06-2.74,6.91c-.08-.44-.23-.65-.46-.63-.53-.58-1-.85-1.36-.82.1-.33-.78-.43-2.63-.31a41,41,0,0,0-8.59,3,33.58,33.58,0,0,1-3.49,1.61h-.1a3.83,3.83,0,0,0,.07-.87,7.45,7.45,0,0,0,.53-1.16c-.06,0-.08,0-.07-.06q2.42-3.74,3.57-4.12a27.57,27.57,0,0,1,2.54-1.6,8.67,8.67,0,0,1,3.26-1.19,15.21,15.21,0,0,1,3.65,0,1.76,1.76,0,0,1-.36.62c0,.14.12.22.31.24a2.69,2.69,0,0,1,.61-.18,1.08,1.08,0,0,1,.44.1,8.34,8.34,0,0,0,1.2-.57c.2-.66.15-1.12-.15-1.37l-1.8-.64a18.52,18.52,0,0,0-3.77-.29,21.6,21.6,0,0,0-5.53,1.57c-1,.59-1.67.92-1.9,1-3.06,2.11-4.64,3.31-4.73,3.62-.38.34-.72.69-1,1a16.35,16.35,0,0,0,1.31-2.72l0-.14-.19,0a1.85,1.85,0,0,0-.26-1l.21-.41-.34-.43a1,1,0,0,0-.24-1.11,1.72,1.72,0,0,1-.94-.32l-1.06.09a1.54,1.54,0,0,0-.81.86,36.8,36.8,0,0,1-3.59,6.11,49.22,49.22,0,0,1-3,4.93,19.87,19.87,0,0,1-1.91,3.59,17.5,17.5,0,0,1-2.81-1.95A17.21,17.21,0,0,1,84.47,178a21.14,21.14,0,0,0,2-3.41L88,171.4c0-.09-.08-.13-.33-.1s-.51-.2-1-.65l-.67,0-.9-.12-1,.08a1,1,0,0,0-.78.39c0,.17.12.26.21.25a.63.63,0,0,1-.35.23H83.1c-1-.36-1.48-.54-1.53-.54a1.31,1.31,0,0,0-.31.1.78.78,0,0,0-.27,0,1.06,1.06,0,0,0-.76.33l-.07.26a3.53,3.53,0,0,0-.12,1c-.24.62-.38,1-.42,1.15l0,.13h-.08l-.12.67-.2.41,0,.14c-.61,1.66-1.09,2.87-1.43,3.61a.29.29,0,0,0,0,.2c-.17.39-.37.86-.58,1.4-2.1.39-3.59.7-4.49.93l-.48,0a.33.33,0,0,0,0-.26l.18-.29a2.79,2.79,0,0,1,0-.66v-.06l.41-.43h-.1c.49-2.29.79-3.64.91-4l.21-.35c-.07,0,0-.37.13-1.13.07,0,.11,0,.12-.08a.52.52,0,0,1,0-.37c.46-1.91.55-2.85.28-2.83a11.43,11.43,0,0,0-.76-1.59c-.18-.85-.34-1.27-.47-1.28a1.88,1.88,0,0,0-2.06-.95,2.41,2.41,0,0,0-1.81.74l-.1.34a27.54,27.54,0,0,1-1.58,3.1L59,183.15c-1,1.72-1.71,2.58-2,2.61-1.7.26-2.59.53-2.68.81a1.34,1.34,0,0,0,0,.44l-2,.53q-7.26,2-7.75,2l.11-.35v-.32c.07,0,.11,0,.13-.08a.29.29,0,0,0,0-.2l.3-.68a.71.71,0,0,0,0-.52c.17-.28.31-.43.4-.43q.18-.91.3-1.35l.16-.54.39-.37.39-2.28a4.55,4.55,0,0,1,.26-.54c.15-.73.31-1.38.48-2l.12-.4.2-.35c-.07,0-.07-.19,0-.59a.71.71,0,0,1,.16-.21,7.27,7.27,0,0,1,.32-1.41,8.68,8.68,0,0,0,.33-1.42c.08-.05.16-.26.27-.63a.54.54,0,0,0-.05-.45.67.67,0,0,1,.18-.28c.27-1.85-.16-3-1.28-3.59a7.31,7.31,0,0,1-1.39-.41,4.65,4.65,0,0,0-1.38-.09s0,.07-.12.07a.73.73,0,0,1-.27,0c-.53.09-.82.22-.88.4v.34a5,5,0,0,1,.33,2.08,8.44,8.44,0,0,0-.39,2.61.61.61,0,0,1-.18.28,6.19,6.19,0,0,1-.43,2.41l0,.4c-.07,0-.11,0-.12.08a42,42,0,0,1-.89,4.8c-.67,3.2-1,4.92-1.11,5.14l-.14.14-.15.87a11.57,11.57,0,0,1-1.76,3.38,3.86,3.86,0,0,0,2.54,1.44,15.1,15.1,0,0,1,1.67-.4c.14-.48,1.32-1.09,3.54-1.8a22.83,22.83,0,0,1,4.46-1.76A16.38,16.38,0,0,0,54,188.84a14.68,14.68,0,0,1,1.3-.74l.4.15A27.36,27.36,0,0,0,54,191.76h.1c-.28.95-.11,1.4.53,1.35h.1l.21-.09c.22.12.32.2.3.25a1.15,1.15,0,0,0,.35-.23c.82-1.22,1.35-1.83,1.59-1.85a13.05,13.05,0,0,0,3-2.83,3.91,3.91,0,0,1,1.35-.43,12.49,12.49,0,0,0,1.66-.54c1.14-.44,2.59-.91,4.37-1.41.27,0,.4.49.39,1.55q.38,4.29,1.12,5.13a1.61,1.61,0,0,0,1.82,1.18l.07-.28c0-.79-.12-1.17-.31-1.16a7.76,7.76,0,0,0,.13-2l.28-.62,0-1.12.24-.49a6.24,6.24,0,0,0,.23-1.73.57.57,0,0,1,.16-.21l0-.41.1-.33c0-.08.1-.12.23-.15a4.87,4.87,0,0,0,.07-1.2A4,4,0,0,1,73.73,183l-.14-.19,0-.07a4.52,4.52,0,0,0,1.09-.48c.87-.26,1.58-.49,2.15-.69-.58,1.55-1.25,3.51-2,5.9a3.26,3.26,0,0,0,.29,2.81c.59.14.87.25.85.33.34-.06.52-.14.55-.25Zm59.91-21.26a8.94,8.94,0,0,1,2.14-2.42l.17.05a16.62,16.62,0,0,1-1.92,2c-.61.93-1,1.41-1.26,1.43A2.13,2.13,0,0,1,136.56,168.64Zm-32.06,9.83s.39-.17,1.08-.5a15.4,15.4,0,0,0,2.25-.9,51.13,51.13,0,0,1,5.09-2h.1l-.47.3a10.27,10.27,0,0,0-2.14.9,29.48,29.48,0,0,0-3.87,2l0,.07.13.19.22-.09a1.47,1.47,0,0,1,1.23-.69,7.53,7.53,0,0,1,2-.76,14.61,14.61,0,0,0,2.47-1,40.11,40.11,0,0,1,4.29-1.2.69.69,0,0,1,.27,0s.12-.09.33-.15l.2,0q1.24-.11.81,1.35t-4,4A10.53,10.53,0,0,0,113,181q-4.41,2.53-6.81,2.73-1.68,0-1.86-4.53l.13-.14c-.06,0-.1-.06-.13-.19A.82.82,0,0,0,104.5,178.47ZM100.74,181a3.81,3.81,0,0,0,.82,2.31l0,.07h-.1c-.17-.05-.24-.11-.23-.17-.47,0-.71-.63-.73-2A.27.27,0,0,1,100.74,181ZM68,181l-.14.14-.08,1.53c0,.15-1.18.51-3.42,1.07l-.17-.05a24.42,24.42,0,0,1,2.45-2.84A7.79,7.79,0,0,1,68,179.11h.1A9.45,9.45,0,0,0,68,181Z"/><path class="cls-2" d="M214.76,118c-3.42-.13-6.88,0-10.31,0-4,0-7.92,0-11.89,0-3.46,0-8.36-.35-9.24,2.91-1,3.8-.18,8.55-.18,12.38v23.46c.23-.1.36.54.42.51l.29-.32,1.79-1.42.56.16c.46-.1,1.3-.31,2.78-.78l13.12-3.78,4.91-.9-.21,1.4.28,0-.52,1.87c2.75,0,5.59-.33,6.82-1.85s.81-5,.48-6.82c-.29-1.59-.89-2.14-2.88-2.48-3.1-.53-6.65.48-9.66-.23-3.53-.82-2.56-4.9-2.51-7.14,0-1.27,0-2.55.1-3.82.17-2,1.46-2.32,3.75-2.48,1.74-.12,3.54-.07,5.29-.08,3.48,0,10.34.92,11.57-2.51a.33.33,0,0,0,.07-.16c.21-1.79,1-5.24-.39-6.81C218.23,118.09,216.26,118.09,214.76,118Z"/><path class="cls-2" d="M172.05,144.91c1-4.7.35-10.16.14-14.94-.19-4.29-2.73-8-7.88-10-4.82-1.77-10.24-1.82-15.45-1.82-4.3,0-9.42-.7-13.53.44-4.27,1.17-2.93,6.82-2.93,9.77v35.82a1.55,1.55,0,0,1,.26,1.52l-.1.34a2.54,2.54,0,0,1-.16.38v1.14c.34-.41.78-.89,1.33-1.47a10.64,10.64,0,0,1,1.4-1.49l-.36,0,3.82-3.73a13.72,13.72,0,0,1,2.77-2.11,10.24,10.24,0,0,1,3.87-1.57l.22,0L148,157a2.65,2.65,0,0,1,3.37.53,3,3,0,0,1,.54,1,4.27,4.27,0,0,1,3,1.77,4.12,4.12,0,0,1,.77,1.71c.21.37.39.74.55,1.1.57.68.57,1.53.2,3.19h1a55.6,55.6,0,0,0,5.06-3.07l.25-.17.31-.11h0s.32-.15,1.54-.81l.17-.09.19-.07a31.13,31.13,0,0,1,5-1.48c-.3-.82-.59-1.63-.87-2.44-.63-1.83-1.78-4-1.35-5.87C168.27,149.53,171.46,147.7,172.05,144.91Zm-15.5-4.6a5,5,0,0,1-1,3.4c-2.08,2.42-6,2-6.56-.67a6,6,0,0,1,0-.85c-.21-3.59-.9-7.89-.1-11.43.34-1.49.45-1.44,2.38-1.13,3.38.53,4.95,1.61,5.33,4.29C156.55,136,156.65,138.19,156.55,140.31Z"/><path class="cls-2" d="M105,160c0,1.6,0,3.6-1,5.08a3.87,3.87,0,0,1-1.27,1.23l.19,0,.7.55a2.84,2.84,0,0,1,.9,1.4l.95-.63.31-.11s.31-.14,1.54-.81l.17-.09.18-.07a25,25,0,0,1,6.41-1.69c.24,0,.51,0,.8,0a27.2,27.2,0,0,1,3.71.33l.3,0,2,.68a14.23,14.23,0,0,0,.45-3.56v-37.2c0-3,.91-6.45-4-6.82-2.89-.21-7.08-.49-9.86.46-2.26.77-2.45,2-2.51,3.86-.23,7.6,0,15.22,0,22.82v12.39C105,158.57,105,159.29,105,160Z"/><path class="cls-2" d="M90.53,171.63l-1.62,3.12a7.13,7.13,0,0,1-.49,1A20.12,20.12,0,0,0,91,176.89c.56-.86,1.17-1.88,1.82-3l.07-.13.09-.12a32.65,32.65,0,0,0,3.34-5.4,3.59,3.59,0,0,1,1.84-1.86l.54-.29.57-.05a5.1,5.1,0,0,1-2.06-2.81c-.73-2.93-.2-6.58-.2-9.56V126.18c0-2.46,1.24-6.72-2.31-7.69-2.52-.69-6.64-.36-9.22,0s-4.27.88-4.7,3c-.53,2.57-.12,5.48-.12,8.06V160a24.3,24.3,0,0,0,1.2,8.61,2.61,2.61,0,0,1,.46.08,4.24,4.24,0,0,1,1.58-.41l1.31-.11.91.12,1.73-.14.84.82a2.9,2.9,0,0,1,1.34.71l.78.77-.27,1Z"/><path class="cls-2" d="M198.47,172.66l-.16.1-.18.08c-2.71,1.23-4.72,2.22-6,2.94-1.85,1.09-3.39,2-4.63,2.66a27.93,27.93,0,0,0,8.29-.63c3.22-.88,3-3,2.93-5.33Z"/><path class="cls-2" d="M40.71,175.57l-.26-.85.42-.37a18.45,18.45,0,0,1,.39-2,2.91,2.91,0,0,0-.17-1.11l-.16-.34V170l.07-.24a2.58,2.58,0,0,1,1.63-1.56l.13-.43,1.64,0,.2,0,.13,0h.12a6.49,6.49,0,0,1,2.76.38l.72.18.32.07.28.14c1.43.66,3,2.14,2.55,5.4l-.09.62,0,0a1.59,1.59,0,0,1-.06.3,5.66,5.66,0,0,1-.28.72c0,.17-.08.36-.14.57l1.17-.09-.9,1.47a26.33,26.33,0,0,0,8.68-1.4c.42-.17.82-.35,1.21-.55l4.37-5.71a25.86,25.86,0,0,0,1.37-2.56l.17-.57.24-.29a4.48,4.48,0,0,1,2.31-1.39c1.3-9.55-5-15.58-13.66-21.63-4.14-2.91-8.94-6-9.65-10.62-.3-2,.82-7.36,4.66-4.46,1.47,1.11,1.46,2.38,2.4,3.67,2.17,3,8.8,1.39,12.13.52,4.3-1.13,4.22-3,2.89-6.16-2.87-6.86-10.83-10.3-19.88-9.66-10.17.72-18.53,5.68-19.39,14-.81,7.93,4.77,13.36,11.52,18.54l7.12,5.49c1.76,1.34,3.83,2.68,4.79,4.49,1.29,2.41,1.35,6.65-2.62,7-6.17.62-3.41-6.38-7.92-7.59-2.88-.78-9.36,0-11.87,1.1-4.28,1.93-.68,7.8.93,10.23a16.33,16.33,0,0,0,9.51,6.67A8.68,8.68,0,0,0,40.71,175.57Z"/><path class="cls-2" d="M203.53,164.81a15.65,15.65,0,0,0-2.85,1q-3.37,1.32-4.92,2.05a74.59,74.59,0,0,0-7.9,3.81,34.81,34.81,0,0,0-3.58,1.94,4.08,4.08,0,0,1-1.46.78l.2-.34a1.39,1.39,0,0,0,0-.53,8.58,8.58,0,0,1,.75-1.32l.06-.2v-.33h.09a11.65,11.65,0,0,1,1-2,19.46,19.46,0,0,0,3-1.31,4.64,4.64,0,0,0,1.88-.94,21,21,0,0,0,1.95-.88c.47-.22,1.36-.67,2.65-1.35.65-.71,1.07-1.07,1.26-1.09.09-.32.53-.73,1.31-1.23a14,14,0,0,1,1.51-1.31l0-.14a.84.84,0,0,0-.93-.65c-1,.32-2,.68-3,1.1q-5.84,2.46-7,2.75a10.56,10.56,0,0,1,.84-1.92l.08-.26a5.85,5.85,0,0,0,.06-.81,1.08,1.08,0,0,1,.53-.57,18.5,18.5,0,0,0,2.29-1q2.43-.83,4.56-1.76a21,21,0,0,0,2.13-1.16,3,3,0,0,0,1.25-.77,10.09,10.09,0,0,0,1.49-.91,6.06,6.06,0,0,0,2.26-1.24c.19-.38.4-.57.63-.59l0-.13h-.08a2.51,2.51,0,0,1-.74.25h-.1c0-.07.22-.21.61-.44l0-.07-.61.11-12.9,3.9a20.86,20.86,0,0,1-4,1l-.18,0-.21.09a6.57,6.57,0,0,1-2.21,1.16q-4.8,1.57-5.15,2.74c-.06.24.25.5.94.79a6,6,0,0,0,2.78.29,4.17,4.17,0,0,1,1.17-.42l.19,0c-.61,1.22-1.16,2.45-1.66,3.7-.1.34-.42.58-1,.74-2.1.73-3.23,1.38-3.4,1.93l.28.4a1.7,1.7,0,0,0-1.21-.67c.1-.33-.78-.44-2.62-.31a40.28,40.28,0,0,0-8.6,3,36.37,36.37,0,0,1-3.49,1.61h-.1a5,5,0,0,0,.08-.86,9.38,9.38,0,0,0,.52-1.16c-.06,0-.08,0-.06-.07,1.6-2.48,2.79-3.86,3.56-4.12.74-.52,1.59-1.06,2.54-1.6a8.85,8.85,0,0,1,3.26-1.18,15.87,15.87,0,0,1,3.65,0,1.71,1.71,0,0,1-.36.63c0,.14.12.22.31.24a2.69,2.69,0,0,1,.61-.18,1,1,0,0,1,.44.09,7.51,7.51,0,0,0,1.21-.56c.19-.66.14-1.12-.16-1.37l-1.8-.65a18.33,18.33,0,0,0-3.77-.28,21,21,0,0,0-5.52,1.57c-1,.58-1.67.92-1.91,1q-4.59,3.16-4.72,3.62a13.68,13.68,0,0,0-3.94,5.44c-1.5.29-2.62.53-3.34.72l-.48,0a.32.32,0,0,0,0-.27l.19-.28a2.56,2.56,0,0,1,0-.67l0-.06.4-.42h-.1c.49-2.28.79-3.63.91-4l.21-.35c-.07,0,0-.37.13-1.13.07,0,.11,0,.12-.08a.49.49,0,0,1,0-.36c.46-1.91.56-2.86.28-2.83a11.43,11.43,0,0,0-.76-1.59c-.18-.85-.34-1.28-.46-1.28a1.92,1.92,0,0,0-2.07-1,2.45,2.45,0,0,0-1.81.74l-.1.35a26.61,26.61,0,0,1-1.58,3.09l-8.7,11.95c-1,1.71-1.7,2.58-2,2.6-1.7.26-2.59.53-2.68.81q-.31,1.11,1.38,1.68a28.75,28.75,0,0,0-1.78,3.51h.1c-.28.95-.11,1.4.53,1.35h.1l.21-.08c.22.11.32.19.31.24s.16-.08.34-.23c.82-1.21,1.35-1.83,1.59-1.85a12.86,12.86,0,0,0,3-2.82,3.78,3.78,0,0,1,1.35-.44,12.8,12.8,0,0,0,1.66-.53c1.14-.44,2.6-.91,4.37-1.42q.41,0,.39,1.56c.25,2.86.63,4.57,1.12,5.13a1.61,1.61,0,0,0,1.82,1.17l.08-.27c0-.79-.13-1.18-.32-1.16a7.81,7.81,0,0,0,.13-2.06l.28-.62-.05-1.12.24-.48a6.24,6.24,0,0,0,.23-1.73.71.71,0,0,1,.16-.21l0-.41.1-.34c0-.07.1-.12.23-.14a5,5,0,0,0,.07-1.21,4.16,4.16,0,0,1,1.74-1.06l-.15-.18,0-.07a5.62,5.62,0,0,0,1.08-.49l1.16-.36a4,4,0,0,0,1.55,3.91,6.36,6.36,0,0,0,2.36,1.52,22.12,22.12,0,0,0,4.76.46,22.6,22.6,0,0,0,5.71-1.51,5.19,5.19,0,0,1,1.93-1.09l.29,0c.08-.28.57-.67,1.47-1.18A25.28,25.28,0,0,0,178,173.1l.06-.2c-.1,0-.22.1-.37.28l-.17,0,.7-1.12c-.06,0-.08,0-.07-.06l.12-.41a4.07,4.07,0,0,0-.14-1.38,8.9,8.9,0,0,1,1.87.53l-.2.68-.14.14h.1a26.47,26.47,0,0,0-1.14,3.2v.34c-.07,0-.11,0-.12.07a.23.23,0,0,0,0,.2l-.2.34,0,.27-.22.41q-.45,2.28-.09,2.25c-.07.23.09.32.48.29.18.34.35.51.5.49a1.46,1.46,0,0,0,.91.45l.59-.11a.73.73,0,0,0,.27,0,10.32,10.32,0,0,0,2.42-1.51q1.8-.86,7.39-4.31,2-1.2,6.21-3.21a37.42,37.42,0,0,1,4.3-2.47,11.65,11.65,0,0,1,2.32-1.51s.41-.35,1.22-1q1.6-.67,1.83-1.41l-.34-.42C204.47,164.3,203.6,164.59,203.53,164.81Zm-56.17,9.54-.14.14-.07,1.53a13.54,13.54,0,0,1-3.43,1.07l-.17-.06a26.28,26.28,0,0,1,2.45-2.84,7.89,7.89,0,0,1,1.36-1.76h.1A9.53,9.53,0,0,0,147.36,174.35Zm11.44,4.21h-.1c-.17-.06-.24-.12-.23-.18-.47,0-.71-.62-.73-2a.27.27,0,0,1,.26-.22,3.78,3.78,0,0,0,.82,2.3Zm16.94-7.43q-.41,1.38-4,4a9.66,9.66,0,0,0-1.54,1.06c-2.93,1.69-5.21,2.6-6.81,2.73q-1.68,0-1.85-4.54l.12-.14c-.06,0-.1,0-.13-.18a.86.86,0,0,0,.22-.42s.39-.16,1.08-.49a14.64,14.64,0,0,0,2.25-.91,53,53,0,0,1,5.09-2h.1l-.46.29a9.45,9.45,0,0,0-2.14.91,27.93,27.93,0,0,0-3.88,2l0,.07.13.19.22-.09a1.48,1.48,0,0,1,1.24-.7,7.63,7.63,0,0,1,2-.75,12.9,12.9,0,0,0,2.47-1,41.58,41.58,0,0,1,4.29-1.2,1,1,0,0,1,.27,0s.12-.09.33-.16h.2Q176.18,169.68,175.74,171.13Zm19.92-2.57c-1,.49-1.8.84-2.38,1.05l-.2,0a31.18,31.18,0,0,1,3.27-1.52Q196.23,168.52,195.66,168.56Zm7.22-2.84c-2.21.86-4.24,1.67-6.07,2.42,0,0,0-.07-.17-.06l0-.13a7.37,7.37,0,0,1,1.48-.58,8.64,8.64,0,0,1,1.66-.8,7.15,7.15,0,0,1,1.79-.67,11.72,11.72,0,0,1,2.54-1h.1A9.46,9.46,0,0,0,202.88,165.72Z"/><path class="cls-2" d="M191.53,110.12l-4.79-8.54a.92.92,0,0,0-.65-.44c-.07,0-3.72-.63-8.57-1.25l-1.4-.28c-1-.18-1.51-1.31-1.62-2.29a4.27,4.27,0,0,0-.7-2.1,9.89,9.89,0,0,1-1.82-4,34.19,34.19,0,0,0-.91-3.72c-1.18-3.66-2.5-7.29-3.72-10.94-1-3.09-1.85-6.27-4.75-8.3-.06,0-.13-.09-.14-.15-.05-.36-.23-.79-.1-1.07.31-.64.82-1.19,1.17-1.83a5.83,5.83,0,0,0,.14-5.8c-.63-1.21-2.82-2.79-4-2.44a4.29,4.29,0,0,0-3.21,2.71c-.33,1.11-.54,2.25-.82,3.51a.2.2,0,0,1-.24.15c-.85-.24-1.81-.51-2.78-.76a13.53,13.53,0,0,0-2.94-.66c-2.17,0-4.34.15-6.51.21-1.44,0-2.88.08-4.31,0q-6.51-.39-13-.89a8.27,8.27,0,0,1-2.73-.59,6.37,6.37,0,0,0-3.55-.64,3.08,3.08,0,0,1-1.45-.29l-.06-.11a30.74,30.74,0,0,1-.64-9,2.84,2.84,0,0,1,.13-.67c.83-7,4.59-13.5,10.51-16.73A32.28,32.28,0,0,1,140.11,29a25.37,25.37,0,0,1,3.62-.41c.83-.14,2.06.18.67-.85S131.53,29,127.47,31.17A23.62,23.62,0,0,0,116,44.43a.13.13,0,0,1-.26,0A37.72,37.72,0,0,1,118.48,27a.43.43,0,0,0-.73-.43c-1.72,2.09-8.37,14.76-6.06,28.65,1.79,10.75,7.94,18.5,7.52,18.72s-3.92-4.51-5.56-7.32a49,49,0,0,1-2.75-5.49,37.37,37.37,0,0,1-1.67-25.36c2.12-7.77,3.21-12.21,10.93-20.19a.44.44,0,0,0-.44-.72c-3.89,1.21-8.85,5.73-11.36,9.17a42.3,42.3,0,0,0-7.68,20.29c-.78,8-.36,11.66.74,19.79.07.49-1.36-2.49-1.6-3.21-1.12-3.37-3.14-10-2.29-22.44a60.16,60.16,0,0,1,4.64-18.59.43.43,0,0,0-.65-.5c-6.34,4.53-10.25,13.17-11.25,26.26a45.91,45.91,0,0,1-1-7.09c0-11.13,1.89-20.54,10.06-28.19a3.92,3.92,0,0,1,.62-.45A.23.23,0,0,0,100,9.6c-.37-.7-1.29-.59-1.8-1.12s-.71-.78-.36-1.36.48-.87,1.17-.83c2.38.14,3.7-.72,4.38-2.88a.43.43,0,0,0-.59-.52,36.31,36.31,0,0,0-9.39,6,39.7,39.7,0,0,0-11.1,17.26A60.64,60.64,0,0,0,80.06,57c2.37,11.89,8.25,20.84,19.78,34.36a.23.23,0,0,1-.34.31c-4.93-5-18.22-16.46-22.29-25.43-1.66-3.66-3.21-6.67-4.37-9.32v0c-.35-1.09-.37-2.27-.76-3.39s-.65-.64-.53-1.7-1.27-7.93-1.36-8.26-.11-.42-.15-.63a29.06,29.06,0,0,0-.1-4v0c0-.46-.06-2-.05-2.43a30,30,0,0,1,.58-3.71.13.13,0,0,1,0-.06,10.68,10.68,0,0,1,2.38-3.08,4.26,4.26,0,0,0,1.33-3.56c.14-.47.21-3.74.55-4.76v0a11.26,11.26,0,0,1,3.74-4.43,8.15,8.15,0,0,1,1-.72,6.77,6.77,0,0,0,1,5c.79,1.32,1.36,2.34,1.4,2.16A22.21,22.21,0,0,1,82.67,21c-2.42-3.11-1.83-4.59-.47-6a.66.66,0,0,0-.58-1.07,8.74,8.74,0,0,0-5.32,2.12,9,9,0,0,0-1.19,1.13,11,11,0,0,0-2.87,7.3v.23a11.51,11.51,0,0,0,.13,1.74c.08.54.27.93-.26,1.36a10.21,10.21,0,0,0-3.68,10.7l0,.18s0-.07,0-.1.15.48.27.91v0c-.06-.2-.13-.46-.22-.77a2.48,2.48,0,0,1,.22.77c.31,1.08.18.62,0,0a2.74,2.74,0,0,1,0,.64c-.14,1.28-.23,3.94-.26,4.19v0a58.82,58.82,0,0,0,5.69,22.15c6.21,12.7,16.16,21.16,23.23,25.91a.23.23,0,0,1-.22.4c-4.5-2-13.28-5.38-19.49-9.87-1-.73-1.34-1-1.76-1-.13,0-4-3.85-4.3-6.35a1.67,1.67,0,0,0-1.86-1.7,5.69,5.69,0,0,1-5.44-4.28,13.42,13.42,0,0,0-4.89-6.51,11,11,0,0,1-4.47-9.72,12.66,12.66,0,0,0-2-6.78,15.71,15.71,0,0,1-1.77-6.94l.13.06a10.53,10.53,0,0,1-.18-2.41,3.4,3.4,0,0,1,0-.45v-.05c0-.17,0-.34,0-.51.07-.63.62.24,1.47,1a30,30,0,0,0,8.93,4.93,19,19,0,0,0,4.87.75s0-.1,0-.15a4.42,4.42,0,0,1,0-.63c0-.33,0-.65.08-1-4.68-.71-8.32-1.63-12.15-5a9.24,9.24,0,0,1-2.49-2.68c-.19-.32-.56-.47-.79-.18a6,6,0,0,0-1.62,4.5,14.62,14.62,0,0,0,.89,9,29.76,29.76,0,0,1,2.25,8.93c.25,4,2.45,6.94,5.42,9.34A13.49,13.49,0,0,1,62.11,71a6.69,6.69,0,0,0,6,4.66l.17,0,.22.17a3.12,3.12,0,0,1,1.08.35l0,0a3.79,3.79,0,0,1,.87,1.31,18.82,18.82,0,0,0,3.06,4.62l0,0a82.93,82.93,0,0,0,20.5,11.67.42.42,0,0,1-.22.81,95.86,95.86,0,0,1-20.08-5.31c-3.43-1.37-6.72-2.88-9.91-4.44-4.31-2.12-6.11-5.62-10.31-8a8.15,8.15,0,0,0-1.17-.46,12,12,0,0,1-1.45-1.25c-.45-.45.58-.32,1.74-.47a32.85,32.85,0,0,0,7.41-2.54,5,5,0,0,1-.73-1.7,18.26,18.26,0,0,1-6.46,2.26,9.37,9.37,0,0,1-3.68.22c-.37-.06-.72.14-.64.49A9.77,9.77,0,0,0,49,75c.61,1.74,2.82,3.73,6,5.17a3.18,3.18,0,0,1,1.31,1.15C58.12,84,61,86,64.43,87.59c.66.38,1.33.74,2,1.07a2.68,2.68,0,0,1,.33.18c.7.31,1.41.61,2.13.91,4.1,1.69,20.19,7.6,30.31,10.8a142.62,142.62,0,0,0-20.73-1.9c-9.75,0-24.26,2.46-24.4,2.49a.92.92,0,0,0-.65.44l-4.8,8.54a.8.8,0,0,0,.16,1,1,1,0,0,0,.66.26.89.89,0,0,0,.39-.09c.12-.05,11.82-5.12,28.64-5.12a122.3,122.3,0,0,1,30.73,4,1,1,0,0,0,1-.33s2.65-3.49,9.82-3.49,9.71,3.36,9.81,3.49a1,1,0,0,0,1,.33,122.34,122.34,0,0,1,30.74-4c16.79,0,28.52,5.07,28.63,5.12a.93.93,0,0,0,.4.09,1,1,0,0,0,.66-.26A.79.79,0,0,0,191.53,110.12ZM157.43,95c-1.84-.77-3.61-1.54-5.4-2.23a1.41,1.41,0,0,1-.95-1.49,1.57,1.57,0,0,1,1.14-1.56l3.84-1.15a.19.19,0,0,1,.25.14c.42,2.07,1.78,3.83,1.4,6.14A.21.21,0,0,1,157.43,95Zm-2.71-18.53L159.44,74a.2.2,0,0,1,.23,0,11.82,11.82,0,0,1,1.84,2c2,3.36,3.64,6.88,5.57,10.27.66,1.16,1.64,3.13,2.22,4.33A11.14,11.14,0,0,1,170.71,94a17.81,17.81,0,0,1-.31,3.89.2.2,0,0,1-.22.17l-1.05-.16c-1.34-.23-2.68-.39-3.59-1.62a3.57,3.57,0,0,0-1.42-1,5.35,5.35,0,0,1-3.08-4c-.19-.84-.34-1.7-.52-2.54-.24-1.16-.19-2.19,1.08-2.81a3.82,3.82,0,0,0,.86-.76c1.25-1.2,1.19-2.23-.24-3.22-2.43-1.69-4.88-3.35-7.52-5.16A.19.19,0,0,1,154.72,76.45ZM119,63.52a6.43,6.43,0,0,1-.34-1.26c.46.15,1.27.15,1.36.34.3.67.85.6,1.38.57.81-.05,1.61-.15,2.42-.22a2.9,2.9,0,0,1,.93,0c1.15.3,2.28.65,3.42,1,2.38.69,4.73,1.48,7.13,2.06,2.06.5,4.19.74,6.28,1.11.83.15,1.64.37,2.66.6l-.76.66c-1.81,1.58-3.76,3-5.39,4.78a5.34,5.34,0,0,0,2.29,8.71c2.88,1,5.78,1.9,8.68,2.84.74.24,1.49.45,2.24.67a.19.19,0,0,0,.23-.08c.48-.75.92-1.52,2.25-.82a39.86,39.86,0,0,1-8.22,5.16.2.2,0,0,1-.17,0c-1.07-.56-2.17-1.1-3.21-1.71-2.84-1.66-5.8-3.16-8.44-5.07-1.34-1-4-3-4-3-.65-.66-2-1.87-1.52-1.59C125.53,74.69,120.49,67.67,119,63.52Zm-.33,18.24a69.65,69.65,0,0,0,10.09,8.06A62.94,62.94,0,0,0,154,99c-1.13.09-2.26.19-3.37.3A54.91,54.91,0,0,1,105.2,64.34,74,74,0,0,0,118.7,81.76Zm-23-5.24c-9.11-12.07-9.59-26.15-8.93-26.34a19,19,0,0,1,1.09,3.36v0A62.17,62.17,0,0,0,98.64,75.36a59.8,59.8,0,0,0,15.09,13.52h0c1.28.7,8.35,4.51,8.23,4.71C121.65,94.18,105.85,90,95.69,76.52Zm66,27.94A125.9,125.9,0,0,0,131,108.39c-1.11-1.12-4.38-3.74-10.9-3.74s-9.8,2.62-10.9,3.74a125.9,125.9,0,0,0-30.69-3.93,83.15,83.15,0,0,0-27.07,4.38l3.44-6.12c2.5-.41,15-2.39,23.63-2.39,12.94,0,29.14,3.43,29.3,3.47a1,1,0,0,0,.79-.18c.05,0,4.16-3.1,11.5-3.1s11.45,3.07,11.49,3.1a1,1,0,0,0,.8.18c.16,0,16.35-3.47,29.3-3.47,8.62,0,21.13,2,23.62,2.39l3.44,6.12A83.07,83.07,0,0,0,161.69,104.46Z"/><path class="cls-2" d="M133.4,6a18.21,18.21,0,0,1,3,2.16,28.7,28.7,0,0,0,6,3.89c2.72,1.28,3.81,3.87,4.11,6.69a4.32,4.32,0,0,0,2.26,3.36c3.37,1.84,4.68,5,4.76,8.72,0,.72-.81.59-1.62-.53-2.09-4.53-5.08-5.77-9.18-7a13.46,13.46,0,0,0-8.79.13c-2.43.9-6,3.85-5.59,4l1.67-1c6.73-3.91,17-2.18,20.83,3.73a21.9,21.9,0,0,1,2.08,4.67.51.51,0,0,0,.91.09,9,9,0,0,0,1.31-6.85,11,11,0,0,0-5.9-7.81c-.49-.25-.92-.33-1-1-.26-4.48-3-7.23-6.6-9.24-2.77-1.53-4.61-4.18-7.32-5.77a28.72,28.72,0,0,0-23.69-3c0,1.47.53,3.25-2,3.28a1.66,1.66,0,0,0-1.14,2.23C116,2.43,124.62,1.4,133.4,6Z"/><path class="cls-2" d="M141.48,8.14a29.94,29.94,0,0,0,3,.23c2,.08,11.91,1.74,16.81,4.71a9.69,9.69,0,0,1,4.78,5.64,1.38,1.38,0,0,0,1.73,1.14,4.68,4.68,0,0,1,5,2.77,11.25,11.25,0,0,0,4.81,4.66,9.06,9.06,0,0,1,4.9,7.31A10.45,10.45,0,0,0,185,39.84a15.24,15.24,0,0,1,2.66,6.89,4,4,0,0,1-.39,2.69A2.45,2.45,0,0,1,184.56,51a1.87,1.87,0,0,1-1.49-2.23,6.57,6.57,0,0,0-2.66-6,2.25,2.25,0,0,1-.62-1c-1.83-4.87-6.19-7-10.19-9.46a27.24,27.24,0,0,0-11.23-4.26c-1.18-.12-1.63,1.54-.26,1.62,7,.43,12.84,4.52,18,9,2.08,1.8,2.91,4.75,4.92,6.76.44.43.27,1.51.33,2.29.15,2.24,1.48,4,3.19,4.11s3.2-1.25,3.86-3.24c1.12-3.4.24-6.54-1.45-9.42a24.47,24.47,0,0,1-3-6.95c-.73-3.22-2.9-5.31-5.62-6.88a11.29,11.29,0,0,1-4-4.13,5.52,5.52,0,0,0-5.44-3A2.16,2.16,0,0,1,166.71,17c-5.46-8.2-21-11.15-24.92-9.64C140.46,7.85,141.08,8.1,141.48,8.14Z"/><polygon class="cls-2" points="28.54 110.88 4.06 67.55 39.56 67.55 39.56 65.19 0 65.19 25.82 110.88 28.54 110.88"/><polygon class="cls-2" points="211.65 110.88 214.37 110.88 240.19 65.19 177.57 65.19 177.57 67.55 236.14 67.55 211.65 110.88"/><polygon class="cls-2" points="167.39 189.2 120.1 272.89 78.61 199.35 76.08 199.68 120.1 277.7 170.33 188.81 167.39 189.2"/><polygon class="cls-2" points="203.94 110.88 205.76 110.88 226.67 73.86 227.34 72.69 177.57 72.69 177.57 74.27 224.63 74.27 203.94 110.88"/><polygon class="cls-2" points="36.25 110.88 15.56 74.27 39.56 74.27 39.56 72.69 12.86 72.69 34.44 110.88 36.25 110.88"/><polygon class="cls-2" points="159.06 190.31 120.1 259.25 85.78 198.39 84.09 198.62 119.41 261.24 120.1 262.45 161.02 190.04 159.06 190.31"/></g></g></g></svg>